<svg width="25" height="24" viewBox="0 0 25 24" fill="none" xmlns="http://www.w3.org/2000/svg">
<path d="M1.45898 9.33193C1.45898 6.90325 1.45898 5.68891 2.20749 4.93443C2.95599 4.17993 4.16069 4.17993 6.5701 4.17993H19.3479C21.7573 4.17993 22.9619 4.17993 23.7105 4.93443C24.459 5.68891 24.459 6.90325 24.459 9.33193V10.6199H1.45898V9.33193Z" stroke="white" stroke-opacity="0.46"/>
<path d="M21.9034 4.17993H4.01454C2.60315 4.17993 1.45898 5.33325 1.45898 6.75593V20.9239C1.45898 22.3466 2.60315 23.4999 4.01454 23.4999H21.9034C23.3148 23.4999 24.459 22.3466 24.459 20.9239V6.75593C24.459 5.33325 23.3148 4.17993 21.9034 4.17993Z" stroke="white"/>
<path d="M6.97852 0.5V6.94" stroke="white" stroke-linecap="round"/>
<path d="M18.9395 0.5V6.94" stroke="white" stroke-linecap="round"/>
</svg>
