<svg width="10" height="13" viewBox="0 0 10 13" fill="none" xmlns="http://www.w3.org/2000/svg">
<path d="M4.51733 12.4463C4.21265 12.057 3.83179 11.5534 3.37476 10.9355C2.91772 10.3177 2.4755 9.6639 2.0481 8.97412C1.62069 8.28434 1.25887 7.59668 0.962646 6.91113C0.657959 6.22559 0.505615 5.61621 0.505615 5.08301C0.505615 4.45671 0.624105 3.86426 0.861084 3.30566C1.09806 2.74707 1.42391 2.26042 1.83862 1.8457C2.25334 1.43099 2.73999 1.10091 3.29858 0.855469C3.85718 0.618489 4.45386 0.5 5.08862 0.5C5.72339 0.5 6.32007 0.618489 6.87866 0.855469C7.43726 1.10091 7.92391 1.43099 8.33862 1.8457C8.75334 2.26042 9.07918 2.74707 9.31616 3.30566C9.5616 3.86426 9.68433 4.45671 9.68433 5.08301C9.68433 5.61621 9.53198 6.22559 9.22729 6.91113C8.92261 7.59668 8.55656 8.28434 8.12915 8.97412C7.70174 9.6639 7.25952 10.3177 6.80249 10.9355C6.337 11.5534 5.9519 12.057 5.64722 12.4463C5.50334 12.624 5.31502 12.7129 5.08228 12.7129C4.84953 12.7129 4.66121 12.624 4.51733 12.4463ZM5.08862 6.61914C5.5118 6.61914 5.87362 6.47103 6.17407 6.1748C6.47453 5.87858 6.62476 5.51465 6.62476 5.08301C6.62476 4.66829 6.47453 4.31071 6.17407 4.01025C5.87362 3.7098 5.5118 3.55957 5.08862 3.55957C4.66545 3.55957 4.30575 3.7098 4.00952 4.01025C3.7133 4.31071 3.56519 4.66829 3.56519 5.08301C3.56519 5.51465 3.7133 5.87858 4.00952 6.1748C4.30575 6.47103 4.66545 6.61914 5.08862 6.61914Z" fill="#5AC0BE"/>
</svg>
