<svg width="25" height="24" viewBox="0 0 25 24" fill="none" xmlns="http://www.w3.org/2000/svg">
<g clip-path="url(#clip0_2025_18503)">
<path fill-rule="evenodd" clip-rule="evenodd" d="M5.66375 12C5.66375 11.2379 5.79033 10.5072 6.01625 9.82186L2.06184 6.80212C1.29115 8.36692 0.856934 10.1301 0.856934 12C0.856934 13.8683 1.29062 15.6304 2.06024 17.1941L6.01251 14.1685C5.78873 13.4864 5.66375 12.7584 5.66375 12Z" fill="#FBBC05"/>
<path fill-rule="evenodd" clip-rule="evenodd" d="M12.6071 5.0666C14.2628 5.0666 15.7582 5.65327 16.9332 6.61327L20.3514 3.19993C18.2685 1.3866 15.598 0.266602 12.6071 0.266602C7.96372 0.266602 3.97299 2.92207 2.06201 6.80207L6.01642 9.8218C6.92758 7.05594 9.52486 5.0666 12.6071 5.0666Z" fill="#EB4335"/>
<path fill-rule="evenodd" clip-rule="evenodd" d="M12.6071 18.9333C9.52486 18.9333 6.92758 16.944 6.01642 14.1781L2.06201 17.1973C3.97299 21.0778 7.96372 23.7333 12.6071 23.7333C15.473 23.7333 18.2092 22.7157 20.2628 20.809L16.5092 17.9072C15.4501 18.5744 14.1164 18.9333 12.6071 18.9333Z" fill="#34A853"/>
<path fill-rule="evenodd" clip-rule="evenodd" d="M23.8228 11.9999C23.8228 11.3066 23.716 10.5599 23.5558 9.86658H12.6069V14.3999H18.9092C18.5941 15.9455 17.7363 17.1338 16.509 17.9071L20.2626 20.809C22.4198 18.8068 23.8228 15.8244 23.8228 11.9999Z" fill="#4285F4"/>
</g>
<defs>
<clipPath id="clip0_2025_18503">
<rect width="24" height="24" fill="white" transform="translate(0.5)"/>
</clipPath>
</defs>
</svg>
