<svg width="25" height="24" viewBox="0 0 25 24" fill="none" xmlns="http://www.w3.org/2000/svg">
<path d="M15.1128 5.95276V10.0605L16.5498 10.9643C16.6017 10.9757 16.6554 10.9757 16.7073 10.9643L22.8858 6.79876C22.8813 6.5966 22.8073 6.40215 22.6763 6.24809C22.5454 6.09402 22.3653 5.98974 22.1665 5.95276H15.1128Z" fill="#0072C6"/>
<path d="M15.1131 11.5927L16.4233 12.4927C16.4847 12.5301 16.5551 12.5498 16.6269 12.5498C16.6988 12.5498 16.7692 12.5301 16.8306 12.4927C16.6056 12.6285 22.8853 8.45923 22.8853 8.45923V16.0087C22.9017 16.1617 22.8844 16.3164 22.8348 16.462C22.7851 16.6076 22.7042 16.7407 22.5978 16.8517C22.4913 16.9628 22.3619 17.0493 22.2185 17.1051C22.0752 17.161 21.9213 17.1848 21.7678 17.175H15.1123L15.1131 11.5927Z" fill="#0072C6"/>
<path d="M8.33016 9.69902C8.11246 9.69797 7.89853 9.75583 7.71103 9.86648C7.52354 9.97713 7.36948 10.1364 7.26516 10.3275C6.98025 10.834 6.84354 11.4105 6.87066 11.991C6.84105 12.5703 6.97795 13.146 7.26516 13.65C7.36904 13.8332 7.51931 13.9859 7.70088 14.0926C7.88245 14.1994 8.08891 14.2564 8.29952 14.2581C8.51013 14.2598 8.71748 14.206 8.90072 14.1022C9.08396 13.9983 9.23663 13.8481 9.34341 13.6665C9.62749 13.1648 9.76156 12.5922 9.72966 12.0165C9.76219 11.4228 9.63256 10.8314 9.35466 10.3058C9.25535 10.1209 9.10743 9.9667 8.92688 9.85977C8.74632 9.75283 8.53999 9.69725 8.33016 9.69902Z" fill="#0072C6"/>
<path d="M2.11475 3.86625V19.9365L14.3397 22.5V1.5L2.11475 3.86625ZM10.2957 14.6182C10.0671 14.9406 9.76298 15.2022 9.41002 15.3801C9.05706 15.558 8.66593 15.6469 8.27075 15.639C7.88551 15.6458 7.50431 15.5595 7.15958 15.3874C6.81486 15.2153 6.51679 14.9625 6.29075 14.6505C5.75464 13.902 5.48645 12.9947 5.5295 12.075C5.48389 11.1102 5.75692 10.1572 6.3065 9.363C6.53807 9.03445 6.84692 8.76791 7.20582 8.5869C7.56472 8.40588 7.96264 8.31594 8.3645 8.325C8.74695 8.31733 9.12543 8.40365 9.46673 8.57639C9.80803 8.74913 10.1017 9.00302 10.322 9.31575C10.8527 10.0805 11.1164 10.9989 11.072 11.9288C11.1188 12.8865 10.8457 13.8327 10.2957 14.6182Z" fill="#0072C6"/>
</svg>
