<svg width="17" height="16" viewBox="0 0 17 16" fill="none" xmlns="http://www.w3.org/2000/svg">
<path d="M16.6245 9.08398L10.5454 15.1631C10.438 15.2705 10.311 15.3535 10.1646 15.4121C10.0181 15.4707 9.8667 15.5 9.71045 15.5C9.54443 15.5 9.38574 15.4707 9.23438 15.4121C9.08301 15.3535 8.95361 15.2705 8.84619 15.1631C8.59229 14.9287 8.46533 14.6406 8.46533 14.2988C8.46533 13.957 8.59229 13.6738 8.84619 13.4492L12.8306 9.43555H1.21436C0.872559 9.43555 0.584473 9.31836 0.350098 9.08398C0.115723 8.84961 -0.00146484 8.56152 -0.00146484 8.21973C-0.00146484 7.89746 0.115723 7.61426 0.350098 7.37012C0.584473 7.12598 0.872559 7.00391 1.21436 7.00391H12.8306L8.84619 3.01953C8.59229 2.78516 8.46533 2.49707 8.46533 2.15527C8.46533 1.81348 8.59229 1.53027 8.84619 1.30566C9.0708 1.06152 9.354 0.939453 9.6958 0.939453C10.0376 0.939453 10.3208 1.06152 10.5454 1.30566L16.6245 7.38477C16.8687 7.60938 16.9907 7.89258 16.9907 8.23438C16.9907 8.57617 16.8687 8.85938 16.6245 9.08398Z" fill="white"/>
</svg>
