<svg width="11" height="12" viewBox="0 0 11 12" fill="none" xmlns="http://www.w3.org/2000/svg">
<path fill-rule="evenodd" clip-rule="evenodd" d="M7.33333 3.22026C7.33333 2.46086 7.94897 1.84526 8.70833 1.84526C9.4677 1.84526 10.0833 2.46086 10.0833 3.22026C10.0833 3.97965 9.4677 4.59526 8.70833 4.59526C7.94897 4.59526 7.33333 3.97965 7.33333 3.22026ZM8.70833 0.928589C7.44266 0.928589 6.41667 1.9546 6.41667 3.22026C6.41667 3.37446 6.43188 3.52511 6.46091 3.67078L4.14075 5.07459C3.72373 4.50604 3.0508 4.13692 2.29167 4.13692C1.02601 4.13692 0 5.16293 0 6.42859C0 7.69426 1.02601 8.72026 2.29167 8.72026C3.11681 8.72026 3.84009 8.28417 4.24362 7.62985L6.46959 9.14504C6.43494 9.3035 6.41667 9.46807 6.41667 9.63692C6.41667 10.9026 7.44266 11.9286 8.70833 11.9286C9.97401 11.9286 11 10.9026 11 9.63692C11 8.37125 9.97401 7.34526 8.70833 7.34526C7.94371 7.34526 7.26654 7.71974 6.85025 8.29529L4.56262 6.73812C4.57624 6.63692 4.58333 6.53358 4.58333 6.42859C4.58333 6.25143 4.56323 6.07897 4.52522 5.91336L6.82287 4.5232C7.23647 5.12061 7.92672 5.51192 8.70833 5.51192C9.97401 5.51192 11 4.48591 11 3.22026C11 1.9546 9.97401 0.928589 8.70833 0.928589ZM7.33333 9.63692C7.33333 8.87756 7.94897 8.26192 8.70833 8.26192C9.4677 8.26192 10.0833 8.87756 10.0833 9.63692C10.0833 10.3963 9.4677 11.0119 8.70833 11.0119C7.94897 11.0119 7.33333 10.3963 7.33333 9.63692ZM0.916667 6.42859C0.916667 5.66922 1.53228 5.05359 2.29167 5.05359C3.05106 5.05359 3.66667 5.66922 3.66667 6.42859C3.66667 7.18796 3.05106 7.80359 2.29167 7.80359C1.53228 7.80359 0.916667 7.18796 0.916667 6.42859Z" fill="white"/>
</svg>
