<svg width="29" height="30" viewBox="0 0 29 30" fill="none" xmlns="http://www.w3.org/2000/svg">
<g clip-path="url(#clip0_246_5053)">
<path d="M17.5797 19.28H15.6986C15.1618 19.28 14.7266 19.7152 14.7266 20.252C14.7266 20.3419 14.7397 20.4285 14.7626 20.5112H18.5157C18.5385 20.4285 18.5517 20.3419 18.5517 20.252C18.5517 19.7152 18.1166 19.28 17.5797 19.28Z" fill="url(#paint0_linear_246_5053)"/>
<path d="M23.2819 19.28H21.4007C20.8639 19.28 20.4287 19.7152 20.4287 20.252C20.4287 20.3419 20.4419 20.4285 20.4647 20.5112H24.2179C24.2407 20.4285 24.2539 20.3419 24.2539 20.252C24.2539 19.7152 23.8187 19.28 23.2819 19.28Z" fill="url(#paint1_linear_246_5053)"/>
<path d="M11.0333 17.2701H10.1587V16.7826C10.1587 16.4248 9.86853 16.1346 9.51073 16.1346C9.15293 16.1346 8.86276 16.4248 8.86276 16.7826V17.2701H7.56677V16.7826C7.56677 16.4248 7.2766 16.1346 6.9188 16.1346C6.561 16.1346 6.27083 16.4248 6.27083 16.7826V17.2701H5.39602C5.03822 17.2701 4.74805 17.5602 4.74805 17.918V20.5098H11.6814V17.918C11.6813 17.5602 11.3913 17.2701 11.0333 17.2701Z" fill="url(#paint2_linear_246_5053)"/>
<path d="M26.9095 21.8076H24.418V21.8076C24.4185 21.8184 24.4196 21.8291 24.4196 21.84V29.5996H26.0647C26.6015 29.5996 27.0367 29.1644 27.0367 28.6276V21.7949C26.9956 21.8031 26.953 21.8076 26.9095 21.8076Z" fill="url(#paint3_linear_246_5053)"/>
<path d="M10.1709 21.8063C10.1714 21.8171 10.1725 21.8277 10.1725 21.8386V29.5983H13.6256V21.8386C13.6256 21.8277 13.6267 21.817 13.6272 21.8063H10.1709Z" fill="url(#paint4_linear_246_5053)"/>
<path d="M1.54546 21.808C1.53374 21.808 1.52235 21.8068 1.51074 21.8063V28.628C1.51074 29.1648 1.94591 29.6 2.48275 29.6H4.12782V21.8404C4.12782 21.8295 4.1289 21.8188 4.12946 21.808H1.54546Z" fill="url(#paint5_linear_246_5053)"/>
<path d="M14.9189 21.8063C14.9195 21.8171 14.9206 21.8277 14.9206 21.8386V29.5983H18.3736V21.8386C18.3736 21.8277 18.3747 21.817 18.3753 21.8063H14.9189Z" fill="url(#paint6_linear_246_5053)"/>
<path d="M19.6689 21.8063C19.6695 21.8171 19.6706 21.8277 19.6706 21.8386V29.5983H23.1236V21.8386C23.1236 21.8277 23.1247 21.817 23.1253 21.8063H19.6689Z" fill="url(#paint7_linear_246_5053)"/>
<path d="M5.42285 21.8063C5.42336 21.8171 5.42449 21.8277 5.42449 21.8386V29.5983H8.87753V21.8386C8.87753 21.8277 8.87861 21.817 8.87918 21.8063H5.42285Z" fill="url(#paint8_linear_246_5053)"/>
<path d="M27.9173 9.16659H26.596L14.8379 0.780603C14.5002 0.539767 14.0467 0.539767 13.7091 0.780603L1.95096 9.16659H1.08334C0.546555 9.16659 0.111328 9.60176 0.111328 10.1386C0.111328 10.6754 0.546498 11.1106 1.08334 11.1106H1.51035V20.5137C1.52196 20.5131 1.53335 20.512 1.54507 20.512H3.45431V11.9001C3.84264 12.1814 4.31973 12.3478 4.83606 12.3478C5.73268 12.3478 6.51178 11.8472 6.91086 11.1106H7.48005C7.87908 11.8472 8.65817 12.3478 9.55479 12.3478C10.4514 12.3478 11.2305 11.8472 11.6296 11.1106H12.1988C12.5978 11.8472 13.3769 12.3478 14.2735 12.3478C15.1701 12.3478 15.9492 11.8472 16.3483 11.1106H16.9175C17.3165 11.8472 18.0956 12.3478 18.9923 12.3478C19.8889 12.3478 20.668 11.8472 21.0671 11.1106H21.6362C22.0353 11.8472 22.8144 12.3478 23.711 12.3478C24.2273 12.3478 24.7043 12.1815 25.0927 11.9001V20.512H26.9095C26.953 20.512 26.9956 20.5165 27.0368 20.5246V11.1106H27.9174C28.4542 11.1106 28.8894 10.6754 28.8894 10.1386C28.8895 9.60181 28.4541 9.16659 27.9173 9.16659Z" fill="url(#paint9_linear_246_5053)"/>
</g>
<defs>
<linearGradient id="paint0_linear_246_5053" x1="14.7266" y1="19.8956" x2="18.5517" y2="19.8956" gradientUnits="userSpaceOnUse">
<stop stop-color="#5AC0BE"/>
<stop offset="1" stop-color="#7F529F"/>
</linearGradient>
<linearGradient id="paint1_linear_246_5053" x1="20.4287" y1="19.8956" x2="24.2539" y2="19.8956" gradientUnits="userSpaceOnUse">
<stop stop-color="#5AC0BE"/>
<stop offset="1" stop-color="#7F529F"/>
</linearGradient>
<linearGradient id="paint2_linear_246_5053" x1="4.74805" y1="18.3222" x2="11.6814" y2="18.3222" gradientUnits="userSpaceOnUse">
<stop stop-color="#5AC0BE"/>
<stop offset="1" stop-color="#7F529F"/>
</linearGradient>
<linearGradient id="paint3_linear_246_5053" x1="24.418" y1="25.6973" x2="27.0367" y2="25.6973" gradientUnits="userSpaceOnUse">
<stop stop-color="#5AC0BE"/>
<stop offset="1" stop-color="#7F529F"/>
</linearGradient>
<linearGradient id="paint4_linear_246_5053" x1="10.1709" y1="25.7023" x2="13.6272" y2="25.7023" gradientUnits="userSpaceOnUse">
<stop stop-color="#5AC0BE"/>
<stop offset="1" stop-color="#7F529F"/>
</linearGradient>
<linearGradient id="paint5_linear_246_5053" x1="1.51074" y1="25.7031" x2="4.12946" y2="25.7031" gradientUnits="userSpaceOnUse">
<stop stop-color="#5AC0BE"/>
<stop offset="1" stop-color="#7F529F"/>
</linearGradient>
<linearGradient id="paint6_linear_246_5053" x1="14.9189" y1="25.7023" x2="18.3753" y2="25.7023" gradientUnits="userSpaceOnUse">
<stop stop-color="#5AC0BE"/>
<stop offset="1" stop-color="#7F529F"/>
</linearGradient>
<linearGradient id="paint7_linear_246_5053" x1="19.6689" y1="25.7023" x2="23.1253" y2="25.7023" gradientUnits="userSpaceOnUse">
<stop stop-color="#5AC0BE"/>
<stop offset="1" stop-color="#7F529F"/>
</linearGradient>
<linearGradient id="paint8_linear_246_5053" x1="5.42285" y1="25.7023" x2="8.87918" y2="25.7023" gradientUnits="userSpaceOnUse">
<stop stop-color="#5AC0BE"/>
<stop offset="1" stop-color="#7F529F"/>
</linearGradient>
<linearGradient id="paint9_linear_246_5053" x1="0.111328" y1="10.5623" x2="28.8894" y2="10.5623" gradientUnits="userSpaceOnUse">
<stop stop-color="#5AC0BE"/>
<stop offset="1" stop-color="#7F529F"/>
</linearGradient>
<clipPath id="clip0_246_5053">
<rect width="29" height="29" fill="white" transform="translate(0 0.599976)"/>
</clipPath>
</defs>
</svg>
