<svg width="14" height="14" viewBox="0 0 14 14" fill="none" xmlns="http://www.w3.org/2000/svg">
<path d="M7 0.969727C6.17057 0.969727 5.3877 1.1263 4.65137 1.43945C3.91504 1.7526 3.27393 2.18213 2.72803 2.72803C2.18213 3.27393 1.7526 3.91504 1.43945 4.65137C1.1263 5.3877 0.969727 6.17057 0.969727 7C0.969727 7.82943 1.1263 8.6123 1.43945 9.34863C1.7526 10.085 2.18213 10.7261 2.72803 11.272C3.27393 11.8179 3.91504 12.2474 4.65137 12.5605C5.3877 12.8737 6.17057 13.0303 7 13.0303C7.82943 13.0303 8.6123 12.8737 9.34863 12.5605C10.085 12.2474 10.7261 11.8179 11.272 11.272C11.8179 10.7261 12.2474 10.085 12.5605 9.34863C12.8737 8.6123 13.0303 7.82943 13.0303 7C13.0303 6.17057 12.8737 5.3877 12.5605 4.65137C12.2474 3.91504 11.8179 3.27393 11.272 2.72803C10.7261 2.18213 10.085 1.7526 9.34863 1.43945C8.6123 1.1263 7.82943 0.969727 7 0.969727ZM9.78027 7.92676H7C6.94076 7.92676 6.88151 7.91618 6.82227 7.89502C6.76302 7.87386 6.71224 7.83789 6.66992 7.78711C6.6276 7.74479 6.59375 7.69613 6.56836 7.64111C6.54297 7.5861 6.53027 7.52897 6.53027 7.46973V3.28027C6.53027 3.22103 6.54297 3.1639 6.56836 3.10889C6.59375 3.05387 6.6276 3.00521 6.66992 2.96289C6.71224 2.91211 6.76302 2.87614 6.82227 2.85498C6.88151 2.83382 6.94076 2.82324 7 2.82324C7.05924 2.82324 7.11849 2.83382 7.17773 2.85498C7.23698 2.87614 7.28776 2.91211 7.33008 2.96289C7.3724 3.00521 7.40625 3.05387 7.43164 3.10889C7.45703 3.1639 7.46973 3.22103 7.46973 3.28027V7H9.78027C9.84798 7 9.90934 7.0127 9.96436 7.03809C10.0194 7.06348 10.068 7.09733 10.1104 7.13965C10.1527 7.18197 10.1865 7.23063 10.2119 7.28564C10.2373 7.34066 10.25 7.40202 10.25 7.46973C10.25 7.52897 10.2373 7.5861 10.2119 7.64111C10.1865 7.69613 10.1527 7.74479 10.1104 7.78711C10.068 7.83789 10.0194 7.87386 9.96436 7.89502C9.90934 7.91618 9.84798 7.92676 9.78027 7.92676Z" fill="#5AC0BE"/>
</svg>
