<svg width="60" height="61" viewBox="0 0 60 61" fill="none" xmlns="http://www.w3.org/2000/svg">
<path d="M47.4374 45.6562C44.2018 49.378 39.8612 51.968 35.0493 53.048C30.2374 54.128 25.2062 53.6414 20.6905 51.6593C16.1748 49.6767 12.4111 46.3023 9.94924 42.029C7.48733 37.7557 6.45609 32.8072 7.0061 27.9062C7.55569 23.0047 9.658 18.4073 13.006 14.7856C16.354 11.1638 20.7722 8.70729 25.6155 7.7749M34.3749 7.79365C37.6272 8.42002 40.7071 9.73773 43.4061 11.6576C46.105 13.5775 48.3601 16.0548 50.0186 18.9218C51.6773 21.7888 52.7007 24.9787 53.0196 28.2756C53.3385 31.5725 52.9455 34.8994 51.867 38.0312" stroke="#7F529F" stroke-width="3.75" stroke-linecap="round"/>
<path d="M25 29.25V24.7812C25 22.0716 27.2384 19.875 30 19.875C32.7616 19.875 35 22.0716 35 24.7812V29.25M23.75 29.25H36.25C37.635 29.25 38.75 30.365 38.75 31.75V38.625C38.75 40.01 37.635 41.125 36.25 41.125H23.75C22.365 41.125 21.25 40.01 21.25 38.625V31.75C21.25 30.365 22.365 29.25 23.75 29.25Z" stroke="#7F529F" stroke-width="3.75"/>
</svg>
