<svg width="61" height="61" viewBox="0 0 61 61" fill="none" xmlns="http://www.w3.org/2000/svg">
<path d="M52.4253 14.5368C52.4245 15.8877 51.8877 17.1832 50.9327 18.1387C49.9777 19.0943 48.6826 19.6319 47.3317 19.6336H45.7338V46.1473C45.7321 47.4977 45.1949 48.7923 44.24 49.7472C43.2851 50.7021 41.9905 51.2393 40.6401 51.241H13.6685C12.9994 51.241 12.3368 51.1092 11.7186 50.8531C11.1004 50.5971 10.5387 50.2218 10.0656 49.7486C9.59247 49.2755 9.21716 48.7138 8.9611 48.0956C8.70504 47.4774 8.57324 46.8148 8.57324 46.1457C8.57324 45.4766 8.70504 44.814 8.9611 44.1958C9.21716 43.5777 9.59247 43.016 10.0656 42.5428C10.5387 42.0697 11.1004 41.6944 11.7186 41.4383C12.3368 41.1822 12.9994 41.0505 13.6685 41.0505H15.2632V14.5368C15.2632 13.1847 15.8001 11.888 16.7559 10.9316C17.7116 9.97529 19.008 9.4376 20.3601 9.43677H47.3285C48.68 9.4376 49.9759 9.97486 50.9316 10.9305C51.8873 11.8862 52.4245 13.1821 52.4253 14.5336V14.5368ZM13.6685 47.742H35.7959C35.4542 46.7063 35.4542 45.5883 35.7959 44.5526H13.6748C13.2519 44.5526 12.8462 44.7206 12.5472 45.0196C12.2481 45.3187 12.0801 45.7243 12.0801 46.1473C12.0801 46.5702 12.2481 46.9759 12.5472 47.2749C12.8462 47.574 13.2519 47.742 13.6748 47.742H13.6685ZM42.2317 14.5368C42.2309 13.9952 42.3162 13.4569 42.4843 12.942H20.3632C20.0082 12.9414 19.6633 13.0604 19.3843 13.2799L19.378 13.2831C19.1872 13.4315 19.0331 13.6217 18.9274 13.839C18.8217 14.0564 18.7674 14.2951 18.7685 14.5368V41.0505H38.7801C39.2162 41.0455 39.6411 41.1886 39.9853 41.4565C40.3295 41.7244 40.5726 42.1012 40.6748 42.5252C40.7948 42.931 40.7827 43.3645 40.6402 43.7629C40.4977 44.1614 40.2323 44.5043 39.8822 44.742C39.6348 44.8764 39.4274 45.0738 39.281 45.3143C39.1346 45.5548 39.0545 45.8298 39.0488 46.1113C39.0432 46.3928 39.1121 46.6707 39.2486 46.9169C39.3852 47.1631 39.5845 47.3688 39.8263 47.513C40.0681 47.6573 40.3437 47.7349 40.6252 47.7381C40.9068 47.7413 41.1841 47.6699 41.4291 47.5311C41.6741 47.3924 41.878 47.1913 42.02 46.9482C42.1621 46.7052 42.2373 46.4288 42.238 46.1473L42.2317 14.5368ZM39.5159 19.0778H21.3264V22.5736H39.5159V19.0778ZM39.5159 26.2147H21.3264V29.7105H39.5159V26.2147ZM39.5159 33.3515H21.3264V36.8505H39.5159V33.3515ZM48.9232 14.5368C48.9224 14.1141 48.7541 13.7089 48.4552 13.41C48.1563 13.1112 47.7512 12.9429 47.3285 12.942C46.9733 12.9404 46.6281 13.0596 46.3496 13.2799H46.3432C46.1517 13.4285 45.9968 13.6191 45.8906 13.837C45.7843 14.0549 45.7296 14.2943 45.7306 14.5368V16.1315H47.3285C47.7512 16.1307 48.1563 15.9624 48.4552 15.6635C48.7541 15.3646 48.9224 14.9595 48.9232 14.5368Z" fill="#7F529F"/>
</svg>
