<svg width="60" height="61" viewBox="0 0 60 61" fill="none" xmlns="http://www.w3.org/2000/svg">
<path d="M14 50.5H46C47.4002 50.5 48.1003 50.5 48.635 50.2275C49.1055 49.9878 49.4878 49.6055 49.7275 49.135C50 48.6003 50 47.9002 50 46.5V17.8284C50 16.3139 50 15.5566 49.7005 15.206C49.4407 14.9017 49.0508 14.7402 48.652 14.7716C48.1923 14.8078 47.6568 15.3433 46.5858 16.4142L38.4142 24.5858C37.3432 25.6567 36.8077 26.1922 36.348 26.2285C35.9492 26.2597 35.5592 26.0983 35.2995 25.794C35 25.4434 35 24.6861 35 23.1716V17.8284C35 16.3139 35 15.5566 34.7005 15.206C34.4408 14.9017 34.0508 14.7402 33.652 14.7716C33.1923 14.8078 32.6568 15.3433 31.5858 16.4142L23.4142 24.5858C22.3433 25.6567 21.8078 26.1922 21.3481 26.2285C20.9492 26.2597 20.5593 26.0983 20.2995 25.794C20 25.4434 20 24.6861 20 23.1716V12.5C20 11.7999 20 11.4499 19.8637 11.1825C19.7439 10.9473 19.5527 10.7561 19.3175 10.6363C19.0501 10.5 18.7001 10.5 18 10.5H12C11.2999 10.5 10.9499 10.5 10.6825 10.6363C10.4473 10.7561 10.2561 10.9473 10.1363 11.1825C10 11.4499 10 11.7999 10 12.5V46.5C10 47.9002 10 48.6003 10.2725 49.135C10.5122 49.6055 10.8946 49.9878 11.365 50.2275C11.8998 50.5 12.5999 50.5 14 50.5Z" stroke="#7F529F" stroke-width="5" stroke-linecap="round" stroke-linejoin="round"/>
</svg>
