<svg width="60" height="61" viewBox="0 0 60 61" fill="none" xmlns="http://www.w3.org/2000/svg">
<path fill-rule="evenodd" clip-rule="evenodd" d="M45.0053 44.1909C44.7386 44.8352 44.3476 45.4204 43.8546 45.9134C43.3616 46.4064 42.7763 46.7974 42.1321 47.0642C41.4881 47.3309 40.7976 47.4682 40.1006 47.4682C39.4101 47.4682 38.8506 46.9087 38.8506 46.2182C38.8506 45.5279 39.4101 44.9682 40.1006 44.9682C40.4693 44.9682 40.8346 44.8957 41.1753 44.7544C41.5163 44.6134 41.8258 44.4064 42.0868 44.1457C42.3476 43.8847 42.5546 43.5752 42.6956 43.2342C42.8368 42.8934 42.9096 42.5282 42.9096 42.1594C42.9096 41.4689 43.4691 40.9094 44.1596 40.9094C44.8498 40.9094 45.4096 41.4689 45.4096 42.1594C45.4096 42.8564 45.2721 43.5469 45.0053 44.1909Z" fill="#7F529F"/>
<path fill-rule="evenodd" clip-rule="evenodd" d="M11.2449 16.8091C11.5117 16.165 11.9028 15.5797 12.3958 15.0867C12.8887 14.5937 13.474 14.2027 14.1181 13.9359C14.7622 13.6691 15.4526 13.5317 16.1498 13.5317C16.8401 13.5317 17.3998 14.0914 17.3998 14.7817C17.3998 15.4721 16.8401 16.0317 16.1498 16.0317C15.7809 16.0317 15.4156 16.1044 15.0748 16.2456C14.734 16.3867 14.4244 16.5936 14.1635 16.8545C13.9027 17.1153 13.6958 17.425 13.5546 17.7658C13.4135 18.1066 13.3408 18.4718 13.3408 18.8407C13.3408 19.5311 12.7812 20.0907 12.0908 20.0907C11.4005 20.0907 10.8408 19.5311 10.8408 18.8407C10.8408 18.1435 10.9781 17.4532 11.2449 16.8091Z" fill="#7F529F"/>
<path fill-rule="evenodd" clip-rule="evenodd" d="M47.6517 8.88374C46.1872 7.41929 43.8127 7.41929 42.3484 8.88374L33.5094 17.7226C32.0449 19.187 32.0449 21.5614 33.5094 23.0259L34.6079 24.1243L33.5837 25.1486L26.8604 18.4253C25.3959 16.9608 23.0215 16.9608 21.5571 18.4253L16.7687 23.2136C15.3043 24.6781 15.3043 27.0524 16.7687 28.5169L23.492 35.2402L22.5 36.2322L21.4016 35.1337C19.9371 33.6692 17.5628 33.6692 16.0983 35.1337L7.25949 43.9727C5.79501 45.4369 5.79501 47.8114 7.25949 49.2759L10.795 52.8114C12.2595 54.2759 14.6338 54.2759 16.0983 52.8114L24.9371 43.9727C26.4017 42.5082 26.4017 40.1337 24.9371 38.6692L24.2678 37.9999L25.2597 37.0079L30.9109 42.6592C32.3754 44.1234 34.7497 44.1234 36.2142 42.6592L41.0024 37.8707C42.4669 36.4062 42.4669 34.0319 41.0024 32.5674L35.3514 26.9164L36.3757 25.8919L37.0449 26.5614C38.5094 28.0259 40.8839 28.0259 42.3484 26.5614L51.1872 17.7226C52.6517 16.2581 52.6517 13.8837 51.1872 12.4193L47.6517 8.88374ZM21.6058 38.8734L21.6161 38.8839L21.6264 38.8942L23.1694 40.4369C23.6575 40.9252 23.6575 41.7167 23.1694 42.2049L14.3305 51.0437C13.8424 51.5317 13.0509 51.5317 12.5628 51.0437L9.02724 47.5082C8.53909 47.0199 8.53909 46.2284 9.02724 45.7404L17.8661 36.9014C18.3542 36.4134 19.1457 36.4134 19.6338 36.9014L21.6058 38.8734ZM44.1162 10.6515C44.6042 10.1634 45.3957 10.1634 45.8839 10.6515L49.4194 14.187C49.9074 14.6752 49.9074 15.4667 49.4194 15.9548L40.5804 24.7937C40.0924 25.2818 39.3009 25.2818 38.8127 24.7937L35.2772 21.2581C34.7892 20.77 34.7892 19.9785 35.2772 19.4904L44.1162 10.6515ZM18.5365 26.7492C18.0484 26.2609 18.0484 25.4695 18.5365 24.9814L23.3248 20.1931C23.813 19.7049 24.6044 19.7049 25.0927 20.1931L39.2347 34.3352C39.7229 34.8234 39.7229 35.6149 39.2347 36.1029L34.4464 40.8912C33.9582 41.3794 33.1667 41.3794 32.6787 40.8912L18.5365 26.7492Z" fill="#7F529F"/>
</svg>
