<svg width="60" height="61" viewBox="0 0 60 61" fill="none" xmlns="http://www.w3.org/2000/svg">
<g clip-path="url(#clip0_1691_2001)">
<path d="M23.6314 14.0825C20.244 9.66217 13.5514 8.94935 8.7289 11.2918C3.75994 13.7055 2.46656 17.6068 1.68333 22.6787C1.38722 24.5975 0.961982 26.7214 1.26599 28.661C1.27388 28.7122 1.31271 28.8204 1.36922 28.9388C1.37143 28.9723 1.37269 29.0054 1.37522 29.0389C1.3648 29.0408 1.3547 29.043 1.3446 29.0452C0.919995 29.1434 0.921889 29.8 1.3446 29.8992C3.04111 30.2976 4.81876 30.4557 6.61598 30.5154C8.23705 33.0409 12.0023 34.4432 15.0004 34.4574C17.3845 34.4688 19.8709 33.6003 21.3855 31.7005C21.5734 31.4647 21.7435 31.2004 21.8966 30.9176C23.3463 30.9258 24.7767 30.8566 26.1442 30.6274C26.2936 30.6025 26.4037 30.5245 26.4921 30.4264C26.8991 30.4557 27.3366 30.2095 27.3492 29.6832C27.4802 24.3648 26.9792 18.451 23.6314 14.0825Z" fill="#7F529F"/>
<path d="M44.4124 22.1015C40.5502 21.9235 35.6731 22.4801 32.2678 24.4594C32.0474 24.5876 32.0253 24.8411 32.1204 25.0302C30.373 29.113 34.3576 32.4394 39.1997 33.5358C39.0526 34.1 39.1318 34.792 39.1078 35.3021C39.0418 36.7003 39.1173 38.2125 39.6925 39.5077C40.8634 42.1444 43.4517 41.4309 45.7796 41.0009C46.124 40.9375 46.3614 40.565 46.3633 40.2348C46.37 38.7488 46.3778 37.2629 46.3756 35.7766C46.3744 34.9902 46.4303 34.1631 46.4224 33.3464C49.1319 32.4603 51.2796 30.5017 51.7982 27.1444C51.82 27.002 51.8042 26.8729 51.7654 26.7564C51.8267 26.6857 51.8765 26.5992 51.8948 26.4795C52.4489 22.9242 46.7551 22.2095 44.4124 22.1015Z" fill="#7F529F"/>
<path d="M50.9315 14.4341C48.5298 12.421 45.1528 10.6319 41.9274 10.977C37.6381 11.436 27.8155 16.0508 31.1375 21.7471C31.1719 21.8061 31.2148 21.8528 31.2615 21.8917C31.2827 22.1088 31.4825 22.3153 31.7423 22.2449C36.1503 21.0497 41.1947 18.6868 45.8631 19.7952C47.2512 20.1247 48.6043 20.7463 49.8954 21.3351C50.4514 21.5886 50.9934 21.8702 51.5282 22.1647C51.7406 22.2844 51.9484 22.4122 52.1513 22.548C52.2429 22.607 52.3095 22.6544 52.3619 22.6941C52.3543 23.0054 52.5924 23.3025 52.9545 23.3224C53.6054 23.3577 53.8927 22.9732 53.9006 22.5161C54.1585 22.5477 54.441 22.4447 54.5784 22.2077C56.1672 19.4646 52.8241 16.0208 50.9315 14.4341Z" fill="#7F529F"/>
<path d="M57.946 41.693C56.8866 40.0441 52.9105 34.9397 50.2132 35.6447C49.9373 35.4332 49.5411 35.389 49.2633 35.7002C48.5271 36.5258 48.5603 37.8725 48.4507 38.9165C48.2739 40.6004 48.2342 42.3244 47.8954 43.9877C44.1378 43.6105 40.3984 44.6444 36.6565 44.1936C36.6783 41.6377 36.7626 39.0598 36.207 36.5592C36.5101 36.2356 36.4264 35.6011 36.0324 35.3577C33.6733 33.9033 30.2739 37.8936 29.0225 39.3843C28.6971 39.7723 27.8561 40.7873 27.2449 41.8117C25.6402 39.1993 22.656 37.1227 19.7432 37.2651C19.28 36.9248 18.4046 37.1436 18.3513 37.9135C18.2682 39.1056 18.3775 40.3169 18.2026 41.5017C17.9535 43.189 16.3182 43.202 15.0182 43.1748C13.3615 43.1404 11.6741 42.8067 10.0328 43.0564C9.99844 41.6706 9.96624 40.2856 9.91447 38.9007C9.89584 38.4013 10.0246 37.4002 9.51606 37.0533L9.51543 37.0527C9.50249 37.0441 9.49397 37.0309 9.48008 37.0227C9.46492 37.0138 9.45072 37.0141 9.43556 37.0075C9.40526 36.992 9.37432 36.9813 9.34023 36.9747C9.31592 36.9699 9.29287 36.968 9.26951 36.968C9.26067 36.968 9.25183 36.9703 9.24299 36.9706C8.873 36.1621 7.47797 36.6012 6.77809 36.9024C4.7804 37.7617 2.76346 39.9071 1.48555 41.6106C0.152706 43.3876 -0.324933 46.25 0.222789 48.3828C0.763566 50.4878 3.79387 50.1872 5.40357 50.138C8.7925 50.0338 12.0833 49.6935 15.4867 49.7617C20.6836 49.8656 25.8754 50.1484 31.0707 50.3069C36.0754 50.459 41.0573 50.5225 46.0568 50.8262C48.5009 50.9752 50.9453 51.0674 53.3935 50.9954C55.0177 50.9481 57.1653 51.0576 58.6232 50.1954C58.9234 50.018 59.0298 49.7595 59.0083 49.511C61.1932 47.4944 59.2776 43.7655 57.946 41.693Z" fill="#7F529F"/>
</g>
<defs>
<clipPath id="clip0_1691_2001">
<rect width="60" height="60" fill="white" transform="translate(0 0.5)"/>
</clipPath>
</defs>
</svg>
