<svg width="61" height="61" viewBox="0 0 61 61" fill="none" xmlns="http://www.w3.org/2000/svg">
<path d="M48.0498 12.875C47.2998 12.125 46.3248 11.825 45.2748 11.75C40.8498 11.75 34.0998 18.125 29.4498 22.925L28.9998 23.45C28.3248 23.975 24.8748 23.825 22.8498 23.75C19.8498 23.6 16.9998 23.525 15.1248 24.2C14.1498 24.575 12.9498 25.925 12.1998 26.975C11.7498 27.575 11.7498 28.4 12.2748 29L17.4498 35.15C16.6248 36.2 16.2498 37.4 16.2498 38.675C16.2498 39.725 16.5498 40.775 17.0748 41.675L16.1748 42.575C15.5748 43.175 15.5748 44.225 16.1748 44.825C16.4748 45.125 16.9248 45.275 17.2998 45.275C17.6748 45.275 18.1248 45.125 18.4248 44.825L19.3248 43.925C20.2248 44.45 21.2748 44.75 22.3248 44.75C23.5998 44.75 24.7998 44.375 25.7748 43.7L31.9248 48.875C32.2248 49.1 32.5998 49.25 32.9748 49.25C33.3498 49.25 33.6498 49.175 33.9498 48.95C34.9998 48.125 36.3498 46.925 36.7248 46.025C37.4748 44.225 37.3248 41.375 37.1748 38.3C37.0998 36.275 36.9498 32.825 37.4748 32.15L37.9998 31.625C42.7998 26.9 49.1748 20.15 49.1748 15.8C49.0998 14.6 48.7248 13.625 48.0498 12.875ZM35.6748 29.3L35.1498 29.825C33.7248 31.25 33.7998 34.025 33.9498 38.375C34.0248 40.775 34.1748 43.475 33.7248 44.675C33.6498 44.825 33.2748 45.2 32.8998 45.5L26.7498 40.325C26.4498 40.1 26.0748 39.95 25.6998 39.95C25.6248 39.95 25.6248 39.95 25.5498 39.95C25.0998 39.95 24.7248 40.175 24.4998 40.55C24.4248 40.625 24.3498 40.7 24.3498 40.775C23.2998 41.825 21.4248 41.825 20.2998 40.775C19.7748 40.25 19.4748 39.5 19.4748 38.75C19.4748 38 19.7748 37.25 20.2998 36.725C20.3748 36.65 20.4498 36.575 20.5248 36.575C20.8248 36.275 21.0498 35.9 21.1248 35.525C21.1248 35.075 21.0498 34.7 20.7498 34.325L15.5748 28.175C15.9498 27.8 16.2498 27.5 16.3998 27.35C17.5998 26.9 20.2998 26.975 22.6998 27.125C27.0498 27.275 29.8248 27.35 31.2498 25.925L31.7748 25.4C40.4748 16.475 43.9998 15.2 45.3498 15.125C45.7248 15.125 45.7998 15.2 45.8748 15.275C45.9498 15.35 46.0248 15.425 46.0248 15.8C45.9498 17 44.5998 20.6 35.6748 29.3Z" fill="#7F529F"/>
</svg>
