<svg width="104" height="85" viewBox="0 0 104 85" fill="none" xmlns="http://www.w3.org/2000/svg">
<path d="M80.2124 3.36895C79.9793 3.13859 79.6742 2.99496 79.348 2.96222L52.1426 0.229812C52.0474 0.22019 51.9513 0.22019 51.856 0.229812L24.6532 2.96222C24.3271 2.99508 24.022 3.13848 23.7888 3.36884L0.426078 26.451C-0.11984 26.9903 -0.144249 27.8639 0.370688 28.4329L50.9363 84.3058C51.2081 84.6061 51.5943 84.7774 51.9993 84.7774C52.4043 84.7774 52.7905 84.6061 53.0623 84.3058L103.629 28.4329C104.144 27.8639 104.12 26.9903 103.574 26.451L80.2124 3.36895ZM73.5625 28.905L51.9997 79.6762L30.437 28.905H73.5625ZM31.5355 26.0377L51.9994 3.77498L72.4643 26.0377H31.5355ZM74.7575 24.2952L55.6041 3.45943L77.5627 5.66494L74.7575 24.2952ZM29.2426 24.295L26.4385 5.66481L48.3946 3.45943L29.2426 24.295ZM26.6051 26.0371H4.92485L23.7984 7.39035L26.6051 26.0371ZM27.3214 28.9044L47.3549 76.075L4.66503 28.9044H27.3214ZM76.6779 28.9044H99.3351L56.645 76.074L76.6779 28.9044ZM77.3949 26.0371L80.2027 7.39022L99.0753 26.0371H77.3949Z" fill="#5AC0BE"/>
</svg>
