<svg width="124" height="74" viewBox="0 0 124 74" fill="none" xmlns="http://www.w3.org/2000/svg">
<path d="M9.29658 1.96023e-06L114.703 1.11752e-05C117.763 1.14427e-05 120.626 1.49054 122.36 3.9886C124.096 6.48614 124.479 9.6687 123.388 12.5012L107.75 53.0743C106.384 56.6188 102.893 59 99.0656 59L24.9344 59C21.1063 59 17.6162 56.6188 16.25 53.0742L0.612183 12.5012C-0.479391 9.66869 -0.0957945 6.48613 1.63982 3.98859C3.3744 1.49105 6.23671 1.69273e-06 9.29658 1.96023e-06ZM99.0656 55.4752C101.43 55.4752 103.584 54.0044 104.428 51.8164L120.065 11.2434C120.75 9.46823 120.519 7.55238 119.431 5.98706C118.344 4.42175 116.621 3.52431 114.703 3.52431L9.29658 3.5243C7.37912 3.5243 5.65606 4.42226 4.56868 5.98705C3.48129 7.55185 3.25021 9.46822 3.93461 11.2434L19.5725 51.8164C20.4156 54.0049 22.571 55.4752 24.9344 55.4752L99.0656 55.4752Z" fill="#5AC0BE"/>
<path d="M31.0144 39L92.9873 39C94.7863 39 96.4692 39.8843 97.489 41.3662C98.5095 42.8479 98.735 44.736 98.0932 46.4164L88.8991 70.4864C88.0958 72.5892 86.0436 74.0018 83.7932 74.0018L40.2085 74.0018C37.9578 74.0018 35.9058 72.5892 35.1026 70.4864L25.9085 46.4164C25.2667 44.736 25.4922 42.8479 26.5127 41.3662C27.5325 39.8846 29.2153 39 31.0144 39ZM83.7932 71.9107C85.183 71.9107 86.45 71.0382 86.9457 69.7402L96.1398 45.6701C96.5422 44.617 96.4063 43.4805 95.767 42.5518C95.1277 41.6232 94.1147 41.0908 92.9873 41.0908L31.0144 41.0908C29.887 41.0908 28.874 41.6235 28.2346 42.5518C27.5953 43.4801 27.4595 44.617 27.8618 45.6701L37.056 69.7402C37.5517 71.0385 38.8189 71.9107 40.2085 71.9107L83.7932 71.9107Z" fill="#5AC0BE"/>
</svg>
