<svg width="140" height="91" viewBox="0 0 140 91" fill="none" xmlns="http://www.w3.org/2000/svg">
<path d="M47.1702 90.9999H16.3061C15.4103 90.9999 14.5722 90.5595 14.0641 89.8216C13.556 89.0836 13.4436 88.1434 13.7632 87.3064L18.3421 75.3189C18.7421 74.2718 19.7641 73.5683 20.885 73.5683H42.5911C43.7122 73.5683 44.7339 74.2718 45.134 75.3189L49.713 87.3064C50.0327 88.1433 49.9203 89.0834 49.4121 89.8215C48.9042 90.5594 48.066 90.9999 47.1702 90.9999ZM20.8851 74.6095C20.1929 74.6095 19.562 75.0441 19.3149 75.6907L14.736 87.6782C14.5356 88.2026 14.6035 88.7687 14.9217 89.2312C15.2401 89.6937 15.7446 89.9588 16.3061 89.9588H47.1702C47.7316 89.9588 48.2361 89.6935 48.5545 89.231C48.8728 88.7685 48.9406 88.2026 48.7402 87.6782L44.1611 75.6907C43.9142 75.0441 43.2833 74.6095 42.5911 74.6095H20.8851Z" fill="#5AC0BE"/>
<path d="M85.4319 90.9999H54.5678C53.6719 90.9999 52.8338 90.5595 52.3259 89.8215C51.8177 89.0836 51.7053 88.1433 52.025 87.3064L56.6039 75.3189C57.0039 74.2718 58.026 73.5683 59.1467 73.5683H80.853C81.9739 73.5683 82.9959 74.2718 83.3959 75.3189L87.9748 87.3064C88.2944 88.1433 88.1821 89.0836 87.6739 89.8215C87.166 90.5595 86.3279 90.9999 85.4319 90.9999ZM59.1467 74.6095C58.4545 74.6095 57.8236 75.0441 57.5767 75.6907L52.9978 87.6782C52.7974 88.2026 52.8651 88.7687 53.1835 89.2312C53.5019 89.6937 54.0064 89.9588 54.5678 89.9588H85.4319C85.9934 89.9588 86.4979 89.6935 86.8163 89.2312C87.1347 88.7689 87.2024 88.2026 87.002 87.6782L82.423 75.6907C82.1762 75.0441 81.545 74.6095 80.853 74.6095H59.1467Z" fill="#5AC0BE"/>
<path d="M123.693 90.9999H92.8295C91.9336 90.9999 91.0955 90.5595 90.5876 89.8215C90.0794 89.0836 89.9671 88.1433 90.2867 87.3064L94.8656 75.3189C95.2656 74.2718 96.2877 73.5683 97.4084 73.5683H119.115C120.236 73.5683 121.258 74.2718 121.658 75.3189L126.237 87.3064C126.556 88.1433 126.444 89.0836 125.936 89.8215C125.428 90.5595 124.589 90.9999 123.693 90.9999ZM97.4084 74.6095C96.7163 74.6095 96.0853 75.0441 95.8384 75.6907L91.2595 87.6782C91.0591 88.2026 91.1268 88.7687 91.4452 89.2312C91.7636 89.6937 92.2681 89.9588 92.8295 89.9588H123.694C124.255 89.9588 124.76 89.6935 125.078 89.2312C125.396 88.7689 125.464 88.2026 125.264 87.6782L120.685 75.6907C120.438 75.0441 119.807 74.6095 119.115 74.6095H97.4084Z" fill="#5AC0BE"/>
<path d="M66.301 70.8829H35.4369C34.5411 70.8829 33.7029 70.4425 33.195 69.7045C32.6869 68.9666 32.5744 68.0264 32.8941 67.1895L37.473 55.2019C37.873 54.1548 38.8949 53.4514 40.0158 53.4514H61.722C62.8432 53.4514 63.865 54.155 64.2648 55.2019L68.8439 67.1895C69.1635 68.0263 69.0512 68.9664 68.5431 69.7045C68.0351 70.4424 67.197 70.8829 66.301 70.8829ZM40.0158 54.4925C39.3237 54.4925 38.6927 54.9269 38.4456 55.5736L33.8667 67.5612C33.6663 68.0856 33.7342 68.6515 34.0524 69.114C34.3706 69.5765 34.8753 69.8417 35.4368 69.8417H66.3009C66.8623 69.8417 67.3668 69.5764 67.6852 69.1139C68.0035 68.6514 68.0713 68.0855 67.8709 67.5612L63.2918 55.5736C63.0451 54.9269 62.414 54.4925 61.7218 54.4925H40.0158Z" fill="#5AC0BE"/>
<path d="M104.563 70.8829H73.6987C72.8027 70.8829 71.9646 70.4424 71.4566 69.7045C70.9485 68.9666 70.8362 68.0264 71.1558 67.1895L75.7347 55.2019C76.1348 54.1548 77.1568 53.4514 78.2776 53.4514H99.9839C101.105 53.4514 102.127 54.1548 102.527 55.2019L107.106 67.1895C107.425 68.0264 107.313 68.9666 106.805 69.7045C106.297 70.4424 105.459 70.8829 104.563 70.8829ZM78.2776 54.4925C77.5854 54.4925 76.9545 54.9269 76.7076 55.5736L72.1287 67.5612C71.9283 68.0856 71.9959 68.6514 72.3143 69.1139C72.6327 69.5765 73.1372 69.8417 73.6987 69.8417H104.563C105.124 69.8417 105.629 69.5764 105.947 69.1139C106.266 68.6514 106.333 68.0856 106.133 67.5612L101.554 55.5736C101.307 54.9269 100.676 54.4925 99.9839 54.4925H78.2776Z" fill="#5AC0BE"/>
<path d="M85.4319 50.9629H54.5678C53.6719 50.9629 52.8338 50.5225 52.3259 49.7845C51.8177 49.0465 51.7053 48.1062 52.025 47.2694L56.6039 35.2819C57.0039 34.2346 58.026 33.5311 59.1467 33.5311H80.853C81.9739 33.5311 82.9959 34.2346 83.3959 35.2819L87.9748 47.2694C88.2944 48.1062 88.1821 49.0465 87.6739 49.7845C87.166 50.5224 86.3279 50.9629 85.4319 50.9629ZM59.1467 34.5725C58.4545 34.5725 57.8236 35.0071 57.5767 35.6535L52.9978 47.641C52.7974 48.1655 52.8651 48.7315 53.1835 49.194C53.5019 49.6565 54.0064 49.9216 54.5678 49.9216H85.4319C85.9934 49.9216 86.4979 49.6563 86.8163 49.194C87.1347 48.7317 87.2024 48.1655 87.002 47.641L82.423 35.6535C82.1762 35.0069 81.545 34.5725 80.853 34.5725H59.1467Z" fill="#5AC0BE"/>
<path d="M46.5712 26.6269C46.3619 26.6269 46.1647 26.4998 46.0851 26.2928L38.7242 7.13695C38.6211 6.86858 38.7551 6.56736 39.0234 6.46425C39.2918 6.36098 39.593 6.49509 39.6963 6.76347L47.057 25.9194C47.1602 26.1877 47.0261 26.4889 46.7578 26.5921C46.6962 26.6157 46.6332 26.6269 46.5712 26.6269Z" fill="#5AC0BE"/>
<path d="M27.7544 40.2702C27.6111 40.2702 27.4684 40.2114 27.3655 40.0959L13.714 24.7739C13.5226 24.5593 13.5417 24.2301 13.7563 24.0388C13.971 23.8474 14.3 23.8665 14.4915 24.0811L28.1431 39.4031C28.3344 39.6178 28.3154 39.9469 28.1007 40.1383C28.0013 40.2268 27.8776 40.2702 27.7544 40.2702Z" fill="#5AC0BE"/>
<path d="M20.1359 64.1827C20.0707 64.1827 20.0044 64.1704 19.9403 64.1445L0.924607 56.4287C0.658229 56.3205 0.529798 56.0169 0.637975 55.7505C0.746153 55.484 1.04966 55.3561 1.3162 55.4637L20.3318 63.1795C20.5982 63.2876 20.7267 63.5913 20.6185 63.8577C20.5364 64.0601 20.3415 64.1827 20.1359 64.1827Z" fill="#5AC0BE"/>
<path d="M93.4288 26.627C93.3669 26.627 93.3038 26.6158 93.2423 26.5921C92.9739 26.489 92.8398 26.1878 92.943 25.9194L100.304 6.76353C100.407 6.49516 100.708 6.36089 100.977 6.46431C101.245 6.56743 101.379 6.86864 101.276 7.13701L93.915 26.2929C93.8355 26.4999 93.6381 26.627 93.4288 26.627Z" fill="#5AC0BE"/>
<path d="M112.245 40.2703C112.122 40.2703 111.998 40.2268 111.899 40.1383C111.684 39.947 111.665 39.618 111.857 39.4032L125.508 24.0812C125.699 23.8664 126.029 23.8475 126.243 24.0388C126.458 24.2302 126.477 24.5592 126.286 24.774L112.634 40.096C112.531 40.2115 112.388 40.2703 112.245 40.2703Z" fill="#5AC0BE"/>
<path d="M119.865 64.1827C119.659 64.1827 119.464 64.0601 119.382 63.8577C119.274 63.5913 119.402 63.2876 119.669 63.1794L138.684 55.4637C138.951 55.3561 139.255 55.4841 139.363 55.7505C139.471 56.0168 139.342 56.3205 139.076 56.4287L120.06 64.1444C119.996 64.1704 119.93 64.1827 119.865 64.1827Z" fill="#5AC0BE"/>
<path d="M70.0011 21.0762C69.7136 21.0762 69.4805 20.8432 69.4805 20.5556V0.520635C69.4805 0.233082 69.7136 0 70.0011 0C70.2887 0 70.5217 0.233082 70.5217 0.520635V20.5556C70.5216 20.8432 70.2887 21.0762 70.0011 21.0762Z" fill="#5AC0BE"/>
</svg>
