<svg width="150" height="75" viewBox="0 0 150 75" fill="none" xmlns="http://www.w3.org/2000/svg">
<path d="M67.5734 75H5.60051C3.8018 75 2.11863 74.1157 1.0988 72.6338C0.0786692 71.1521 -0.14717 69.2643 0.49461 67.5839L9.68874 43.5136C10.492 41.4111 12.5439 39.9988 14.7946 39.9988H58.379C60.6303 39.9988 62.682 41.4114 63.4849 43.5136L72.6794 67.5839C73.3211 69.264 73.0956 71.1518 72.0755 72.6338C71.0553 74.1154 69.3725 75 67.5734 75ZM14.7946 42.0893C13.4048 42.0893 12.1379 42.9615 11.6418 44.2599L2.44769 68.3302C2.0453 69.3833 2.18148 70.5195 2.82049 71.4482C3.4595 72.3768 4.47285 72.9092 5.6002 72.9092H67.5731C68.7005 72.9092 69.7135 72.3765 70.3529 71.4479C70.9919 70.5192 71.128 69.383 70.7257 68.3302L61.5312 44.2599C61.0358 42.9615 59.7686 42.0893 58.3787 42.0893H14.7946Z" fill="#5AC0BE"/>
<path d="M144.4 75H82.4268C80.6277 75 78.9449 74.1154 77.9248 72.6338C76.9046 71.1521 76.6791 69.2643 77.3209 67.5839L86.515 43.5136C87.3182 41.4111 89.3705 39.9988 91.6209 39.9988H135.206C137.456 39.9988 139.508 41.4111 140.311 43.5136L149.506 67.5839C150.147 69.2643 149.922 71.1521 148.902 72.6338C147.881 74.1154 146.198 75 144.4 75ZM91.6209 42.0893C90.231 42.0893 88.9641 42.9615 88.4684 44.2599L79.2743 68.3302C78.8719 69.3833 79.0077 70.5192 79.6471 71.4479C80.2864 72.3768 81.2994 72.9092 82.4268 72.9092H144.4C145.527 72.9092 146.54 72.3765 147.179 71.4479C147.819 70.5192 147.955 69.3833 147.552 68.3302L138.358 44.2599C137.862 42.9615 136.595 42.0893 135.206 42.0893H91.6209Z" fill="#5AC0BE"/>
<path d="M105.986 35.0018H44.0127C42.2137 35.0018 40.5308 34.1176 39.511 32.6356C38.4906 31.1539 38.265 29.2659 38.9068 27.5855L48.1009 3.51546C48.9042 1.41265 50.9564 0 53.2068 0H96.7915C99.0422 0 101.094 1.41265 101.897 3.51546L111.092 27.5855C111.733 29.2659 111.508 31.1539 110.487 32.6356C109.468 34.1173 107.785 35.0018 105.986 35.0018ZM53.2068 2.0911C51.817 2.0911 50.55 2.96364 50.0543 4.26168L40.8602 28.3317C40.4578 29.3848 40.5937 30.5214 41.233 31.45C41.8723 32.3786 42.8853 32.911 44.0127 32.911H105.986C107.113 32.911 108.126 32.3783 108.765 31.45C109.405 30.5217 109.541 29.3848 109.138 28.3317L99.944 4.26168C99.4483 2.96333 98.1811 2.0911 96.7915 2.0911H53.2068Z" fill="#5AC0BE"/>
</svg>
