<svg width="33" height="33" viewBox="0 0 33 33" fill="none" xmlns="http://www.w3.org/2000/svg">
<path fill-rule="evenodd" clip-rule="evenodd" d="M24.7528 24.0302C24.6061 24.3845 24.391 24.7064 24.1199 24.9775C23.8487 25.2487 23.5268 25.4637 23.1725 25.6105C22.8183 25.7572 22.4385 25.8327 22.0552 25.8327C21.6754 25.8327 21.3677 25.5249 21.3677 25.1452C21.3677 24.7655 21.6754 24.4577 22.0552 24.4577C22.258 24.4577 22.4589 24.4178 22.6463 24.3401C22.8338 24.2625 23.0041 24.1487 23.1476 24.0053C23.291 23.8617 23.4049 23.6915 23.4824 23.504C23.5601 23.3165 23.6001 23.1157 23.6001 22.9128C23.6001 22.5331 23.9078 22.2253 24.2876 22.2253C24.6673 22.2253 24.9751 22.5331 24.9751 22.9128C24.9751 23.2962 24.8995 23.676 24.7528 24.0302Z" fill="#7F529F"/>
<path fill-rule="evenodd" clip-rule="evenodd" d="M6.18467 8.97001C6.33141 8.61575 6.54649 8.29385 6.81763 8.02272C7.08876 7.75158 7.41066 7.53649 7.76492 7.38975C8.11919 7.24301 8.49888 7.16748 8.88234 7.16748C9.26203 7.16748 9.56984 7.47529 9.56984 7.85498C9.56984 8.23469 9.26203 8.54248 8.88234 8.54248C8.67944 8.54248 8.47856 8.58245 8.29112 8.66008C8.10368 8.73773 7.93336 8.85153 7.7899 8.99499C7.64643 9.13845 7.53264 9.30875 7.45501 9.49619C7.37736 9.68363 7.3374 9.88454 7.3374 10.0874C7.3374 10.4671 7.02959 10.7749 6.6499 10.7749C6.27021 10.7749 5.9624 10.4671 5.9624 10.0874C5.9624 9.70397 6.03793 9.32428 6.18467 8.97001Z" fill="#7F529F"/>
<path fill-rule="evenodd" clip-rule="evenodd" d="M26.2085 4.61117C25.403 3.80572 24.097 3.80572 23.2917 4.61117L18.4302 9.47253C17.6248 10.278 17.6248 11.5839 18.4302 12.3893L19.0344 12.9935L18.4711 13.5568L14.7733 9.85903C13.9678 9.05357 12.6619 9.05357 11.8564 9.85903L9.22285 12.4926C8.41741 13.2981 8.41741 14.604 9.22285 15.4094L12.9206 19.1072L12.3751 19.6528L11.7709 19.0486C10.9655 18.2432 9.65958 18.2432 8.85412 19.0486L3.99277 23.9101C3.18731 24.7154 3.18731 26.0214 3.99277 26.8269L5.93731 28.7714C6.74277 29.5769 8.04866 29.5769 8.85412 28.7714L13.7155 23.9101C14.521 23.1046 14.521 21.7986 13.7155 20.9932L13.3473 20.6251L13.8929 20.0795L17.0011 23.1877C17.8065 23.993 19.1124 23.993 19.9179 23.1877L22.5514 20.554C23.3569 19.7485 23.3569 18.4427 22.5514 17.6372L19.4433 14.5292L20.0067 13.9657L20.3748 14.3339C21.1802 15.1394 22.4862 15.1394 23.2917 14.3339L28.153 9.47253C28.9585 8.66707 28.9585 7.36117 28.153 6.55572L26.2085 4.61117ZM11.8833 21.1055L11.8889 21.1113L11.8946 21.1169L12.7432 21.9654C13.0117 22.234 13.0117 22.6693 12.7432 22.9378L7.88184 27.7991C7.61336 28.0675 7.17806 28.0675 6.90958 27.7991L4.96503 25.8546C4.69655 25.5861 4.69655 25.1508 4.96503 24.8824L9.8264 20.0209C10.0949 19.7525 10.5302 19.7525 10.7987 20.0209L11.8833 21.1055ZM24.264 5.58344C24.5324 5.31496 24.9677 5.31496 25.2362 5.58344L27.1807 7.52798C27.4491 7.79648 27.4491 8.23177 27.1807 8.50026L22.3193 13.3616C22.0509 13.6301 21.6156 13.6301 21.347 13.3616L19.4025 11.4171C19.1341 11.1486 19.1341 10.7133 19.4025 10.4448L24.264 5.58344ZM10.1951 14.4372C9.92665 14.1686 9.92665 13.7334 10.1951 13.4649L12.8287 10.8313C13.0972 10.5628 13.5325 10.5628 13.801 10.8313L21.5791 18.6095C21.8477 18.878 21.8477 19.3133 21.5791 19.5817L18.9456 22.2153C18.6771 22.4838 18.2417 22.4838 17.9733 22.2153L10.1951 14.4372Z" fill="#7F529F"/>
</svg>
