<svg width="42" height="41" viewBox="0 0 42 41" fill="none" xmlns="http://www.w3.org/2000/svg">
<path d="M37.5924 8.4633C37.3484 8.12296 37.0932 7.79016 36.823 7.4636C33.063 2.90788 27.3687 0 21 0C14.6325 0 8.93695 2.90788 5.17704 7.46352C4.90678 7.79008 4.65149 8.12288 4.40877 8.46322C1.94765 11.8453 0.5 16.0031 0.5 20.5C0.5 25.0094 1.9539 29.1872 4.42631 32.5693C4.67655 32.9159 4.93929 33.255 5.2146 33.5828C8.97579 38.1109 14.6513 41 21 41C27.3813 41 33.0768 38.0847 36.8354 33.5177C37.112 33.1911 37.3747 32.852 37.6187 32.5054C40.0648 29.1297 41.5 24.9844 41.5 20.5C41.5 16.0031 40.0523 11.8453 37.5924 8.4633ZM38.2719 19.8569H31.3901C31.3401 17.2493 30.9873 14.7769 30.3892 12.5522C32.0833 11.9742 33.6399 11.2422 35.0162 10.3851C36.9618 13.0652 38.1405 16.331 38.2719 19.8569ZM21.6393 3.35575C24.6323 3.7712 27.2799 7.04808 28.7901 11.7064C26.5904 12.3332 24.1781 12.6998 21.6393 12.7549V3.35575ZM20.3581 3.35575V12.7549C17.8194 12.6998 15.407 12.3332 13.2074 11.7064C14.7176 7.04816 17.3652 3.7712 20.3581 3.35575ZM20.3581 14.035V19.8569H11.8886C11.9387 17.3932 12.2803 15.0447 12.8483 12.9289C15.1618 13.5933 17.693 13.9812 20.3581 14.035ZM20.3581 21.1381V26.9601C17.6968 27.0239 15.1668 27.4192 12.8545 28.0887C12.2827 25.9679 11.9399 23.6106 11.8886 21.1381H20.3581ZM20.3581 28.24V37.6392C17.3714 37.225 14.7276 33.9606 13.2161 29.316C15.4446 28.6705 17.8557 28.3039 20.3581 28.24ZM21.6393 37.6392V28.2375C24.1781 28.2826 26.5929 28.6455 28.795 29.2686C27.2861 33.9381 24.636 37.2238 21.6393 37.6392ZM21.6393 26.9563V21.1381H30.1089C30.0588 23.5905 29.7198 25.9315 29.1567 28.0399C26.8407 27.3818 24.3057 27.0014 21.6393 26.9563ZM21.6393 19.8569V14.035C24.3044 13.9812 26.8357 13.5945 29.1504 12.9301C29.7172 15.0447 30.0588 17.3945 30.1089 19.8569H21.6393ZM34.2354 9.3854C32.9817 10.1499 31.5653 10.803 30.0262 11.3286C28.9677 8.05033 27.3624 5.40279 25.4293 3.78369C28.9202 4.70835 31.9832 6.69525 34.2354 9.3854ZM16.5682 3.78369C14.635 5.40399 13.0297 8.05033 11.9712 11.3273C10.4347 10.8017 9.01703 10.1499 7.76461 9.3854C10.0168 6.69653 13.0773 4.70963 16.5682 3.78369ZM6.98385 10.3852C8.36023 11.2422 9.91543 11.973 11.6084 12.5523C11.0103 14.777 10.6574 17.2494 10.6074 19.857H3.72819C3.85952 16.331 5.03947 13.0652 6.98385 10.3852ZM3.72819 21.1381H10.6074C10.6574 23.7557 11.0128 26.2382 11.6159 28.4703C9.92672 29.0509 8.3752 29.7803 7.00266 30.6349C5.04443 27.946 3.85832 24.6728 3.72819 21.1381ZM7.79712 31.6471C9.06836 30.8701 10.4785 30.222 11.9837 29.7015C13.0422 32.9671 14.6463 35.6035 16.5757 37.2163C13.0998 36.2954 10.0468 34.321 7.79712 31.6471ZM25.4218 37.2163C27.3637 35.5947 28.974 32.9371 30.0326 29.6452C31.5766 30.1694 32.9992 30.8238 34.2554 31.5895C31.9958 34.2922 28.9228 36.2879 25.4218 37.2163ZM35.0424 30.5836C33.6598 29.724 32.0971 28.9933 30.3966 28.4164C30.9897 26.198 31.34 23.7356 31.3901 21.1381H38.2718C38.143 24.6528 36.9756 27.9023 35.0424 30.5836Z" fill="#90D3D0"/>
</svg>
