<svg width="28" height="29" viewBox="0 0 28 29" fill="none" xmlns="http://www.w3.org/2000/svg">
<path d="M8.74164 27.1724C8.97185 27.3078 9.24155 27.3602 9.5057 27.3207C9.76985 27.2812 10.0124 27.1522 10.193 26.9554L23.0263 12.9554C23.1794 12.7885 23.2806 12.5807 23.3176 12.3572C23.3546 12.1338 23.3257 11.9044 23.2346 11.6971C23.1434 11.4898 22.9939 11.3135 22.8042 11.1897C22.6145 11.0659 22.393 11.0001 22.1665 11.0001H15.3216L16.3238 2.97807C16.3554 2.72168 16.3009 2.46206 16.169 2.23994C16.0371 2.01782 15.8352 1.84576 15.595 1.75073C15.3548 1.65571 15.0898 1.64311 14.8417 1.7149C14.5935 1.78669 14.3762 1.93881 14.2238 2.14741L4.89048 14.9807C4.764 15.1547 4.68808 15.3603 4.67112 15.5747C4.65415 15.7892 4.6968 16.0041 4.79434 16.1958C4.89189 16.3875 5.04053 16.5485 5.22386 16.6611C5.40718 16.7736 5.61804 16.8332 5.83314 16.8334H11.2138L8.22714 25.7981C8.14263 26.0514 8.14761 26.3261 8.24125 26.5763C8.3349 26.8264 8.51153 27.0368 8.74164 27.1724ZM8.12448 14.5001L13.4468 7.18157L12.8425 12.0221C12.822 12.1862 12.8366 12.3528 12.8854 12.5108C12.9342 12.6689 13.016 12.8147 13.1254 12.9387C13.2349 13.0627 13.3694 13.1621 13.5202 13.2301C13.6709 13.2981 13.8344 13.3334 13.9998 13.3334H19.5146L12.1705 21.3449L13.9391 16.0354C13.9975 15.8601 14.0134 15.6735 13.9856 15.4908C13.9577 15.3082 13.8869 15.1347 13.7789 14.9848C13.6709 14.8349 13.5288 14.7128 13.3644 14.6285C13.2 14.5442 13.0179 14.5002 12.8331 14.5001H8.12448Z" fill="#7F529F"/>
</svg>
