<svg width="22" height="21" viewBox="0 0 22 21" fill="none" xmlns="http://www.w3.org/2000/svg">
<path d="M20.8437 20.5799H1.15617C1.02558 20.5799 0.919922 20.4743 0.919922 20.3437C0.919922 20.3023 0.931078 20.257 0.951422 20.221L2.46408 17.6005C2.50608 17.5277 2.58483 17.4818 2.66883 17.4818H10.7637V14.4374C10.7637 14.3068 10.8693 14.2012 10.9999 14.2012H13.3631L11.6805 11.2815C11.3313 10.6758 11.3326 9.89289 11.6837 9.28848C11.8603 8.9853 12.1116 8.7333 12.4115 8.56005C12.531 8.4918 12.655 8.43667 12.783 8.39467L15.0004 4.5543C14.9394 4.43223 14.8869 4.30558 14.8442 4.17433H10.3916C10.0484 4.94673 9.27398 5.48683 8.37558 5.48683C8.23973 5.48683 8.10651 5.47436 7.97789 5.45073L6.79336 7.5002C6.90755 7.68395 6.99351 7.88673 7.04667 8.1033C7.18055 8.6447 7.09655 9.20383 6.81042 9.6783L5.82736 11.3681C5.76239 11.4817 5.61867 11.5204 5.50514 11.4541L4.10798 10.6476L3.57708 11.567C3.80873 11.7566 3.9787 12.0113 4.06598 12.3059C4.18148 12.6944 4.13883 13.1026 3.9472 13.4563L3.6053 14.0863C3.57511 14.127 3.51211 14.1867 3.46355 14.2012L2.43783 14.505L2.30395 14.0529L3.23911 13.7753L3.53245 13.2312C3.6637 12.9891 3.69258 12.7082 3.61383 12.4411C3.53442 12.1747 3.35723 11.9548 3.11442 11.8236C2.87161 11.6923 2.59139 11.6641 2.32364 11.7422C2.05655 11.8216 1.83736 11.9995 1.70611 12.2423L1.4108 12.7863L1.68642 13.7175L1.23361 13.852L0.929766 12.827C0.912047 12.7666 0.918609 12.7023 0.948797 12.6472L1.2907 12.0172C1.48233 11.6641 1.80127 11.4049 2.18911 11.2907C2.51658 11.1923 2.85848 11.2074 3.16955 11.3307L3.69848 10.414L2.28164 9.59626C2.22717 9.56476 2.18714 9.51226 2.17139 9.45058C2.15564 9.38889 2.16483 9.32392 2.1983 9.26945L3.24633 7.53039C3.53245 7.05592 3.98789 6.72123 4.5293 6.58736C4.7708 6.5283 5.01623 6.51123 5.2538 6.53683L6.48098 4.41189C6.28345 4.07852 6.16992 3.69264 6.16992 3.28117C6.16992 2.06514 7.15889 1.07617 8.37492 1.07617C9.27333 1.07617 10.0477 1.61627 10.3909 2.38867H14.8436C15.219 1.2468 16.2959 0.419922 17.5624 0.419922C19.14 0.419922 20.4237 1.70355 20.4237 3.28117C20.4237 4.84895 19.1558 6.12601 17.5926 6.14242L15.4532 9.84826L17.9621 14.2012H19.5312C19.6618 14.2012 19.7674 14.3068 19.7674 14.4374V17.4824H20.8437C20.9743 17.4824 21.0799 17.5881 21.0799 17.7187V20.3437C21.0799 20.4743 20.9743 20.5799 20.8437 20.5799ZM1.56305 20.1074H20.6074V17.9549H2.80533L1.56305 20.1074ZM11.2362 17.4824H19.2949V14.6737H11.2362V17.4824ZM13.9084 14.2012H17.4174L14.7235 9.5267C14.5909 9.29833 14.4013 9.10736 14.1729 8.97545C13.7004 8.70114 13.1157 8.69851 12.6478 8.96955C12.4194 9.10145 12.2271 9.29373 12.0926 9.52539C11.8288 9.97952 11.8281 10.5905 12.0893 11.0453L13.9084 14.2012ZM2.72658 9.30423L5.5373 10.9271L6.4042 9.43745C6.62733 9.06798 6.69164 8.63551 6.58861 8.21683C6.48492 7.79814 6.22636 7.44639 5.86017 7.22523C5.49464 7.00473 5.06152 6.93911 4.64283 7.0428C4.22414 7.14648 3.87173 7.40505 3.65058 7.77123L2.72658 9.30423ZM13.4025 8.29623C13.7496 8.29623 14.0987 8.38614 14.4091 8.56661C14.7084 8.74051 14.9578 8.99055 15.1317 9.29111L15.1802 9.37576L17.0715 6.10108C16.3451 5.97508 15.7118 5.57345 15.2826 5.00908L13.3847 8.29623C13.3913 8.29623 13.3965 8.29623 13.4025 8.29623ZM5.73548 6.64445C5.8628 6.69039 5.98617 6.74945 6.1043 6.82098C6.24014 6.90301 6.36417 6.99883 6.47573 7.10645L7.51261 5.31095C7.23961 5.19414 6.99483 5.02417 6.79139 4.81417L5.73548 6.64445ZM17.5624 0.892422C16.2453 0.892422 15.1737 1.96408 15.1737 3.28117C15.1737 4.59827 16.2453 5.66992 17.5624 5.66992C18.8795 5.66992 19.9512 4.59827 19.9512 3.28117C19.9512 1.96408 18.8795 0.892422 17.5624 0.892422ZM8.37492 1.54867C7.41942 1.54867 6.64242 2.32633 6.64242 3.28117C6.64242 4.23602 7.41942 5.01367 8.37492 5.01367C9.33042 5.01367 10.1074 4.23667 10.1074 3.28117C10.1074 2.32567 9.33042 1.54867 8.37492 1.54867ZM10.5399 3.70117H14.732C14.7117 3.56402 14.7012 3.42358 14.7012 3.28117C14.7012 3.13877 14.7123 2.99833 14.732 2.86117H10.5399C10.5661 2.99702 10.5799 3.13745 10.5799 3.28117C10.5799 3.42489 10.5661 3.56533 10.5399 3.70117ZM8.70305 3.28117C8.70305 3.4623 8.55605 3.6093 8.37492 3.6093C8.1938 3.6093 8.0468 3.4623 8.0468 3.28117C8.0468 3.10005 8.1938 2.95305 8.37492 2.95305C8.55605 2.95305 8.70305 3.10005 8.70305 3.28117ZM17.5624 2.95305C17.3813 2.95305 17.2343 3.10005 17.2343 3.28117C17.2343 3.4623 17.3813 3.6093 17.5624 3.6093C17.7435 3.6093 17.8905 3.4623 17.8905 3.28117C17.8905 3.10005 17.7435 2.95305 17.5624 2.95305ZM13.2968 10.1718C13.1157 10.1718 12.9687 10.3188 12.9687 10.4999C12.9687 10.681 13.1157 10.828 13.2968 10.828C13.4779 10.828 13.6249 10.681 13.6249 10.4999C13.6249 10.3188 13.4779 10.1718 13.2968 10.1718Z" fill="#7F529F"/>
</svg>
