<svg width="39" height="39" viewBox="0 0 39 39" fill="none" xmlns="http://www.w3.org/2000/svg">
<path d="M19.5 35.75C28.4746 35.75 35.75 28.4746 35.75 19.5C35.75 10.5254 28.4746 3.25 19.5 3.25C10.5254 3.25 3.25 10.5254 3.25 19.5C3.25 28.4746 10.5254 35.75 19.5 35.75Z" stroke="#90D3D0" stroke-width="3.75"/>
<path d="M9.75 7.65461C11.0179 8.80921 13.6298 11.9651 13.9341 15.352C14.2185 18.5177 16.308 21.0902 19.5 21.125C20.7267 21.1383 21.9672 20.2522 21.9642 19.0255C21.9632 18.6461 21.9006 18.2582 21.8026 17.9015C21.6663 17.4051 21.6543 16.8342 21.9375 16.25C22.9286 14.2066 24.8778 13.6578 26.4223 12.548C27.1073 12.0558 27.7321 11.5366 28.0077 11.1184C28.7685 9.96382 29.5292 7.65461 29.1488 6.5" stroke="#90D3D0" stroke-width="3.75"/>
<path d="M35.75 21.125C35.2147 22.6379 34.8359 26.6094 28.7921 26.6724C28.7921 26.6724 23.4399 26.6724 21.8343 29.6983C20.5497 32.1189 21.299 34.7414 21.8343 35.75" stroke="#90D3D0" stroke-width="3.75"/>
</svg>
