<svg width="24" height="23" viewBox="0 0 24 23" fill="none" xmlns="http://www.w3.org/2000/svg">
<g clip-path="url(#clip0_1691_1715)">
<path d="M12 0C18.3509 0 23.5 5.14841 23.5 11.5C23.5 17.8516 18.3516 23 12 23C5.64841 23 0.5 17.8516 0.5 11.5C0.5 5.14841 5.64841 0 12 0ZM9.125 1.86372C5.88559 2.829 3.33763 5.38559 2.37091 8.625H7.03272C7.53656 7.75962 8.25891 7.03728 9.12428 6.53487L9.125 1.86372ZM7.69541 11.5043C7.69541 13.8841 9.62237 15.8125 12 15.8125C14.3776 15.8125 16.3046 13.8841 16.3046 11.5043C16.3046 9.12453 14.3776 7.19613 12 7.19613C9.62309 7.19613 7.69541 9.12525 7.69541 11.5043ZM13.4375 1.54819C12.9682 1.48063 12.4888 1.44469 12 1.44469C11.5112 1.44469 11.0326 1.48134 10.5625 1.54819V5.94622C11.0225 5.82762 11.5026 5.75791 12 5.75791C12.4974 5.75791 12.9775 5.82762 13.4375 5.94622V1.54819ZM14.875 1.86372V6.53487C15.7411 7.038 16.4634 7.75962 16.9666 8.625H21.6291C20.6624 5.38559 18.1144 2.82972 14.875 1.86372ZM22.0553 11.5036C22.0553 11.0134 22.0136 10.534 21.9461 10.0625H17.5574C17.6767 10.5232 17.7421 11.0055 17.7421 11.5036C17.7421 11.9995 17.6767 12.4789 17.5588 12.9375H21.9468C22.0136 12.4689 22.0553 11.9909 22.0553 11.5036ZM14.875 21.1427C18.1173 20.1768 20.6653 17.6166 21.6313 14.375H16.9716C16.4678 15.2432 15.744 15.9685 14.8757 16.473V21.1435L14.875 21.1427ZM10.5625 21.4583C11.0326 21.5251 11.512 21.5625 12 21.5625C12.488 21.5625 12.9682 21.5251 13.4375 21.4583V17.061C12.9775 17.1803 12.4974 17.2493 12 17.2493C11.5026 17.2493 11.0225 17.1796 10.5625 17.061V21.4583ZM9.125 21.1427V16.4723C8.25675 15.9685 7.53225 15.2433 7.02913 14.3743H2.36947C3.33475 17.6166 5.88416 20.1775 9.125 21.1427ZM6.44047 12.9375C6.32259 12.4797 6.25719 11.9995 6.25719 11.5036C6.25719 11.0048 6.32259 10.5232 6.44263 10.0625H2.05322C1.98565 10.534 1.94397 11.0134 1.94397 11.5036C1.94397 11.9909 1.98566 12.4689 2.0525 12.9375H6.44047Z" fill="#7F529F"/>
</g>
<defs>
<clipPath id="clip0_1691_1715">
<rect width="23" height="23" fill="white" transform="matrix(-1 0 0 1 23.5 0)"/>
</clipPath>
</defs>
</svg>
