<svg width="46" height="45" viewBox="0 0 46 45" fill="none" xmlns="http://www.w3.org/2000/svg">
<path d="M34.25 5.625H11.75C7.28094 5.625 4.71875 8.18719 4.71875 12.6562C4.71875 16.4827 8.09234 20.8364 11.1214 22.3523L12.2239 22.9036C13.4811 27.1083 17.1345 30.2808 21.5938 30.8405V33.75C21.5938 35.3039 20.3352 36.5625 18.7812 36.5625H15.9688V39.375H30.0312V36.5625H27.2188C25.6648 36.5625 24.4062 35.3039 24.4062 33.75V30.8405C28.8655 30.2808 32.5189 27.1083 33.7761 22.9036L34.8786 22.3523C37.9077 20.8364 41.2812 16.4827 41.2812 12.6562C41.2812 8.18719 38.7191 5.625 34.25 5.625ZM7.53125 12.6562C7.53125 9.73828 8.83203 8.4375 11.75 8.4375V19.4484C9.53797 17.9859 7.53125 14.85 7.53125 12.6562ZM31.4375 19.6875C31.4375 24.3408 27.6533 28.125 23 28.125C18.3467 28.125 14.5625 24.3408 14.5625 19.6875V8.4375H31.4375V19.6875ZM34.25 19.4484V8.4375C37.168 8.4375 38.4688 9.73828 38.4688 12.6562C38.4688 14.85 36.462 17.9859 34.25 19.4484ZM15.9688 19.6875H18.7812C18.7812 22.0134 20.6741 23.9062 23 23.9062V26.7188C19.123 26.7188 15.9688 23.5645 15.9688 19.6875Z" fill="#90D3D0"/>
</svg>
