<svg width="41" height="41" viewBox="0 0 41 41" fill="none" xmlns="http://www.w3.org/2000/svg">
<path d="M41 25.3359C41 24.2348 40.6857 23.1984 40.1432 22.3247C39.7863 21.7505 39.3306 21.2463 38.7999 20.8326C39.3108 20.1143 39.6575 19.2618 39.773 18.3292C39.8018 18.1011 39.815 17.8736 39.815 17.6484C39.815 16.2808 39.3049 15.0045 38.4503 14.0307V14.0315C37.832 13.3248 37.0252 12.7742 36.1007 12.4584C36.2958 11.8651 36.3996 11.2468 36.4004 10.6234V10.6197V10.6189C36.3996 9.96236 36.2856 9.30284 36.0501 8.67351C35.8152 8.04337 35.459 7.44351 34.982 6.91059C34.4197 6.28053 33.7439 5.80134 33.0145 5.48191C32.2939 5.16608 31.5203 5.00497 30.7444 5.00128C30.7436 5.00128 30.7348 5.00128 30.7216 5.00128V5.00048C30.7194 5.00128 30.6995 4.99976 30.6634 5.002C30.5721 5.00264 30.4809 5.00569 30.3896 5.01009C30.1231 4.04579 29.6101 3.18167 28.9234 2.49572C28.4074 1.97897 27.7913 1.56089 27.1068 1.27084C26.4362 0.986727 25.698 0.828492 24.9295 0.821846C24.9288 0.821846 24.9148 0.821846 24.8905 0.821045H24.889H24.8816H24.8808H24.8801H24.8793C24.8787 0.821045 24.8779 0.821045 24.8779 0.821045C24.8675 0.821045 24.8521 0.821045 24.8293 0.821846C24.0608 0.829133 23.324 0.987447 22.6535 1.27084C21.9682 1.56081 21.3528 1.97889 20.8361 2.49572H20.8369C20.7191 2.61343 20.6072 2.73715 20.4998 2.8644C20.393 2.73707 20.2811 2.61343 20.1634 2.49572C19.6473 1.97897 19.0314 1.56089 18.3468 1.27084C17.6762 0.986727 16.9387 0.828492 16.1695 0.821846C16.1695 0.821846 16.1547 0.821846 16.1312 0.821045H16.1297H16.1224H16.1208H16.1201C16.1201 0.821045 16.1201 0.821045 16.1194 0.821045C16.1186 0.821045 16.1186 0.821045 16.1179 0.821045C16.1083 0.821045 16.0921 0.821045 16.07 0.821846C15.3016 0.829133 14.564 0.987447 13.8934 1.27084C13.2089 1.56081 12.5928 1.97889 12.0768 2.49572C11.3901 3.18167 10.8777 4.04507 10.6106 5.01009C10.5105 5.00417 10.4104 5.00128 10.3095 5.00128V5.00048C10.3095 5.00048 10.3021 5.00048 10.2918 4.99976C10.2896 5.00048 10.2719 4.99976 10.2388 5.00128C9.46884 5.00713 8.70113 5.16761 7.98571 5.48119C7.2562 5.80062 6.5805 6.27989 6.01819 6.91067C5.53316 7.45239 5.1688 8.06707 4.92729 8.7133C4.68521 9.35954 4.56517 10.039 4.56517 10.7154C4.56517 10.7154 4.56517 10.7265 4.56517 10.7441H4.56589C4.56894 11.3006 4.65494 11.8548 4.81838 12.3892C4.14412 12.691 3.53905 13.1179 3.0364 13.6413V13.6398C2.54024 14.155 2.14057 14.7623 1.86382 15.4336C1.58707 16.1049 1.4354 16.841 1.4354 17.6057C1.4354 17.6735 1.43692 17.742 1.43908 17.8097C1.46567 18.5671 1.6408 19.2899 1.93445 19.9443C2.05521 20.2129 2.19654 20.4699 2.3555 20.7149C1.75852 21.1493 1.2477 21.6954 0.856916 22.3247C0.314307 23.1984 0 24.2348 0 25.3359C0 26.1228 0.160477 26.8773 0.449719 27.5626C0.739762 28.2479 1.15857 28.8632 1.67531 29.3799H1.67459C2.18982 29.8945 2.80305 30.3119 3.48532 30.6018C3.7672 30.721 4.06092 30.8175 4.36418 30.8911C4.25159 31.3423 4.19417 31.8031 4.19337 32.2624H4.19265V32.2749V32.2756V32.2771C4.19265 33.0633 4.35457 33.8486 4.67552 34.5796C4.99639 35.3097 5.47702 35.9862 6.11012 36.5493C6.65185 37.0314 7.26501 37.3943 7.9098 37.635C8.54434 37.8714 9.21043 37.9906 9.87507 37.9935C9.8854 37.9949 9.89421 37.9949 9.90166 37.9949C9.9031 37.9949 9.90462 37.9949 9.90598 37.9949H9.90751C9.90751 37.9949 9.90751 37.9949 9.90823 37.9949H9.92296V37.9943C10.4426 37.9935 10.9616 37.9199 11.4635 37.7771C11.6476 38.0362 11.8521 38.2798 12.0767 38.5043V38.5036C12.5928 39.021 13.2087 39.4391 13.8933 39.7292C14.5624 40.0118 15.2985 40.1708 16.0648 40.1774C16.081 40.1782 16.0957 40.179 16.1192 40.179H16.12C16.1207 40.179 16.1207 40.179 16.1207 40.179C16.1377 40.179 16.1457 40.1782 16.1457 40.1782C16.923 40.1753 17.6686 40.0155 18.3465 39.7292C19.0311 39.4391 19.6472 39.0211 20.1631 38.5043C20.2809 38.3866 20.3928 38.2629 20.4995 38.1348C20.607 38.2629 20.7189 38.3866 20.8366 38.5043C21.3526 39.021 21.9687 39.4391 22.6532 39.7292C23.3216 40.0118 24.0576 40.1708 24.8246 40.1774C24.8408 40.1782 24.8555 40.179 24.8784 40.179C24.8784 40.179 24.8784 40.179 24.879 40.179C24.8798 40.179 24.8798 40.179 24.8798 40.179C24.8805 40.179 24.8805 40.179 24.8805 40.179C24.8967 40.179 24.9048 40.1782 24.9048 40.1782C25.6821 40.1753 26.4285 40.0155 27.1064 39.7292C27.7909 39.4391 28.407 39.0211 28.923 38.5036V38.5043C29.1475 38.2798 29.3521 38.0362 29.5362 37.7771C30.0433 37.9206 30.5666 37.9949 31.0922 37.9949C31.0922 37.9949 31.0929 37.9949 31.0937 37.9949C31.0967 37.9949 31.0973 37.9949 31.0995 37.9949C31.1135 37.9949 31.1216 37.9943 31.1223 37.9943C31.787 37.9906 32.4538 37.872 33.0898 37.6342C33.7346 37.3943 34.3477 37.0314 34.8895 36.5493C35.5225 35.9862 36.0031 35.3097 36.3241 34.5796C36.6421 33.8538 36.804 33.0758 36.8062 32.2955H36.8069C36.8069 32.2837 36.8069 32.2785 36.8069 32.2785V32.2756C36.8069 31.8111 36.7488 31.3467 36.6355 30.891C36.9387 30.8174 37.2324 30.7209 37.5144 30.6017C38.1967 30.3117 38.8099 29.8944 39.3251 29.3799H39.3244C39.841 28.8632 40.2599 28.2478 40.55 27.5625C40.8395 26.8772 41 26.1228 41 25.3359ZM19.8917 19.9839C19.4721 19.8404 19.0364 19.7675 18.5917 19.7675C18.1789 19.7675 17.7696 19.8301 17.3729 19.9538L17.3574 19.9597C16.8134 20.1489 16.2834 20.2438 15.7815 20.2438C14.8953 20.2438 14.126 19.9502 13.5571 19.3966C13.0425 18.8954 12.7481 18.2094 12.7481 17.5138C12.7489 16.894 12.9763 16.2933 13.4055 15.7781C13.6204 15.5205 13.5858 15.1363 13.3289 14.9214C13.22 14.8301 13.0816 14.78 12.9388 14.78C12.7585 14.78 12.5877 14.8595 12.4722 14.9979C11.856 15.7347 11.5308 16.6048 11.5315 17.5131C11.5315 18.5347 11.9598 19.5387 12.707 20.2675C13.4946 21.0374 14.5854 21.4614 15.7831 21.4614C16.416 21.4614 17.0771 21.3436 17.7395 21.1147C18.0163 21.0279 18.3027 20.9845 18.5919 20.9845C19.0432 20.9845 19.49 21.0942 19.8919 21.3032V26.5521H16.6679C16.3322 26.5521 16.0599 26.8252 16.0599 27.1609C16.0599 27.4958 16.3322 27.7689 16.6679 27.7689H19.8919V34.4605C19.8919 34.9625 19.794 35.4498 19.6085 35.9002C19.6063 35.9047 19.604 35.9076 19.6018 35.9121C19.459 36.2558 19.2662 36.573 19.0336 36.8556C19.0284 36.863 19.0226 36.8689 19.0174 36.8748C18.9836 36.9153 18.9498 36.955 18.9152 36.9933C18.8842 37.0279 18.8518 37.0603 18.8194 37.0934C18.8091 37.1044 18.7988 37.1162 18.7878 37.1273L18.787 37.128C18.7797 37.1354 18.7722 37.1413 18.7649 37.1486C18.7288 37.1847 18.6913 37.2208 18.6537 37.2547C18.6324 37.2738 18.611 37.2921 18.5897 37.3106C18.5654 37.3319 18.5411 37.3533 18.5161 37.3738C18.4793 37.404 18.4418 37.4327 18.4035 37.4622C18.3939 37.4695 18.3844 37.4769 18.3748 37.4843C18.1333 37.6653 17.8691 37.8169 17.5887 37.9362C17.4768 37.9833 17.3627 38.0245 17.2464 38.0613C17.2442 38.0621 17.2435 38.0621 17.2419 38.0628C17.1912 38.0783 17.1404 38.093 17.0888 38.1062C17.0785 38.1091 17.069 38.1121 17.0594 38.1142C17.0153 38.1261 16.9711 38.1349 16.9269 38.1451C16.9092 38.1488 16.8923 38.1533 16.8746 38.157C16.8371 38.1643 16.7988 38.1703 16.7606 38.1776C16.7362 38.1813 16.7127 38.1864 16.6877 38.1893C16.6539 38.1953 16.6193 38.1982 16.5854 38.2026C16.5574 38.2063 16.5287 38.21 16.5007 38.213C16.4655 38.2166 16.4309 38.2188 16.3955 38.2211C16.3676 38.2233 16.3396 38.2263 16.3116 38.2277C16.2563 38.2306 16.2004 38.2314 16.1445 38.2314C16.1363 38.2314 16.1283 38.2321 16.1202 38.2321C16.1113 38.2321 16.1018 38.2314 16.0922 38.2314C16.0377 38.2314 15.9833 38.2306 15.9295 38.2277C15.9002 38.2263 15.8714 38.2233 15.8419 38.2211C15.8089 38.2188 15.7743 38.2166 15.7403 38.213C15.7109 38.21 15.6822 38.2056 15.6527 38.2026C15.6196 38.1983 15.5858 38.1946 15.5526 38.1893C15.5276 38.1864 15.5026 38.1813 15.4776 38.1768C15.44 38.1703 15.4033 38.1644 15.3664 38.157C15.348 38.1533 15.3296 38.1482 15.3112 38.1445C15.2678 38.1349 15.2243 38.1254 15.1816 38.1142C15.1714 38.1113 15.1603 38.1084 15.15 38.1054C15.0992 38.0921 15.0492 38.0782 14.9998 38.0627C14.997 38.062 14.994 38.0612 14.9918 38.0605C14.8763 38.0245 14.7629 37.9832 14.6525 37.9361C14.3712 37.8169 14.1078 37.6652 13.8656 37.4842C13.8554 37.4768 13.8457 37.468 13.8354 37.4606C13.7979 37.4319 13.7611 37.4039 13.725 37.3737C13.6978 37.3509 13.6713 37.3274 13.644 37.3046C13.6256 37.2884 13.6058 37.2721 13.5873 37.2552C13.5424 37.214 13.4976 37.1713 13.4534 37.1278C13.4526 37.1264 13.4518 37.1257 13.4511 37.1249C13.3879 37.0616 13.3268 36.9955 13.2679 36.9269C13.2583 36.9151 13.248 36.9042 13.2384 36.8923C13.0493 36.6671 12.8844 36.4198 12.7504 36.1534C12.7482 36.1489 12.7445 36.1437 12.7416 36.1385C12.4855 35.6233 12.3485 35.0521 12.3485 34.4603C12.3485 34.0098 12.4493 33.5204 12.6334 33.0824C12.8366 32.5988 13.1369 32.1814 13.502 31.8767C13.6271 31.7729 13.7037 31.6265 13.7183 31.4645C13.7332 31.3025 13.6838 31.145 13.58 31.0199C13.4644 30.8816 13.2937 30.8021 13.1126 30.8021C12.9706 30.8021 12.8321 30.8522 12.7232 30.9428C12.2087 31.3718 11.7898 31.9497 11.5109 32.6129C11.2636 33.2039 11.1326 33.8428 11.1318 34.4604C11.1318 34.9065 11.1915 35.3481 11.3085 35.7772C11.2436 35.803 11.1774 35.828 11.1104 35.8501C11.0935 35.8559 11.0751 35.862 11.0581 35.8671C11.0163 35.8804 10.975 35.8929 10.9331 35.9046C10.9066 35.912 10.8801 35.9194 10.8529 35.9267C10.8198 35.9348 10.7866 35.9429 10.7528 35.9503C10.7218 35.9584 10.6909 35.965 10.6601 35.9709C10.6299 35.9776 10.5997 35.9827 10.5688 35.9886C10.5364 35.9945 10.5041 35.9996 10.4709 36.0047C10.4399 36.0092 10.409 36.0135 10.3781 36.0172C10.3472 36.0209 10.3156 36.0252 10.2847 36.029C10.2471 36.0319 10.2103 36.0348 10.1735 36.0372C10.1477 36.0393 10.1228 36.0415 10.097 36.043C10.0344 36.046 9.97109 36.0481 9.90783 36.0481C8.98485 36.0481 8.09486 35.7088 7.40442 35.095C6.6006 34.3795 6.14055 33.3519 6.13983 32.2757C6.13983 32.219 6.14063 32.1631 6.14351 32.1072C6.15753 31.7849 6.21422 31.4639 6.31136 31.1518C6.31568 31.1378 6.31937 31.1231 6.32465 31.1084C6.32609 31.1017 6.32905 31.0951 6.33122 31.0892C6.34675 31.0421 6.36293 30.9942 6.38063 30.9472C6.38135 30.9449 6.38207 30.9436 6.38351 30.9412C6.40777 30.8765 6.43428 30.8125 6.46303 30.7477C6.46599 30.7418 6.46895 30.7359 6.47111 30.7301C6.50122 30.6638 6.53293 30.5983 6.56753 30.532C6.56833 30.5305 6.56905 30.5298 6.56905 30.5298C6.71111 30.2574 6.88632 30.0028 7.09308 29.7702C7.3161 29.5192 7.29328 29.1343 7.04231 28.9113C6.93116 28.8118 6.78766 28.7574 6.63888 28.7574C6.46519 28.7574 6.29887 28.8325 6.18403 28.9621C6.148 29.0018 6.1134 29.0431 6.07881 29.0843C6.02356 29.0939 5.98896 29.099 5.96029 29.1019C5.91241 29.1064 5.85131 29.1078 5.71878 29.1078C5.71582 29.1078 5.71293 29.1078 5.70997 29.1078C5.70933 29.1078 5.70853 29.1078 5.70781 29.1078C5.64303 29.1078 5.57896 29.1056 5.5149 29.1027C5.5113 29.1019 5.50681 29.1019 5.50313 29.1012C5.44355 29.0982 5.38461 29.0938 5.32648 29.0873C5.31767 29.0873 5.30806 29.085 5.29925 29.0843C5.24552 29.0785 5.19251 29.0718 5.13949 29.0636C5.12988 29.0622 5.12108 29.0607 5.11227 29.0592C5.05854 29.0503 5.00552 29.0415 4.95323 29.0306C4.94739 29.029 4.94218 29.0276 4.93634 29.0261C4.87964 29.0143 4.82439 29.0018 4.76921 28.9878C4.76841 28.9872 4.76769 28.9872 4.76697 28.9872C4.58808 28.9407 4.41439 28.8811 4.24582 28.8097C3.96619 28.6912 3.70337 28.5388 3.46266 28.3592C3.45233 28.3519 3.4428 28.3437 3.43247 28.3356C3.39491 28.307 3.35816 28.279 3.32276 28.2488C3.29634 28.2275 3.27055 28.2046 3.24477 28.1818C3.22491 28.1656 3.20505 28.148 3.18591 28.131C3.14026 28.0892 3.09542 28.0471 3.05194 28.0037C3.00773 27.9595 2.96505 27.9139 2.92317 27.8682C2.91428 27.8579 2.90547 27.8476 2.89587 27.8373C2.86495 27.8019 2.83404 27.7666 2.80458 27.7313C2.77959 27.7004 2.75605 27.6695 2.73179 27.6386C2.71929 27.6224 2.706 27.6062 2.69423 27.59C2.66028 27.5451 2.62864 27.5002 2.59701 27.4538C2.59477 27.4501 2.59269 27.4472 2.59045 27.4442C2.45496 27.2433 2.33796 27.0291 2.24299 26.8046C2.1738 26.6398 2.11566 26.4697 2.07002 26.2945C2.06858 26.2886 2.06634 26.2827 2.06489 26.2768C2.0524 26.2282 2.04207 26.1796 2.03102 26.1296C2.02814 26.1178 2.0251 26.1053 2.02285 26.092C2.01405 26.0486 2.00668 26.0044 1.99931 25.9602C1.99635 25.9418 1.99194 25.9242 1.9897 25.9058C1.98378 25.8645 1.97865 25.8233 1.97353 25.7821C1.97136 25.76 1.9684 25.7394 1.96616 25.7174C1.96183 25.6747 1.95887 25.632 1.95655 25.5893C1.95511 25.5687 1.95222 25.5481 1.95142 25.5275C1.94854 25.4649 1.94702 25.4008 1.94702 25.3361C1.94702 25.247 1.9499 25.158 1.95655 25.0704C1.96023 25.0108 1.9676 24.9519 1.97497 24.8929C1.97801 24.865 1.98017 24.8378 1.98386 24.8104C1.99411 24.7332 2.00812 24.6566 2.02357 24.5809C2.02582 24.572 2.02654 24.5632 2.02806 24.5544C2.04568 24.4734 2.06554 24.3924 2.08836 24.3136C2.08916 24.31 2.08988 24.3055 2.0906 24.3026C2.11334 24.2238 2.13833 24.1466 2.16563 24.0692C2.16779 24.0641 2.1686 24.0596 2.17076 24.0545C2.19654 23.9816 2.22601 23.911 2.25612 23.8403C2.26061 23.8307 2.26349 23.8212 2.26789 23.8124C2.29736 23.7446 2.33043 23.6784 2.36439 23.6129C2.37031 23.601 2.37544 23.5885 2.38128 23.5768C2.4218 23.5003 2.4652 23.4252 2.51085 23.3516C2.55577 23.2794 2.60294 23.2087 2.65147 23.1403C2.89442 22.8033 3.19103 22.5081 3.52888 22.2666C3.53553 22.2615 3.54137 22.2564 3.54802 22.252C3.55979 22.2439 3.57229 22.2365 3.58406 22.2284C3.7121 22.1408 3.84463 22.0598 3.98301 21.9884L3.98453 21.9869C3.98885 21.9847 3.99334 21.9825 3.99702 21.981C4.04339 21.9567 4.09047 21.9346 4.13684 21.9133C4.16262 21.9015 4.18761 21.8898 4.21419 21.878C4.21635 21.878 4.21852 21.8757 4.22076 21.875C4.69338 21.6696 5.19531 21.5644 5.7187 21.5644C6.57329 21.5644 7.37784 21.8434 8.04689 22.3711C8.20072 22.5397 8.69464 23.0579 9.43216 23.5797C9.94666 23.9434 10.4753 24.2348 11.0044 24.4447C11.6801 24.7133 12.3574 24.8495 13.0184 24.8495C13.3533 24.8495 13.6264 24.5765 13.6264 24.2408C13.6264 23.9051 13.3533 23.6327 13.0184 23.6327C12.5127 23.6327 11.9864 23.5254 11.4528 23.314C10.6813 23.0078 10.0314 22.5345 9.62219 22.1915C9.38964 21.9958 9.2085 21.822 9.09808 21.7109C9.03922 21.6506 8.99357 21.6027 8.96338 21.5695L8.92519 21.5268L8.90381 21.5026C8.8942 21.4915 8.88395 21.4812 8.8721 21.4723L8.84711 21.451C7.96529 20.74 6.85533 20.3476 5.71878 20.3476C5.37292 20.3476 5.02546 20.3845 4.68465 20.4573C4.6081 20.3911 4.53667 20.3211 4.46676 20.2498C4.44097 20.2247 4.41599 20.199 4.39092 20.1724C4.36962 20.1489 4.34904 20.1253 4.32758 20.1018C4.30916 20.0805 4.28938 20.0584 4.27089 20.0363C4.23117 19.9898 4.19289 19.942 4.15605 19.8934C4.14869 19.8846 4.14276 19.8758 4.1362 19.8669C4.10448 19.825 4.07365 19.7823 4.04427 19.7389C4.03842 19.7308 4.03322 19.7227 4.02729 19.7139C3.99718 19.669 3.96771 19.6241 3.93896 19.577C3.93528 19.5711 3.9316 19.5653 3.92863 19.5593C3.89852 19.51 3.86905 19.4599 3.84183 19.4092C3.83967 19.4055 3.83814 19.4025 3.83598 19.3989C3.80723 19.3445 3.77929 19.2899 3.75206 19.2348C3.75206 19.2348 3.75206 19.2332 3.75126 19.2326C3.5871 18.8888 3.47451 18.52 3.41998 18.1387C3.41934 18.1351 3.41853 18.1314 3.41853 18.1314C3.41037 18.074 3.40524 18.018 3.3994 17.9629C3.3986 17.9533 3.39723 17.9438 3.39643 17.9341C3.39195 17.8804 3.38907 17.8267 3.3861 17.7722C3.3861 17.7619 3.38466 17.7516 3.38466 17.7412V17.7405C3.38314 17.6956 3.38242 17.6507 3.38242 17.6057C3.38242 17.5432 3.38394 17.4814 3.3869 17.4196C3.3877 17.3989 3.38987 17.3776 3.39139 17.357C3.39435 17.3165 3.39651 17.276 3.4002 17.2363C3.40244 17.2113 3.40684 17.1877 3.40901 17.1627C3.41349 17.1258 3.41781 17.0898 3.42294 17.0537C3.42598 17.0301 3.43031 17.0066 3.43399 16.9845C3.44064 16.947 3.44648 16.9095 3.45385 16.8726C3.45745 16.8528 3.46266 16.8329 3.46706 16.8138C3.47523 16.7732 3.48404 16.7334 3.49357 16.6937C3.49725 16.6791 3.50166 16.6651 3.50534 16.6503C3.51711 16.6061 3.52896 16.5613 3.54218 16.5171C3.54514 16.509 3.5481 16.4995 3.55098 16.4907C3.56644 16.4412 3.58189 16.3927 3.59951 16.3441C3.60023 16.3404 3.60247 16.3368 3.6032 16.3331C3.62233 16.2801 3.64227 16.2271 3.66429 16.1748L3.66502 16.1734C3.70994 16.063 3.76071 15.9562 3.81588 15.851C3.81588 15.851 3.81588 15.851 3.81668 15.8502C3.84391 15.798 3.87258 15.7471 3.90205 15.6971C3.90421 15.6927 3.90645 15.689 3.90869 15.6853C3.93664 15.6389 3.96539 15.5925 3.99478 15.5469C4.00142 15.5374 4.00879 15.5271 4.01544 15.5168C4.04122 15.4785 4.06693 15.4403 4.09423 15.4027C4.10969 15.3806 4.12731 15.3593 4.14356 15.3379C4.1627 15.3129 4.18112 15.2872 4.20098 15.2621C4.23333 15.2216 4.26648 15.1819 4.30036 15.1429C4.30548 15.137 4.30996 15.131 4.31437 15.1259C4.35481 15.0802 4.39605 15.0354 4.43801 14.9912C4.43953 14.9904 4.44025 14.989 4.44089 14.9882C4.49615 14.9315 4.55284 14.8771 4.61098 14.8241C4.62643 14.8101 4.64189 14.7961 4.65806 14.7822C4.7817 14.6732 4.91199 14.5709 5.04973 14.4781C5.05854 14.473 5.06734 14.4671 5.07615 14.4612C5.22262 14.3641 5.37645 14.2772 5.53692 14.2007C5.53844 14.1999 5.53989 14.1991 5.54061 14.1991C5.78869 14.0814 6.05215 13.9901 6.32673 13.929C6.32897 13.9282 6.33106 13.9275 6.33338 13.9268C6.55712 13.8775 6.7875 13.8473 7.02085 13.8392C7.06353 13.8369 7.10549 13.8369 7.15554 13.8369H7.15626C7.35061 13.8369 7.54568 13.8517 7.73627 13.8811C7.7679 13.8856 7.79881 13.8885 7.82972 13.8885C8.13225 13.8885 8.38402 13.6713 8.43111 13.3725C8.48188 13.0413 8.25365 12.7299 7.92245 12.6784C7.66924 12.6395 7.41235 12.6195 7.15618 12.6195C7.11422 12.6195 7.07154 12.6203 7.02958 12.6218C7.00235 12.5754 6.97737 12.5275 6.95302 12.4804C6.9258 12.4297 6.90001 12.3789 6.87575 12.3273C6.86694 12.3082 6.85813 12.2898 6.84996 12.2699C6.8249 12.2147 6.80063 12.1602 6.77853 12.1043C6.77189 12.0874 6.76524 12.0697 6.75939 12.0528C6.73729 11.9954 6.71671 11.938 6.69757 11.879C6.69165 11.8621 6.68652 11.8437 6.6814 11.8268C6.66378 11.7687 6.6468 11.7112 6.63207 11.6531C6.62614 11.6318 6.62174 11.6118 6.61662 11.5905C6.60412 11.5353 6.59083 11.4801 6.5805 11.4242C6.57457 11.3962 6.57089 11.3689 6.56577 11.3417C6.5576 11.2917 6.54959 11.2423 6.54294 11.1923C6.53782 11.1518 6.53413 11.1112 6.53045 11.07C6.52677 11.0324 6.52236 10.9949 6.52012 10.9567C6.515 10.8779 6.51203 10.7985 6.51203 10.7182V10.7167C6.51203 9.84737 6.81153 9.00975 7.35782 8.33918C7.36374 8.33109 7.37031 8.32372 7.37688 8.31636C7.40707 8.2796 7.43798 8.24277 7.47041 8.20665C7.49027 8.18455 7.51093 8.16397 7.53071 8.14267C7.55649 8.11472 7.58228 8.08669 7.60878 8.06019C8.31395 7.35062 9.27817 6.94726 10.2852 6.94646C10.2867 6.94646 10.2896 6.94646 10.2917 6.94646C10.3566 6.94726 10.4206 6.9487 10.4853 6.95239C10.5059 6.95383 10.5266 6.95535 10.5464 6.95671C10.5957 6.96039 10.6458 6.96488 10.6952 6.97C10.7135 6.97217 10.7319 6.97441 10.751 6.97665C10.8158 6.98466 10.8814 6.99427 10.9461 7.00532C10.9468 7.00596 10.9483 7.00596 10.9498 7.00596C11.019 7.01845 11.0882 7.03327 11.1574 7.05016C11.7507 7.1915 12.3042 7.4757 12.7708 7.88346C12.9003 8.03064 13.4612 8.65413 14.1878 9.29827C14.6772 9.73102 15.1432 10.0866 15.573 10.3545C15.8432 10.5223 16.0934 10.6534 16.337 10.755C16.6255 10.8749 16.8906 10.9471 17.1474 10.975C17.1702 10.978 17.1923 10.9794 17.2151 10.9794C17.5257 10.9794 17.7848 10.7468 17.8194 10.4377C17.8371 10.2765 17.7914 10.1176 17.6899 9.99087C17.5883 9.86355 17.4433 9.78403 17.2813 9.76641C17.1451 9.75168 16.9803 9.70451 16.8036 9.63092C16.4988 9.50504 16.1345 9.28787 15.7495 9.00311C15.1769 8.57981 14.638 8.07116 14.287 7.71865C14.0876 7.51838 13.9256 7.34613 13.8255 7.23722C13.771 7.17765 13.7284 7.13048 13.6996 7.09885L13.668 7.06209L13.4854 7.22401L13.6592 7.05256L13.6437 7.03487L13.6231 7.01357L13.6046 6.99739C13.233 6.66547 12.8171 6.39232 12.3659 6.18556C12.3968 5.85059 12.4718 5.52828 12.5845 5.2243C12.5882 5.21469 12.5919 5.20588 12.5956 5.19635C12.611 5.15511 12.6272 5.11467 12.6441 5.07415C12.6507 5.0587 12.6581 5.04324 12.6648 5.02771C12.6795 4.99384 12.6941 4.95996 12.7096 4.92761C12.7192 4.90703 12.7295 4.88789 12.7391 4.86795C12.7531 4.83929 12.767 4.81126 12.7817 4.78267C12.7936 4.76057 12.8067 4.73847 12.8193 4.71564C12.8326 4.69138 12.8458 4.66632 12.8605 4.64197C12.8746 4.61691 12.89 4.59345 12.9047 4.5691C12.918 4.5478 12.9305 4.5257 12.9445 4.5044C12.9614 4.47797 12.9791 4.45219 12.9968 4.4256C13.0093 4.40718 13.0217 4.38877 13.035 4.37043C13.0549 4.34176 13.0763 4.31301 13.0976 4.28426C13.1086 4.26953 13.1189 4.25487 13.13 4.24006C13.1557 4.20771 13.1815 4.17528 13.2073 4.14445C13.2161 4.13412 13.2235 4.12379 13.2315 4.11354C13.2632 4.0767 13.2949 4.04139 13.3265 4.00527C13.331 4.00079 13.3353 3.99566 13.3398 3.99126C13.3766 3.95074 13.4141 3.91102 13.4532 3.87202C13.4974 3.82862 13.5423 3.78594 13.5879 3.74398C13.6012 3.73221 13.6151 3.72115 13.6284 3.70938C13.66 3.68071 13.6924 3.65269 13.7256 3.62474C13.7565 3.59968 13.7889 3.57469 13.8212 3.55043C13.836 3.53866 13.8514 3.52616 13.8669 3.51431C13.911 3.48124 13.9567 3.44961 14.0023 3.4179C14.006 3.41566 14.0089 3.41277 14.0126 3.41125C14.2128 3.27576 14.427 3.15885 14.6523 3.06387C14.7605 3.01823 14.8723 2.97699 14.9857 2.94167C14.9909 2.93943 14.9953 2.93799 14.9997 2.93647C15.0483 2.92173 15.0976 2.9078 15.1462 2.89459C15.158 2.89162 15.1698 2.88866 15.1823 2.88498C15.2242 2.87393 15.2669 2.86512 15.3097 2.85551C15.3287 2.85183 15.3471 2.8467 15.3664 2.84302C15.4031 2.83565 15.4399 2.82972 15.4775 2.82316C15.5025 2.81883 15.5275 2.81355 15.5525 2.80995C15.5857 2.80474 15.6196 2.80178 15.6526 2.79745C15.6821 2.79377 15.7108 2.78929 15.7402 2.7864C15.7742 2.78344 15.8094 2.78128 15.8434 2.77904C15.872 2.77687 15.9001 2.77391 15.9295 2.77247C15.9847 2.76959 16.0399 2.76879 16.0959 2.76806C16.104 2.76806 16.112 2.76806 16.1202 2.76806C16.1297 2.76806 16.1386 2.76806 16.1482 2.76879C16.2026 2.76879 16.2571 2.76959 16.3116 2.77247C16.341 2.77391 16.3705 2.77687 16.3992 2.77904C16.4331 2.78128 16.4669 2.78352 16.5001 2.7864C16.5302 2.79009 16.5597 2.79377 16.5899 2.79745C16.6223 2.80178 16.6554 2.80474 16.6878 2.80995C16.7136 2.81355 16.7393 2.81875 16.7644 2.82388C16.8012 2.82972 16.838 2.83565 16.8741 2.84302C16.8931 2.8467 16.9123 2.85183 16.9322 2.85631C16.9742 2.86512 17.0168 2.87473 17.0588 2.88506C17.0706 2.88874 17.0823 2.89171 17.0941 2.89467C17.1434 2.90788 17.192 2.92189 17.2399 2.93655C17.245 2.93807 17.2494 2.93951 17.2545 2.94175C17.3679 2.97699 17.4791 3.01823 17.5888 3.06395C17.8132 3.15957 18.0274 3.27592 18.2284 3.41133C18.2307 3.41285 18.2329 3.41422 18.2358 3.41654C18.2822 3.44809 18.3285 3.48052 18.3742 3.51511C18.3889 3.52544 18.4028 3.53721 18.4176 3.54827C18.45 3.57397 18.4831 3.59904 18.5155 3.62554C18.5472 3.65133 18.5773 3.67855 18.6082 3.70578C18.623 3.71907 18.6377 3.73076 18.6532 3.74406C18.6981 3.78602 18.7436 3.8287 18.787 3.8721C18.8313 3.9163 18.874 3.96195 18.9159 4.00759C18.9336 4.02673 18.9505 4.04739 18.9675 4.06717C18.9903 4.09296 19.0131 4.11874 19.0345 4.14453C19.2671 4.4272 19.4591 4.74511 19.602 5.08809C19.6042 5.09177 19.6065 5.09545 19.6079 5.09994C19.7942 5.55038 19.892 6.03765 19.892 6.53966V19.9839H19.8917ZM39.0487 25.5273C39.0472 25.548 39.0451 25.5686 39.0435 25.5884C39.0414 25.6318 39.0384 25.6745 39.034 25.7173C39.0318 25.7386 39.0289 25.7591 39.0266 25.7805C39.0214 25.8217 39.017 25.8644 39.0105 25.9056C39.0083 25.9232 39.0046 25.9409 39.0017 25.9586C38.9943 26.0028 38.9862 26.0484 38.9773 26.0925C38.9751 26.1043 38.9722 26.1161 38.9692 26.1279C38.9589 26.1779 38.9479 26.228 38.9346 26.2773C38.9339 26.2818 38.9325 26.2869 38.9309 26.2913C38.8853 26.468 38.8272 26.6387 38.7573 26.8043C38.638 27.0847 38.4856 27.349 38.3052 27.5904C38.2972 27.6015 38.2876 27.6133 38.2788 27.625C38.2516 27.6604 38.2235 27.6965 38.1949 27.7311C38.1713 27.7605 38.1463 27.7885 38.1212 27.8172C38.1065 27.8342 38.0917 27.8518 38.0763 27.8688C38.035 27.9144 37.9923 27.9593 37.9489 28.0027L37.9481 28.0035C37.9415 28.0093 37.9348 28.0153 37.9283 28.0219C37.8915 28.0587 37.8532 28.0955 37.815 28.1301C37.7951 28.1478 37.7745 28.1654 37.7546 28.1824C37.7296 28.2051 37.7038 28.2272 37.6772 28.2493C37.642 28.278 37.6058 28.306 37.5699 28.334C37.5588 28.3421 37.5478 28.3509 37.5367 28.3598C37.4896 28.3943 37.4417 28.4289 37.3932 28.4621C37.3924 28.4621 37.3924 28.4628 37.3917 28.4628C37.1922 28.5976 36.9788 28.7146 36.7543 28.8103C36.5871 28.8809 36.4142 28.9398 36.2354 28.9862C36.2338 28.9869 36.2323 28.9869 36.2309 28.9876C36.1757 29.0017 36.1205 29.0142 36.0653 29.0259C36.0594 29.0274 36.0529 29.0289 36.0469 29.0304C35.9946 29.0414 35.9409 29.0503 35.8879 29.0591C35.8791 29.0605 35.8703 29.062 35.8615 29.0635C35.8085 29.0716 35.7547 29.0782 35.701 29.0841C35.6921 29.0849 35.6833 29.0871 35.6737 29.0871C35.6155 29.0937 35.5567 29.0982 35.4978 29.101C35.4933 29.1018 35.4889 29.1018 35.4853 29.1026C35.4213 29.1054 35.3572 29.1077 35.2924 29.1077C35.2916 29.1077 35.2916 29.1077 35.2909 29.1077C35.2872 29.1077 35.2843 29.1077 35.2813 29.1077C35.2158 29.1077 35.1673 29.1077 35.1319 29.1062C35.0862 29.1054 35.0657 29.1033 35.0324 29.0981C35.0037 29.0937 34.9669 29.087 34.9154 29.0775C34.883 29.0384 34.8499 29.0001 34.816 28.9619C34.7011 28.8324 34.5348 28.7573 34.3611 28.7573C34.2125 28.7573 34.0689 28.8117 33.9578 28.9111C33.7068 29.1341 33.684 29.519 33.907 29.77C34.1138 30.0026 34.2883 30.2566 34.4303 30.5275C34.4311 30.529 34.4318 30.5304 34.4325 30.532C34.4671 30.5982 34.4988 30.6644 34.529 30.7306C34.5319 30.7358 34.5341 30.7417 34.5363 30.7468C34.5658 30.8123 34.593 30.8785 34.618 30.944C34.6188 30.9448 34.6188 30.9463 34.6195 30.947C34.6239 30.9603 34.6283 30.9728 34.6328 30.9861C34.6476 31.0265 34.6629 31.0678 34.6762 31.109V31.1098C34.7991 31.4881 34.8602 31.8827 34.8602 32.2757C34.8596 33.2841 34.4547 34.2499 33.7436 34.9557C33.6958 35.0028 33.6465 35.0492 33.5957 35.0949C33.5523 35.1332 33.5081 35.1707 33.4631 35.2075C32.7933 35.7499 31.9578 36.0481 31.0923 36.0481C31.0289 36.0481 30.9664 36.0459 30.9031 36.0429C30.878 36.0414 30.8531 36.0392 30.828 36.0377C30.7904 36.0348 30.7529 36.0326 30.7146 36.0289C30.6844 36.0252 30.6549 36.0208 30.6248 36.0179C30.5924 36.0134 30.5593 36.0091 30.5269 36.0046C30.496 35.9994 30.4651 35.9942 30.4342 35.9884C30.4017 35.9825 30.3693 35.9766 30.3377 35.9708C30.3083 35.9641 30.2788 35.9583 30.2501 35.9516C30.214 35.9428 30.1779 35.9347 30.1419 35.9251C30.1175 35.9184 30.0933 35.9119 30.0697 35.9053C30.0241 35.8928 29.9784 35.8787 29.9335 35.8648C29.9195 35.8595 29.9056 35.8559 29.8916 35.8507C29.8246 35.8286 29.7577 35.8037 29.6914 35.7771C29.8084 35.348 29.868 34.9064 29.868 34.4603C29.8672 33.976 29.7841 33.4651 29.6266 32.9829C29.3572 32.1607 28.8905 31.4549 28.2766 30.9425C27.9262 30.6503 27.5309 30.4236 27.1011 30.269C26.6418 30.1042 26.1397 30.0203 25.6098 30.0203C25.2741 30.0203 25.001 30.2926 25.001 30.6282C25.001 30.9638 25.2741 31.2362 25.609 31.2362C26.1191 31.2369 26.5813 31.3393 26.9847 31.5409C27.5073 31.8029 27.9409 32.2417 28.239 32.8115C28.5018 33.3119 28.6519 33.9126 28.6512 34.4603C28.6512 35.052 28.5143 35.6232 28.2581 36.1385C28.2552 36.1429 28.2522 36.1488 28.2493 36.1533C28.1154 36.4197 27.9505 36.6678 27.7613 36.893C27.7517 36.904 27.7422 36.9151 27.7319 36.9261C27.673 36.9953 27.6111 37.063 27.5471 37.127C27.5463 37.127 27.5463 37.127 27.5463 37.127V37.1277C27.5389 37.135 27.5316 37.141 27.5242 37.1483C27.4874 37.1844 27.4506 37.2205 27.4123 37.2544C27.3917 37.2735 27.3696 37.2918 27.3483 37.3102C27.324 37.3315 27.3004 37.353 27.2754 37.3735C27.2379 37.4037 27.2003 37.4324 27.1628 37.4618C27.1532 37.4692 27.1437 37.4766 27.1342 37.4839C26.892 37.665 26.6285 37.8166 26.3473 37.9359C26.2354 37.983 26.1213 38.0242 26.0051 38.061C26.0035 38.0618 26.0021 38.0618 26.0006 38.0625C25.9505 38.078 25.899 38.0927 25.8475 38.1059C25.8378 38.1088 25.8283 38.1117 25.8187 38.1139C25.7745 38.1258 25.7304 38.1346 25.6862 38.1448C25.6686 38.1485 25.6509 38.153 25.634 38.1567C25.5957 38.164 25.5574 38.17 25.5199 38.1772C25.4956 38.1809 25.4713 38.1861 25.4471 38.189C25.4131 38.195 25.3793 38.1979 25.3447 38.2023C25.3161 38.206 25.288 38.2097 25.2594 38.2126C25.2248 38.2163 25.1902 38.2185 25.1549 38.2207C25.1269 38.223 25.0989 38.2259 25.0703 38.2274C25.015 38.2303 24.9599 38.2311 24.9039 38.2311C24.8959 38.2311 24.8878 38.2318 24.8796 38.2318C24.87 38.2318 24.8612 38.2311 24.8517 38.2311C24.7972 38.2311 24.742 38.2303 24.6882 38.2274C24.6596 38.2259 24.6301 38.223 24.6014 38.2207C24.5676 38.2185 24.5337 38.2163 24.4998 38.2126C24.4704 38.2097 24.441 38.2053 24.4122 38.2023C24.3783 38.198 24.3452 38.1943 24.3121 38.189C24.2871 38.1861 24.2621 38.1809 24.237 38.1765C24.1995 38.17 24.1626 38.164 24.1251 38.1567C24.1066 38.153 24.089 38.1479 24.0706 38.1442C24.0272 38.1346 23.9837 38.125 23.941 38.1139C23.93 38.111 23.9197 38.1081 23.9094 38.1051C23.8586 38.0918 23.8078 38.0779 23.7585 38.0624C23.7563 38.0617 23.7534 38.0609 23.7512 38.0602C23.6349 38.0241 23.5222 37.9829 23.4111 37.9358C23.1306 37.8166 22.8664 37.6649 22.625 37.4839C22.6146 37.4765 22.6044 37.4677 22.594 37.4602C22.5573 37.4316 22.5197 37.4035 22.4836 37.3734C22.4564 37.3506 22.4299 37.3271 22.4034 37.3042C22.385 37.2881 22.3651 37.2718 22.3467 37.2549C22.301 37.2137 22.2561 37.171 22.2126 37.1275C22.1684 37.0833 22.1258 37.0385 22.0838 36.9922C22.0595 36.9657 22.036 36.9369 22.0124 36.9097C21.997 36.8913 21.9807 36.8729 21.9654 36.8552C21.7327 36.5725 21.5406 36.2545 21.3978 35.9116C21.3957 35.9071 21.3934 35.9042 21.3912 35.8997C21.2057 35.4493 21.1078 34.962 21.1078 34.46V19.3856C21.8858 19.4149 22.5652 19.5048 23.1283 19.652C23.6678 19.7918 24.1043 19.9817 24.4613 20.2305C24.7292 20.4174 24.9464 20.6339 25.1275 20.8937C25.388 21.2669 25.5735 21.7336 25.7281 22.4063C25.7797 22.6286 25.8239 22.8524 25.8702 23.0894C25.9136 23.3088 25.9585 23.537 26.0092 23.7614C26.1064 24.189 26.2051 24.5115 26.3287 24.8088C26.4464 25.093 26.5827 25.3403 26.7461 25.5633C27.0243 25.9468 27.3843 26.2575 27.8163 26.4871C28.2771 26.733 28.8181 26.8934 29.471 26.9773C29.4975 26.981 29.5233 26.9832 29.5498 26.9832C29.8538 26.9832 30.1129 26.755 30.1519 26.4517C30.1733 26.2913 30.1298 26.1308 30.0305 26.0027C29.9312 25.8739 29.7875 25.7922 29.6271 25.7708C29.0427 25.6957 28.5885 25.5493 28.2389 25.3254C27.9849 25.162 27.7914 24.9633 27.6309 24.6999C27.5057 24.4937 27.4012 24.2449 27.3107 23.9372C27.2136 23.6111 27.1422 23.2497 27.0671 22.867C27.0236 22.6468 26.9788 22.4187 26.9265 22.1883C26.8346 21.7821 26.6962 21.2483 26.4393 20.7286C26.2442 20.3356 25.9976 19.9866 25.7047 19.6915C25.2093 19.1902 24.5468 18.8096 23.7364 18.5595C23.0018 18.3335 22.1406 18.2046 21.108 18.1693V13.7778H24.636C24.9716 13.7778 25.2447 13.504 25.2447 13.1691C25.2447 12.8335 24.9716 12.5604 24.636 12.5604H21.108V6.53934C21.108 6.03733 21.2059 5.55006 21.3913 5.09962C21.3935 5.09513 21.3958 5.09145 21.398 5.08777C21.5408 4.74471 21.7329 4.4268 21.9655 4.14421C21.978 4.12939 21.9913 4.11474 22.0038 4.1C22.0303 4.06909 22.0568 4.03738 22.0847 4.00655C22.1171 3.97044 22.1502 3.93656 22.184 3.90197C22.1937 3.89236 22.2025 3.88211 22.2128 3.8717C22.2563 3.82766 22.3018 3.7849 22.3475 3.74366C22.3608 3.73188 22.374 3.72083 22.3873 3.70906C22.4196 3.68039 22.452 3.65237 22.4844 3.62442C22.5161 3.59936 22.5478 3.57437 22.58 3.55011C22.5955 3.53834 22.6103 3.52584 22.6257 3.51399C22.6706 3.48092 22.7154 3.44929 22.7619 3.41758C22.7655 3.41534 22.7685 3.41245 22.7714 3.41093C22.9724 3.27544 23.1865 3.15853 23.4111 3.06355C23.52 3.01791 23.6319 2.97667 23.7452 2.94135C23.7504 2.93911 23.7548 2.93767 23.76 2.93615C23.8071 2.92141 23.8564 2.90748 23.9056 2.89427C23.9175 2.8913 23.9293 2.88834 23.941 2.88466C23.9837 2.87361 24.0264 2.8648 24.0691 2.85519C24.0875 2.85151 24.1066 2.84638 24.125 2.8427C24.1625 2.83533 24.2001 2.8294 24.2369 2.82284C24.262 2.81851 24.287 2.81323 24.312 2.80963C24.3451 2.80442 24.3783 2.80146 24.4121 2.79713C24.4409 2.79345 24.4704 2.78896 24.4997 2.78608C24.5336 2.78312 24.5682 2.78096 24.6028 2.77871C24.6315 2.77655 24.6595 2.77359 24.6882 2.77215C24.7434 2.76927 24.7993 2.76846 24.8553 2.76774C24.8634 2.76774 24.8715 2.76774 24.8796 2.76774C24.8884 2.76774 24.898 2.76774 24.9075 2.76847C24.962 2.76847 25.0165 2.76927 25.0702 2.77215C25.0996 2.77359 25.1291 2.77655 25.1585 2.77871C25.1924 2.78096 25.2262 2.7832 25.2593 2.78608C25.2888 2.78977 25.3189 2.79345 25.3491 2.79713C25.3815 2.80146 25.4146 2.80442 25.4463 2.80963C25.4727 2.81323 25.4978 2.81843 25.5235 2.82356C25.5597 2.8294 25.5964 2.83533 25.6324 2.8427C25.6523 2.84638 25.6715 2.85151 25.6906 2.85599C25.7325 2.8648 25.7752 2.87441 25.8172 2.88474C25.8297 2.88842 25.8415 2.89138 25.8532 2.89435C25.9018 2.90756 25.9512 2.92157 25.999 2.93623C26.0034 2.93775 26.0086 2.93919 26.0129 2.94143C26.127 2.97667 26.2389 3.01791 26.3471 3.06363C26.5723 3.15925 26.7865 3.2756 26.9874 3.41101C26.9896 3.41253 26.9919 3.41389 26.9941 3.41622C27.0412 3.44777 27.0875 3.4802 27.1333 3.51479C27.1472 3.52512 27.1619 3.53689 27.1759 3.54795C27.2089 3.57365 27.2422 3.59871 27.2738 3.62522C27.3054 3.65101 27.3363 3.67823 27.3673 3.70546C27.382 3.71875 27.3974 3.73044 27.4115 3.74374C27.4571 3.7857 27.502 3.82838 27.5462 3.87178C27.5852 3.91086 27.6227 3.95058 27.6603 3.99102C27.661 3.99174 27.661 3.99254 27.6617 3.99326C27.6978 4.03218 27.7331 4.0727 27.767 4.11322C27.7743 4.12203 27.7809 4.13083 27.7876 4.13892C27.8155 4.17207 27.8428 4.20595 27.8693 4.23982C27.8803 4.25455 27.8899 4.26929 27.9009 4.28322C27.9222 4.31197 27.9437 4.34064 27.9642 4.37011C27.9775 4.38853 27.99 4.40766 28.0025 4.426C28.0201 4.45179 28.0379 4.47757 28.0547 4.504C28.0687 4.5253 28.082 4.5474 28.0952 4.5695C28.11 4.59304 28.1247 4.61739 28.1387 4.64165C28.1534 4.666 28.1666 4.69098 28.1806 4.71669C28.1931 4.73815 28.2056 4.76017 28.2174 4.78227C28.2322 4.81094 28.2461 4.84041 28.2609 4.86907C28.2705 4.88821 28.2801 4.90735 28.2896 4.92721C28.3051 4.96036 28.3199 4.99424 28.3345 5.02883C28.3412 5.04348 28.3485 5.0583 28.3551 5.07439C28.3721 5.11419 28.3883 5.15543 28.4044 5.19667C28.4074 5.20628 28.4111 5.21509 28.4148 5.2239C28.5274 5.52788 28.6025 5.85027 28.6334 6.18596C28.1822 6.3928 27.7663 6.66515 27.3938 6.99707C27.1435 7.22081 27.1222 7.60654 27.3452 7.85687C27.4608 7.98571 27.6257 8.06003 27.7994 8.06003C27.9488 8.06003 28.0924 8.00477 28.2042 7.90548C28.6731 7.48659 29.2332 7.1959 29.8346 7.0516C29.9724 7.01917 30.1114 6.99419 30.2506 6.97657C30.2667 6.97433 30.283 6.97289 30.2992 6.97137C30.3507 6.9648 30.4029 6.96039 30.4552 6.95743C30.4736 6.95591 30.4934 6.95447 30.5126 6.95295C30.5773 6.94998 30.6428 6.9471 30.7083 6.9471C30.7104 6.9471 30.7128 6.9471 30.7142 6.9471C31.7212 6.94782 32.6861 7.35054 33.3906 8.06003C33.4377 8.10711 33.484 8.15644 33.5298 8.20721C33.5673 8.24981 33.6041 8.29257 33.6394 8.33526C33.6725 8.3765 33.7049 8.41774 33.7358 8.4597C33.738 8.46258 33.7403 8.46482 33.7424 8.46771C33.7712 8.50678 33.7983 8.5457 33.8256 8.5855C33.83 8.59207 33.8353 8.59871 33.8396 8.60536C33.8638 8.64075 33.8859 8.67607 33.908 8.7121C33.9161 8.72388 33.9234 8.73493 33.9308 8.7475C33.9492 8.77761 33.9669 8.80852 33.9845 8.84023C33.9941 8.85793 34.0051 8.87562 34.0146 8.89332C34.0286 8.9183 34.0411 8.94409 34.0544 8.9698C34.0669 8.99342 34.0802 9.0184 34.092 9.04267C34.1015 9.06253 34.1111 9.08311 34.1206 9.10305C34.1339 9.13315 34.1486 9.16342 34.1612 9.19433C34.1685 9.21123 34.1751 9.22821 34.1825 9.2451C34.1964 9.27898 34.2104 9.31277 34.2229 9.34664C34.2288 9.36282 34.234 9.37908 34.2405 9.39525C34.253 9.43048 34.2649 9.46508 34.2766 9.50047C34.2818 9.51665 34.2863 9.5329 34.2914 9.54908C34.3024 9.58439 34.3135 9.61971 34.323 9.65582C34.3282 9.67496 34.3326 9.6941 34.3377 9.71316C34.3466 9.74559 34.3547 9.77802 34.3621 9.8111C34.368 9.8376 34.3739 9.86483 34.379 9.89205C34.3842 9.9172 34.3893 9.94218 34.3944 9.96789C34.4011 10.007 34.4069 10.0467 34.4129 10.0865C34.415 10.099 34.4173 10.1129 34.4194 10.1262C34.4415 10.2888 34.4526 10.4544 34.4526 10.6231C34.4526 10.7004 34.4496 10.7776 34.4445 10.8557C34.4438 10.8726 34.4422 10.8895 34.4414 10.9072C34.4356 10.9809 34.4282 11.0552 34.4179 11.1296C34.4157 11.1465 34.4128 11.1634 34.4105 11.1803C34.4017 11.2422 34.3914 11.3032 34.3789 11.3644C34.3753 11.3842 34.3716 11.4041 34.3679 11.4239C34.3525 11.4924 34.3355 11.5608 34.3179 11.6293C34.3112 11.6551 34.3039 11.6808 34.2966 11.7066C34.2789 11.767 34.2605 11.8266 34.2399 11.8862C34.2317 11.9112 34.2222 11.9363 34.2141 11.9614C34.1934 12.0187 34.1713 12.0747 34.1486 12.1306C34.139 12.1542 34.1295 12.1777 34.1191 12.2005C34.0905 12.2675 34.0596 12.3352 34.0271 12.4015C34.0183 12.4191 34.0087 12.4367 33.9992 12.4551C33.9668 12.5192 33.9315 12.584 33.8954 12.6472C33.8041 12.8047 33.704 12.9578 33.5922 13.105C33.5775 13.122 33.5635 13.1404 33.551 13.1588C33.4384 13.3023 33.3205 13.437 33.2006 13.5577C32.9812 13.7793 32.6714 14.0061 32.3056 14.2143C31.7579 14.5256 31.1618 14.7553 30.7575 14.8922C30.5272 14.971 30.3343 15.0284 30.2136 15.063C30.1481 15.0806 30.0966 15.0955 30.0612 15.1043L30.0142 15.116C29.6881 15.1955 29.4872 15.5253 29.5659 15.8507C29.6322 16.1253 29.8751 16.3158 30.1569 16.3158C30.2055 16.3158 30.2541 16.31 30.3012 16.2989C30.3652 16.2834 30.9504 16.1369 31.688 15.8469C32.1355 15.6703 32.5455 15.4767 32.9062 15.272C33.381 15.0026 33.7593 14.7215 34.0648 14.4138C34.1612 14.3173 34.2554 14.2143 34.3467 14.1076C34.4394 14.1091 34.5329 14.115 34.6264 14.1224C34.63 14.1239 34.6344 14.1246 34.6389 14.1246C34.6874 14.1289 34.7213 14.1319 34.7412 14.1334C34.7427 14.1342 34.7441 14.1342 34.7449 14.1342C34.7508 14.1342 34.7559 14.1356 34.7582 14.1356H34.7589H34.7596C34.7795 14.1386 34.7994 14.1416 34.8192 14.1445C34.853 14.1496 34.8876 14.1533 34.9215 14.1593C35.5545 14.2682 36.1434 14.5457 36.6285 14.9608C36.6336 14.9652 36.6381 14.9696 36.6432 14.974C36.6735 14.9998 36.7028 15.027 36.7322 15.0542C36.7426 15.0638 36.7535 15.0733 36.7647 15.083C36.7868 15.1043 36.8089 15.1272 36.831 15.1499C36.8471 15.1654 36.8633 15.1809 36.8788 15.1978C36.8913 15.2103 36.9023 15.2236 36.9141 15.2361C36.9384 15.2619 36.9627 15.2876 36.9862 15.3141V15.3148C37.0488 15.3854 37.1078 15.4591 37.1643 15.5348C37.1703 15.5436 37.1769 15.5517 37.1842 15.5606C37.2049 15.5893 37.2246 15.6195 37.2453 15.6482C37.2549 15.6622 37.2652 15.677 37.2747 15.6916C37.2917 15.7174 37.3078 15.7431 37.3247 15.7696C37.3366 15.7888 37.3483 15.8072 37.3601 15.8255C37.3741 15.8491 37.3866 15.8726 37.4006 15.8955C37.4131 15.9183 37.4271 15.9412 37.4396 15.964C37.4507 15.9846 37.4602 16.0052 37.4713 16.0258C37.4846 16.0524 37.4992 16.0789 37.5125 16.106C37.5206 16.123 37.528 16.1406 37.5361 16.1582C37.5508 16.1892 37.5655 16.2201 37.5788 16.2511C37.5847 16.265 37.5898 16.279 37.5964 16.2929C37.6104 16.3283 37.6252 16.3636 37.6391 16.3997C37.6428 16.41 37.6465 16.4218 37.651 16.4321C37.6649 16.4712 37.6789 16.5101 37.6921 16.5499C37.6952 16.558 37.6973 16.5661 37.6995 16.5749C37.7135 16.6169 37.7267 16.6595 37.7386 16.7022C37.74 16.7089 37.7415 16.7147 37.7429 16.7214C37.7554 16.7663 37.7672 16.8105 37.7775 16.856C37.779 16.862 37.7797 16.8678 37.7812 16.8737C37.7915 16.9193 37.801 16.9657 37.8098 17.0114C37.8113 17.0195 37.812 17.0269 37.8135 17.0341C37.8209 17.0783 37.829 17.1232 37.8348 17.1682C37.8364 17.18 37.8371 17.1917 37.8393 17.2028C37.8444 17.244 37.8489 17.2852 37.8533 17.3264C37.8548 17.3463 37.8561 17.3662 37.8569 17.386C37.8599 17.42 37.8628 17.453 37.8643 17.4861C37.8665 17.5398 37.8679 17.5936 37.8679 17.6481C37.8679 17.721 37.865 17.7946 37.8606 17.8682C37.8561 17.941 37.8495 18.0153 37.8407 18.0889C37.8399 18.092 37.8392 18.0941 37.8392 18.0971C37.8326 18.153 37.8237 18.209 37.8143 18.2634C37.8127 18.2722 37.8106 18.2804 37.809 18.2884C37.8002 18.34 37.7899 18.3907 37.7781 18.4415C37.7781 18.4438 37.7773 18.4459 37.7766 18.4474C37.6302 19.0819 37.3107 19.6649 36.8565 20.1293C36.8522 20.1337 36.8484 20.1374 36.844 20.1418C36.8094 20.1772 36.7734 20.2124 36.7366 20.2464C36.7278 20.2545 36.7189 20.2625 36.7093 20.2714C36.6262 20.3465 36.54 20.4193 36.4496 20.4878C36.0646 20.3942 35.6723 20.3471 35.2799 20.3471C34.1442 20.3471 33.0342 20.7395 32.1524 21.4505C31.8918 21.6611 31.8506 22.0453 32.0611 22.3058C32.1774 22.4501 32.3497 22.5325 32.5351 22.5325C32.6735 22.5325 32.809 22.4847 32.9172 22.3978C33.5929 21.8524 34.4106 21.5638 35.2807 21.5638C35.5685 21.5638 35.8541 21.5962 36.1316 21.661C36.2376 21.7435 36.3716 21.7905 36.5078 21.7905C36.5247 21.7905 36.5417 21.7897 36.5593 21.7884C36.7168 21.845 36.8662 21.9098 37.0046 21.9812C37.0075 21.9827 37.0105 21.9842 37.0127 21.9857L37.0149 21.9863V21.9871L37.0164 21.9879C37.1548 22.0592 37.2873 22.1402 37.4154 22.2278C37.4272 22.2359 37.4396 22.2433 37.4514 22.2514C37.4581 22.2558 37.4639 22.2617 37.4706 22.266C37.8769 22.5569 38.2243 22.9256 38.4886 23.3511C38.5342 23.4248 38.5769 23.4998 38.6174 23.5763C38.6254 23.591 38.6321 23.6066 38.6395 23.6219C38.6718 23.6845 38.7027 23.747 38.7315 23.8104C38.7358 23.8213 38.7403 23.8331 38.7447 23.8434C38.7741 23.9134 38.8029 23.9826 38.8286 24.054C38.8308 24.0599 38.8323 24.0664 38.8345 24.0724C38.8618 24.1482 38.8867 24.224 38.9088 24.302C38.9096 24.3065 38.9104 24.3108 38.9118 24.3153C38.9339 24.3941 38.9538 24.4736 38.9714 24.5538C38.9729 24.5634 38.9743 24.5722 38.9759 24.5817C38.9913 24.6569 39.0053 24.7334 39.0156 24.8099C39.0193 24.8372 39.0215 24.8643 39.0244 24.8924C39.0318 24.9512 39.0391 25.0102 39.0428 25.0698C39.0495 25.1574 39.0524 25.2465 39.0524 25.3355C39.0531 25.4006 39.0517 25.4648 39.0487 25.5273Z" fill="#90D3D0"/>
</svg>
