<svg width="41" height="41" viewBox="0 0 41 41" fill="none" xmlns="http://www.w3.org/2000/svg">
<path d="M18.4399 18.6243C18.4428 17.996 18.6509 17.3858 19.0324 16.8866C19.5466 16.2247 20.1332 15.6224 20.7811 15.0907C21.3656 14.588 21.9016 14.0313 22.3819 13.4281C22.6839 13.0044 22.8403 12.4941 22.8278 11.9739C22.835 11.6554 22.7779 11.3388 22.66 11.0428C22.542 10.7469 22.3656 10.4777 22.1413 10.2515C21.917 10.0253 21.6494 9.84661 21.3544 9.72614C21.0595 9.60567 20.7433 9.54585 20.4248 9.55033C19.789 9.54415 19.1745 9.77933 18.7052 10.2084C18.1586 10.7351 17.7599 11.3961 17.5492 12.1254L14.9414 10.9876C15.2731 9.71776 16.0058 8.58893 17.0305 7.76902C18.0416 7.00879 19.2802 6.61289 20.5448 6.64568C21.5067 6.63567 22.457 6.85632 23.3161 7.28916C24.135 7.70037 24.8266 8.3266 25.3168 9.10079C25.8138 9.88908 26.0715 10.8046 26.0584 11.7364C26.069 12.5756 25.8431 13.4009 25.4065 14.1177C24.8546 14.9611 24.1859 15.722 23.4204 16.3776C22.8359 16.8735 22.2861 17.4087 21.7747 17.9796C21.4814 18.3155 21.3185 18.7455 21.3155 19.1914C21.3237 19.4647 21.3644 19.736 21.4366 19.9997H18.7707C18.5628 19.5703 18.4499 19.1012 18.4399 18.6243ZM20.2176 27.0681C19.9132 27.0758 19.6104 27.0215 19.3277 26.9083C19.045 26.7952 18.7882 26.6257 18.5732 26.4101C18.3544 26.1964 18.1822 25.9398 18.0672 25.6564C17.9523 25.373 17.8973 25.069 17.9055 24.7633C17.8983 24.4554 17.9537 24.1492 18.0685 23.8634C18.1833 23.5776 18.355 23.3181 18.5732 23.1007C18.7862 22.8813 19.0422 22.7083 19.3251 22.5924C19.6081 22.4765 19.9119 22.4202 20.2176 22.427C20.5251 22.4204 20.8308 22.4765 21.1159 22.5919C21.4011 22.7073 21.6598 22.8795 21.8762 23.0981C22.0926 23.3167 22.2623 23.577 22.3749 23.8633C22.4874 24.1496 22.5405 24.4558 22.5309 24.7633C22.539 25.0689 22.484 25.3729 22.3694 25.6562C22.2547 25.9396 22.0828 26.1962 21.8644 26.4101C21.6488 26.6256 21.3916 26.7951 21.1085 26.9082C20.8255 27.0213 20.5223 27.0757 20.2176 27.0681Z" fill="#90D3D0"/>
<path d="M1.78622 40.931C1.52397 40.9307 1.26499 40.8729 1.02763 40.7614C0.719338 40.6192 0.458492 40.3912 0.276267 40.1048C0.0940422 39.8183 -0.0018552 39.4855 2.7189e-05 39.146V4.40133C0.00131015 3.25372 0.457767 2.15343 1.26925 1.34195C2.08073 0.530466 3.18096 0.0740369 4.32857 0.0727539H36.6715C37.8191 0.0740369 38.9193 0.530466 39.7308 1.34195C40.5423 2.15343 40.9987 3.25372 41 4.40133V29.1414C40.9984 30.2888 40.5418 31.3887 39.7304 32.1999C38.9189 33.0111 37.8189 33.4675 36.6715 33.4687H12.4694C11.7443 33.469 11.0423 33.7237 10.4857 34.1885L2.9241 40.5141C2.60534 40.782 2.20263 40.9296 1.78622 40.931ZM4.32857 2.49635C3.82354 2.49699 3.33939 2.69788 2.98228 3.05499C2.62517 3.4121 2.42427 3.8963 2.42362 4.40133V37.7718L8.93098 32.3296C9.92382 31.5006 11.176 31.0461 12.4694 31.0451H36.6715C37.1764 31.0448 37.6606 30.8442 38.0177 30.4872C38.3748 30.1303 38.5758 29.6463 38.5764 29.1414V4.40133C38.5758 3.8963 38.3749 3.4121 38.0178 3.05499C37.6607 2.69788 37.1765 2.49699 36.6715 2.49635H4.32857Z" fill="#90D3D0"/>
</svg>
