<svg width="28" height="29" viewBox="0 0 28 29" fill="none" xmlns="http://www.w3.org/2000/svg">
<path d="M9.38279 22.4292L7.96091 21.0065L7.4935 20.5391L6.07162 19.1172L3.05615 20.9074L4.47885 22.3301L6.16989 24.0212L7.59264 25.4439L9.38279 22.4292Z" fill="#7F529F"/>
<path d="M19.2074 23.8308C18.6136 20.2505 17.9633 15.9011 21.9461 11.9192C23.1543 10.7109 23.9678 9.89742 24.8625 9.00279L19.4971 3.63745C18.6025 4.53208 17.789 5.34556 16.5816 6.55383C12.5979 10.5366 8.24943 9.8855 4.66909 9.29247C1.63306 8.79 -0.651836 11.2253 0.167601 12.0457L6.53355 18.4108L10.3737 14.5707C11.3538 13.5897 12.9491 13.5897 13.93 14.5707C14.9101 15.5508 14.9101 17.1461 13.93 18.1262L10.0891 21.9672L16.4542 28.3323C17.2737 29.1517 19.7099 26.8668 19.2074 23.8308ZM5.92007 14.9526L3.85731 12.8899L4.78186 11.9653L6.84374 14.0281L5.92007 14.9526ZM18.3299 7.04C18.8734 6.49739 20.0141 6.75715 20.8788 7.62105C21.7427 8.48583 22.0025 9.62655 21.4599 10.1692C20.9164 10.7126 17.7873 7.58348 18.3299 7.04Z" fill="#7F529F"/>
<path d="M9.52044 20.2598C9.16755 20.6136 8.59415 20.6136 8.24043 20.2598C7.88665 19.906 7.88665 19.3335 8.24043 18.9798L11.5123 15.708C11.8652 15.3542 12.4386 15.3542 12.7923 15.708C13.1461 16.0617 13.1461 16.6351 12.7923 16.988L9.52044 20.2598Z" fill="#7F529F"/>
<path d="M25.858 8.00727C26.0392 7.82609 26.228 7.63813 26.4271 7.43819C27.8413 6.02402 28.7112 2.75213 27.2295 1.27048C25.7478 -0.211172 22.4759 0.658633 21.0618 2.0728C20.8618 2.27273 20.6738 2.46075 20.4927 2.64188L25.858 8.00727Z" fill="#7F529F"/>
</svg>
