<svg width="32" height="31" viewBox="0 0 32 31" fill="none" xmlns="http://www.w3.org/2000/svg">
<path d="M27.9999 30.86C26.2689 30.86 24.8389 29.544 24.6589 27.86H15.9999C15.8009 27.86 15.6399 27.699 15.6399 27.5V15.86H7.34089C7.16089 17.544 5.73089 18.86 3.99989 18.86C2.14689 18.86 0.639893 17.352 0.639893 15.5C0.639893 13.648 2.14689 12.14 3.99989 12.14C5.73089 12.14 7.16089 13.456 7.34089 15.14H15.6399V3.50001C15.6399 3.30101 15.8009 3.14001 15.9999 3.14001H24.6589C24.8389 1.45601 26.2679 0.140015 27.9999 0.140015C29.8529 0.140015 31.3599 1.64701 31.3599 3.50001C31.3599 5.35301 29.8529 6.86001 27.9999 6.86001C26.2689 6.86001 24.8389 5.54401 24.6589 3.86001H16.3599V15.14H24.6589C24.8389 13.456 26.2679 12.14 27.9999 12.14C29.8529 12.14 31.3599 13.647 31.3599 15.5C31.3599 17.353 29.8519 18.86 27.9999 18.86C26.2689 18.86 24.8389 17.544 24.6589 15.86H16.3599V27.14H24.6589C24.8389 25.456 26.2679 24.14 27.9999 24.14C29.8529 24.14 31.3599 25.648 31.3599 27.5C31.3599 29.352 29.8529 30.86 27.9999 30.86ZM27.9999 24.86C26.5439 24.86 25.3599 26.044 25.3599 27.5C25.3599 28.956 26.5439 30.14 27.9999 30.14C29.4559 30.14 30.6399 28.956 30.6399 27.5C30.6399 26.044 29.4559 24.86 27.9999 24.86ZM27.9999 12.86C26.5439 12.86 25.3599 14.045 25.3599 15.5C25.3599 16.956 26.5439 18.14 27.9999 18.14C29.4559 18.14 30.6399 16.956 30.6399 15.5C30.6399 14.044 29.4559 12.86 27.9999 12.86ZM3.99989 12.86C2.54389 12.86 1.35989 14.045 1.35989 15.5C1.35989 16.956 2.54489 18.14 3.99989 18.14C5.45489 18.14 6.63989 16.956 6.63989 15.5C6.63989 14.044 5.45589 12.86 3.99989 12.86ZM27.9999 0.860015C26.5439 0.860015 25.3599 2.04501 25.3599 3.50001C25.3599 4.95501 26.5439 6.14001 27.9999 6.14001C29.4559 6.14001 30.6399 4.95601 30.6399 3.50001C30.6399 2.04401 29.4559 0.860015 27.9999 0.860015Z" fill="#5AC0BE"/>
</svg>
