<svg width="34" height="35" viewBox="0 0 34 35" fill="none" xmlns="http://www.w3.org/2000/svg">
<g clip-path="url(#clip0_777_2982)">
<path d="M16.8996 10.7116C17.7228 9.3483 18.1346 8.66663 18.75 8.66663C19.3654 8.66663 19.7772 9.3483 20.6004 10.7116L20.8134 11.0644C21.0474 11.4518 21.1644 11.6455 21.3468 11.7733C21.5292 11.9011 21.7564 11.9486 22.2106 12.0435L22.6243 12.1298C24.2232 12.4638 25.0225 12.6307 25.2126 13.1953C25.4029 13.7599 24.8579 14.348 23.768 15.5246L23.4859 15.829C23.1762 16.1633 23.0213 16.3304 22.9518 16.5373C22.8821 16.7441 22.9055 16.967 22.9523 17.4131L22.9948 17.8193C23.1596 19.3889 23.2422 20.1739 22.7441 20.5228C22.2462 20.8717 21.4977 20.5535 20.0008 19.9174L19.6135 19.7527C19.1881 19.5719 18.9754 19.4815 18.75 19.4815C18.5246 19.4815 18.3119 19.5719 17.8865 19.7527L17.4992 19.9174C16.0023 20.5535 15.2538 20.8717 14.7558 20.5228C14.2579 20.1739 14.3403 19.3889 14.5051 17.8193L14.5477 17.4131C14.5946 16.967 14.618 16.7441 14.5483 16.5373C14.4786 16.3304 14.3238 16.1633 14.0141 15.829L13.7321 15.5246C12.6421 14.348 12.0971 13.7599 12.2873 13.1953C12.4775 12.6307 13.2769 12.4638 14.8757 12.1298L15.2893 12.0435C15.7436 11.9486 15.9708 11.9011 16.1533 11.7733C16.3356 11.6455 16.4526 11.4518 16.6866 11.0644L16.8996 10.7116Z" stroke="#5AC0BE"/>
<path d="M4.25 13.7125C4.25 8.75618 4.25 6.27806 4.83725 5.44436C5.42449 4.61066 7.76294 3.81306 12.4399 2.21785L13.3309 1.91394C15.7689 1.0824 16.9878 0.666626 18.25 0.666626C19.5122 0.666626 20.7311 1.0824 23.1691 1.91394L24.0602 2.21785C28.7371 3.81306 31.0756 4.61066 31.6628 5.44436C32.25 6.27806 32.25 8.75618 32.25 13.7125C32.25 14.461 32.25 15.2729 32.25 16.1533C32.25 20.0359 30.9483 23.0306 29.1389 25.318M4.54997 19.2666C5.88374 25.9291 11.3689 29.3616 14.9811 30.9339C16.1033 31.4223 16.6644 31.6666 18.25 31.6666C19.8356 31.6666 20.3967 31.4223 21.5188 30.9339C22.4183 30.5424 23.4337 30.0357 24.4722 29.3925" stroke="#5AC0BE" stroke-linecap="round"/>
</g>
<defs>
<clipPath id="clip0_777_2982">
<rect width="34" height="34" fill="white" transform="translate(0 0.5)"/>
</clipPath>
</defs>
</svg>
