<svg width="37" height="36" viewBox="0 0 37 36" fill="none" xmlns="http://www.w3.org/2000/svg">
<path d="M35.8151 33.2221C35.8481 29.6257 34.1936 27.9606 32.5216 27.4145C31.0493 26.9337 28.0339 27.3731 25.8004 26.2251C23.6646 25.1274 22.4591 22.2218 22.3575 18.923M26.8378 35.4775L26.8376 35.5M8.10135 33.223L8.10115 33.2455M35.0521 6.16923L35.0519 6.19177M18.9848 33.223C18.9848 29.8413 17.8628 27.5868 15.7642 25.5463M27.7857 13.4686C30.2047 15.1871 32.4487 16.3144 36 15.2056M23.9844 4.46193C21.4594 1.92515 18.0347 0.5 14.4638 0.5C10.893 0.5 7.46846 1.92515 4.94348 4.46193C2.41851 6.99872 1 10.4393 1 14.027C1 17.6143 2.41851 21.0551 4.94348 23.5918L23.9844 4.46193Z" stroke="#5AC0BE" stroke-linecap="round" stroke-linejoin="round"/>
</svg>
