<svg width="45" height="45" viewBox="0 0 45 45" fill="none" xmlns="http://www.w3.org/2000/svg">
<path d="M30.447 9.50673C28.2407 8.23046 25.6791 7.5 22.947 7.5C14.6627 7.5 7.94702 14.2157 7.94702 22.5C7.94702 24.8995 8.51045 27.1674 9.51221 29.1787C9.77843 29.7132 9.86704 30.3241 9.7127 30.9009L8.81929 34.2401C8.43145 35.6895 9.75754 37.0155 11.207 36.6278L14.5461 35.7344C15.1229 35.58 15.7338 35.6686 16.2683 35.9347C18.2796 36.9366 20.5475 37.5 22.947 37.5C31.2312 37.5 37.947 30.7842 37.947 22.5C37.947 19.7679 37.2165 17.2063 35.9403 15" stroke="white" stroke-width="2" stroke-linecap="round"/>
<path d="M16.947 22.5H16.9605M22.9335 22.5H22.947M28.9335 22.5H28.947" stroke="white" stroke-width="2" stroke-linecap="round" stroke-linejoin="round"/>
</svg>
