<svg width="231" height="67" viewBox="0 0 231 67" fill="none" xmlns="http://www.w3.org/2000/svg">
<path d="M229.717 59.2734C229.717 62.8439 226.776 65.7361 223.138 65.7361H7.86982C4.23423 65.7361 1.2832 62.8439 1.2832 59.2734V7.73553C1.2832 4.16671 4.23423 1.2644 7.86982 1.2644H223.137C226.776 1.2644 229.715 4.16671 229.715 7.73553L229.717 59.2734Z" fill="#5AC0BE" fill-opacity="0.1"/>
<path d="M222.444 1.34234C226.406 1.34234 229.629 4.49762 229.629 8.37524V58.6252C229.629 62.5029 226.406 65.6582 222.444 65.6582H8.55556C4.59433 65.6582 1.37103 62.5029 1.37103 58.6252V8.37524C1.37103 4.49762 4.59433 1.34234 8.55556 1.34234H222.444ZM222.444 0.000244141H8.55556C3.85214 0.000244141 0 3.77109 0 8.37524V58.6252C0 63.2294 3.85214 67.0002 8.55556 67.0002H222.444C227.148 67.0002 231 63.2294 231 58.6252V8.37524C231 3.77109 227.148 0.000244141 222.444 0.000244141Z" fill="#A6A6A6"/>
<path d="M51.5517 33.1383C51.5021 27.7398 56.0673 25.1134 56.2761 24.9911C53.6906 21.3011 49.6831 20.7969 48.2749 20.7567C44.9091 20.41 41.6443 22.7282 39.9298 22.7282C38.1811 22.7282 35.5408 20.7902 32.6952 20.8471C29.0335 20.9024 25.6078 22.9777 23.729 26.2004C19.8516 32.7715 22.7434 42.4278 26.4582 47.7393C28.3165 50.3405 30.4879 53.245 33.3301 53.1428C36.1106 53.0306 37.1493 51.4075 40.5047 51.4075C43.8294 51.4075 44.8048 53.1428 47.7034 53.0775C50.6876 53.0306 52.5664 50.4645 54.3596 47.8398C56.5071 44.8583 57.3695 41.922 57.4037 41.7712C57.3335 41.7478 51.6081 39.6088 51.5517 33.1383Z" fill="white"/>
<path d="M46.0761 17.2626C47.5716 15.4319 48.5949 12.9411 48.3108 10.4136C46.1463 10.5074 43.4393 11.8792 41.8805 13.6698C40.5013 15.2476 39.2693 17.8338 39.5876 20.2659C42.0191 20.4435 44.5156 19.0649 46.0761 17.2626Z" fill="white"/>
<path d="M83.9299 16.7653C83.9299 18.7368 83.3259 20.2208 82.1195 21.2175C81.0022 22.137 79.4143 22.5977 77.3575 22.5977C76.3377 22.5977 75.465 22.5541 74.7344 22.467V11.6951C75.6875 11.5443 76.7141 11.4673 77.8229 11.4673C79.7822 11.4673 81.2588 11.8844 82.2547 12.7185C83.3704 13.6615 83.9299 15.0099 83.9299 16.7653ZM82.0391 16.8139C82.0391 15.5359 81.6935 14.556 81.0022 13.8726C80.3109 13.1909 79.3013 12.8492 77.9718 12.8492C77.4071 12.8492 76.9263 12.886 76.5276 12.9631V21.1521C76.7484 21.1856 77.1522 21.2007 77.7391 21.2007C79.1114 21.2007 80.1706 20.8272 80.9166 20.0801C81.6627 19.3331 82.0391 18.2443 82.0391 16.8139Z" fill="white"/>
<path d="M93.9549 18.4871C93.9549 19.7014 93.6007 20.6964 92.8923 21.4769C92.1497 22.2793 91.1658 22.6796 89.9372 22.6796C88.7531 22.6796 87.8103 22.296 87.107 21.5255C86.4055 20.7567 86.0547 19.7869 86.0547 18.6177C86.0547 17.395 86.4157 16.3916 87.1412 15.6128C87.8668 14.8339 88.8421 14.4436 90.0707 14.4436C91.2548 14.4436 92.2061 14.8272 92.9265 15.596C93.611 16.3431 93.9549 17.3079 93.9549 18.4871ZM92.0949 18.544C92.0949 17.8154 91.9341 17.1906 91.6141 16.6697C91.2376 16.0399 90.7021 15.725 90.0056 15.725C89.2853 15.725 88.7377 16.0399 88.3613 16.6697C88.0396 17.1906 87.8804 17.8254 87.8804 18.5758C87.8804 19.3045 88.0413 19.9292 88.3613 20.4502C88.7497 21.08 89.2904 21.3949 89.9885 21.3949C90.673 21.3949 91.2103 21.0749 91.597 20.4334C91.9289 19.9024 92.0949 19.2726 92.0949 18.544Z" fill="white"/>
<path d="M107.398 14.6045L104.874 22.5004H103.231L102.186 19.0717C101.921 18.2158 101.705 17.3649 101.537 16.5207H101.505C101.349 17.3883 101.133 18.2376 100.856 19.0717L99.7457 22.5004H98.0842L95.7109 14.6045H97.5538L98.4658 18.3582C98.6866 19.2459 98.8679 20.0918 99.0134 20.8924H99.0459C99.1794 20.2325 99.4001 19.3916 99.7115 18.3749L100.856 14.6062H102.318L103.414 18.2945C103.68 19.194 103.895 20.06 104.061 20.8941H104.111C104.232 20.0817 104.415 19.2158 104.658 18.2945L105.637 14.6062H107.398V14.6045Z" fill="white"/>
<path d="M116.694 22.5005H114.901V17.978C114.901 16.5844 114.36 15.8876 113.276 15.8876C112.743 15.8876 112.314 16.0785 111.98 16.4621C111.65 16.8457 111.482 17.2979 111.482 17.8155V22.4988H109.689V16.8608C109.689 16.1673 109.667 15.4152 109.624 14.6012H111.2L111.284 15.8357H111.333C111.542 15.4521 111.854 15.1355 112.263 14.8826C112.749 14.5878 113.293 14.4387 113.888 14.4387C114.641 14.4387 115.267 14.6766 115.765 15.1539C116.385 15.7385 116.694 16.6112 116.694 17.7703V22.5005Z" fill="white"/>
<path d="M121.639 22.5004H119.848V10.9814H121.639V22.5004Z" fill="white"/>
<path d="M132.197 18.4871C132.197 19.7014 131.843 20.6964 131.134 21.4769C130.392 22.2793 129.406 22.6796 128.179 22.6796C126.994 22.6796 126.051 22.296 125.349 21.5255C124.648 20.7567 124.297 19.7869 124.297 18.6177C124.297 17.395 124.658 16.3916 125.383 15.6128C126.109 14.8339 127.084 14.4436 128.311 14.4436C129.497 14.4436 130.447 14.8272 131.169 15.596C131.853 16.3431 132.197 17.3079 132.197 18.4871ZM130.335 18.544C130.335 17.8154 130.175 17.1906 129.855 16.6697C129.48 16.0399 128.943 15.725 128.248 15.725C127.526 15.725 126.978 16.0399 126.603 16.6697C126.282 17.1906 126.123 17.8254 126.123 18.5758C126.123 19.3045 126.283 19.9292 126.603 20.4502C126.992 21.08 127.533 21.3949 128.231 21.3949C128.915 21.3949 129.451 21.0749 129.837 20.4334C130.171 19.9024 130.335 19.2726 130.335 18.544Z" fill="white"/>
<path d="M140.876 22.5003H139.266L139.132 21.5908H139.083C138.532 22.3161 137.746 22.6796 136.726 22.6796C135.965 22.6796 135.349 22.4401 134.885 21.9644C134.464 21.5322 134.254 20.9945 134.254 20.3564C134.254 19.3916 134.665 18.6562 135.491 18.147C136.316 17.6378 137.476 17.3883 138.97 17.4V17.2526C138.97 16.2124 138.412 15.6932 137.295 15.6932C136.499 15.6932 135.797 15.8891 135.192 16.2777L134.827 15.1253C135.577 14.6714 136.502 14.4436 137.594 14.4436C139.702 14.4436 140.76 15.5324 140.76 17.7099V20.6177C140.76 21.4066 140.799 22.0347 140.876 22.5003ZM139.014 19.7869V18.5691C137.036 18.5356 136.047 19.0666 136.047 20.1604C136.047 20.5724 136.16 20.8806 136.391 21.0867C136.622 21.2927 136.916 21.3949 137.267 21.3949C137.661 21.3949 138.029 21.2726 138.364 21.0297C138.701 20.7852 138.908 20.4753 138.985 20.0951C139.004 20.0096 139.014 19.9058 139.014 19.7869Z" fill="white"/>
<path d="M151.065 22.5004H149.474L149.39 21.2324H149.34C148.832 22.1972 147.966 22.6796 146.75 22.6796C145.778 22.6796 144.969 22.3061 144.327 21.5591C143.685 20.812 143.365 19.8422 143.365 18.6513C143.365 17.3732 143.713 16.3381 144.411 15.5475C145.087 14.8105 145.915 14.442 146.9 14.442C147.984 14.442 148.742 14.7988 149.173 15.514H149.207V10.9814H151.002V20.3732C151.002 21.142 151.022 21.8505 151.065 22.5004ZM149.207 19.1705V17.854C149.207 17.6262 149.19 17.4419 149.157 17.3012C149.056 16.8791 148.839 16.524 148.509 16.2376C148.175 15.9512 147.773 15.8071 147.309 15.8071C146.64 15.8071 146.117 16.0667 145.732 16.5877C145.35 17.1086 145.157 17.7736 145.157 18.5859C145.157 19.3665 145.34 19.9996 145.708 20.4871C146.096 21.0063 146.62 21.2659 147.275 21.2659C147.864 21.2659 148.334 21.0499 148.692 20.616C149.038 20.2157 149.207 19.7333 149.207 19.1705Z" fill="white"/>
<path d="M166.402 18.4871C166.402 19.7014 166.048 20.6964 165.34 21.4769C164.597 22.2793 163.615 22.6796 162.384 22.6796C161.202 22.6796 160.259 22.296 159.554 21.5255C158.853 20.7567 158.502 19.7869 158.502 18.6177C158.502 17.395 158.863 16.3916 159.589 15.6128C160.314 14.8339 161.289 14.4436 162.52 14.4436C163.702 14.4436 164.655 14.8272 165.374 15.596C166.058 16.3431 166.402 17.3079 166.402 18.4871ZM164.544 18.544C164.544 17.8154 164.383 17.1906 164.063 16.6697C163.685 16.0399 163.151 15.725 162.453 15.725C161.734 15.725 161.187 16.0399 160.809 16.6697C160.487 17.1906 160.328 17.8254 160.328 18.5758C160.328 19.3045 160.489 19.9292 160.809 20.4502C161.197 21.08 161.738 21.3949 162.436 21.3949C163.12 21.3949 163.659 21.0749 164.046 20.4334C164.376 19.9024 164.544 19.2726 164.544 18.544Z" fill="white"/>
<path d="M176.044 22.5005H174.253V17.978C174.253 16.5844 173.712 15.8876 172.625 15.8876C172.093 15.8876 171.664 16.0785 171.332 16.4621C171 16.8457 170.834 17.2979 170.834 17.8155V22.4988H169.039V16.8608C169.039 16.1673 169.018 15.4152 168.976 14.6012H170.55L170.634 15.8357H170.683C170.894 15.4521 171.205 15.1355 171.612 14.8826C172.1 14.5878 172.642 14.4387 173.24 14.4387C173.991 14.4387 174.617 14.6766 175.115 15.1539C175.736 15.7385 176.044 16.6112 176.044 17.7703V22.5005Z" fill="white"/>
<path d="M188.113 15.9193H186.138V19.755C186.138 20.7299 186.489 21.2173 187.184 21.2173C187.505 21.2173 187.772 21.1905 187.983 21.1352L188.029 22.4668C187.675 22.5975 187.209 22.6628 186.636 22.6628C185.928 22.6628 185.377 22.4518 184.978 22.0297C184.578 21.6076 184.379 20.8974 184.379 19.9007V15.9193H183.2V14.6044H184.379V13.1572L186.136 12.6379V14.6027H188.111V15.9193H188.113Z" fill="white"/>
<path d="M197.606 22.5004H195.811V18.0114C195.811 16.596 195.27 15.8875 194.187 15.8875C193.355 15.8875 192.787 16.2979 192.476 17.1186C192.423 17.2912 192.392 17.5022 192.392 17.7501V22.4987H190.601V10.9814H192.392V15.7401H192.426C192.991 14.8741 193.8 14.442 194.849 14.442C195.592 14.442 196.206 14.6798 196.694 15.1572C197.301 15.7518 197.606 16.6362 197.606 17.8054V22.5004Z" fill="white"/>
<path d="M207.399 18.179C207.399 18.4939 207.375 18.7586 207.332 18.9747H201.954C201.978 19.7552 202.235 20.3498 202.733 20.7619C203.188 21.1304 203.775 21.3146 204.493 21.3146C205.289 21.3146 206.015 21.1907 206.668 20.9411L206.949 22.1605C206.184 22.4855 205.284 22.6479 204.242 22.6479C202.993 22.6479 202.009 22.2878 201.297 21.5676C200.582 20.8473 200.228 19.8808 200.228 18.6681C200.228 17.4772 200.558 16.4856 201.223 15.695C201.918 14.8508 202.858 14.4287 204.043 14.4287C205.203 14.4287 206.085 14.8508 206.68 15.695C207.161 16.365 207.399 17.1941 207.399 18.179ZM205.688 17.7251C205.701 17.2042 205.583 16.7553 205.34 16.3767C205.029 15.8893 204.555 15.6448 203.913 15.6448C203.328 15.6448 202.851 15.8826 202.486 16.36C202.188 16.7402 202.012 17.1941 201.954 17.7251H205.688Z" fill="white"/>
<path d="M91.7927 52.7694H87.9068L85.7781 46.2218H78.3793L76.3516 52.7694H72.5684L79.8988 30.4785H84.4264L91.7927 52.7694ZM85.1365 43.4748L83.2115 37.6542C83.0078 37.0596 82.6263 35.6593 82.0633 33.455H81.9949C81.7707 34.403 81.4097 35.8033 80.9134 37.6542L79.0227 43.4748H85.1365Z" fill="white"/>
<path d="M110.644 44.5352C110.644 47.2688 109.89 49.4295 108.381 51.0158C107.029 52.4278 105.35 53.133 103.347 53.133C101.184 53.133 99.63 52.3725 98.6837 50.8516H98.6153V59.3187H94.9672V41.9875C94.9672 40.269 94.921 38.5052 94.832 36.6962H98.0404L98.244 39.2439H98.3124C99.529 37.3243 101.375 36.3662 103.853 36.3662C105.79 36.3662 107.407 37.1149 108.701 38.6141C109.998 40.1149 110.644 42.088 110.644 44.5352ZM106.928 44.6658C106.928 43.1014 106.569 41.8116 105.846 40.7966C105.058 39.738 103.998 39.2087 102.671 39.2087C101.771 39.2087 100.953 39.5035 100.222 40.0847C99.4897 40.671 99.0106 41.4364 98.7864 42.3845C98.6735 42.8267 98.617 43.1885 98.617 43.4732V46.1532C98.617 47.3224 98.9832 48.309 99.7155 49.1146C100.448 49.9203 101.399 50.3223 102.57 50.3223C103.944 50.3223 105.013 49.8031 105.778 48.7679C106.545 47.7311 106.928 46.3643 106.928 44.6658Z" fill="white"/>
<path d="M129.529 44.5352C129.529 47.2688 128.775 49.4295 127.264 51.0158C125.914 52.4278 124.235 53.133 122.232 53.133C120.069 53.133 118.515 52.3725 117.57 50.8516H117.502V59.3187H113.854V41.9875C113.854 40.269 113.808 38.5052 113.719 36.6962H116.927L117.131 39.2439H117.199C118.414 37.3243 120.26 36.3662 122.74 36.3662C124.675 36.3662 126.292 37.1149 127.589 38.6141C128.881 40.1149 129.529 42.088 129.529 44.5352ZM125.813 44.6658C125.813 43.1014 125.452 41.8116 124.73 40.7966C123.941 39.738 122.885 39.2087 121.556 39.2087C120.654 39.2087 119.838 39.5035 119.105 40.0847C118.373 40.671 117.896 41.4364 117.671 42.3845C117.56 42.8267 117.502 43.1885 117.502 43.4732V46.1532C117.502 47.3224 117.868 48.309 118.597 49.1146C119.329 49.9186 120.281 50.3223 121.455 50.3223C122.829 50.3223 123.898 49.8031 124.663 48.7679C125.43 47.7311 125.813 46.3643 125.813 44.6658Z" fill="white"/>
<path d="M150.645 46.5183C150.645 48.4144 149.972 49.9571 148.622 51.148C147.138 52.4495 145.073 53.0994 142.419 53.0994C139.969 53.0994 138.005 52.6371 136.518 51.7108L137.363 48.7343C138.964 49.6824 140.722 50.1581 142.637 50.1581C144.011 50.1581 145.08 49.8532 145.848 49.2469C146.613 48.6405 146.995 47.8265 146.995 46.8114C146.995 45.9069 146.68 45.1448 146.048 44.5267C145.42 43.9086 144.372 43.3341 142.907 42.8031C138.92 41.3476 136.928 39.2153 136.928 36.4113C136.928 34.5789 137.626 33.0764 139.024 31.9073C140.417 30.7364 142.275 30.1519 144.599 30.1519C146.671 30.1519 148.393 30.5053 149.767 31.2105L148.855 34.1216C147.571 33.4382 146.12 33.0965 144.496 33.0965C143.213 33.0965 142.21 33.4064 141.492 34.0228C140.884 34.5739 140.58 35.2455 140.58 36.0412C140.58 36.9222 140.927 37.6508 141.625 38.2237C142.233 38.753 143.336 39.3258 144.938 39.9439C146.897 40.7161 148.336 41.6189 149.262 42.6541C150.184 43.6859 150.645 44.9773 150.645 46.5183Z" fill="white"/>
<path d="M162.707 39.3761H158.686V47.1799C158.686 49.1648 159.394 50.1564 160.814 50.1564C161.466 50.1564 162.007 50.1011 162.435 49.9906L162.536 52.7024C161.817 52.9654 160.871 53.0977 159.699 53.0977C158.258 53.0977 157.132 52.6672 156.319 51.8079C155.51 50.947 155.103 49.5031 155.103 47.4747V39.3727H152.707V36.6927H155.103V33.7498L158.686 32.6912V36.6927H162.707V39.3761Z" fill="white"/>
<path d="M180.849 44.6003C180.849 47.0709 180.127 49.0994 178.686 50.6856C177.176 52.3187 175.17 53.1328 172.67 53.1328C170.261 53.1328 168.343 52.3505 166.912 50.7861C165.482 49.2216 164.767 47.2468 164.767 44.8666C164.767 42.3759 165.502 40.3358 166.979 38.7495C168.452 37.1616 170.441 36.3677 172.941 36.3677C175.35 36.3677 177.289 37.1499 178.752 38.716C180.151 40.2353 180.849 42.1967 180.849 44.6003ZM177.064 44.7159C177.064 43.2335 176.741 41.9622 176.086 40.9019C175.321 39.6189 174.227 38.979 172.811 38.979C171.344 38.979 170.23 39.6205 169.465 40.9019C168.81 41.9639 168.487 43.2553 168.487 44.7829C168.487 46.2653 168.81 47.5366 169.465 48.5952C170.254 49.8782 171.356 50.5181 172.778 50.5181C174.171 50.5181 175.264 49.8648 176.053 48.5617C176.726 47.4813 177.064 46.1966 177.064 44.7159Z" fill="white"/>
<path d="M192.707 39.8368C192.346 39.7715 191.961 39.738 191.557 39.738C190.274 39.738 189.281 40.212 188.583 41.1617C187.976 41.9992 187.671 43.0578 187.671 44.3359V52.7695H184.025L184.059 41.758C184.059 39.9055 184.013 38.2188 183.922 36.6979H187.099L187.233 39.7732H187.334C187.719 38.7162 188.326 37.8653 189.158 37.2272C189.971 36.6526 190.848 36.3662 191.795 36.3662C192.132 36.3662 192.436 36.3897 192.707 36.4315V39.8368Z" fill="white"/>
<path d="M209.023 43.9723C209.023 44.6121 208.98 45.1515 208.89 45.592H197.945C197.988 47.1799 198.517 48.3943 199.533 49.2318C200.455 49.9805 201.648 50.3557 203.113 50.3557C204.733 50.3557 206.212 50.1028 207.541 49.5952L208.113 52.0742C206.559 52.7375 204.725 53.0675 202.608 53.0675C200.062 53.0675 198.063 52.3339 196.609 50.8682C195.158 49.4026 194.431 47.4345 194.431 44.9655C194.431 42.5418 195.107 40.5234 196.46 38.9138C197.877 37.1952 199.792 36.3359 202.201 36.3359C204.567 36.3359 206.359 37.1952 207.575 38.9138C208.539 40.2789 209.023 41.9673 209.023 43.9723ZM205.544 43.046C205.568 41.9874 205.33 41.0728 204.836 40.3007C204.205 39.3074 203.234 38.8116 201.929 38.8116C200.736 38.8116 199.766 39.2957 199.025 40.2672C198.418 41.0393 198.057 41.9656 197.945 43.0443H205.544V43.046Z" fill="white"/>
</svg>
