<svg width="233" height="67" viewBox="0 0 233 67" fill="none" xmlns="http://www.w3.org/2000/svg">
<path d="M224.37 67.0002H8.62963C3.88549 67.0002 0 63.2294 0 58.6252V8.37525C0 3.77109 3.88549 0.000250816 8.62963 0.000250816H224.37C229.115 0.000250816 233 3.77109 233 8.37525V58.6252C233 63.2294 229.115 67.0002 224.37 67.0002Z" fill="#5AC0BE" fill-opacity="0.1"/>
<path d="M224.37 1.34234C228.366 1.34234 231.617 4.49763 231.617 8.37525V58.6252C231.617 62.5029 228.366 65.6582 224.37 65.6582H8.62963C4.63411 65.6582 1.3829 62.5029 1.3829 58.6252V8.37525C1.3829 4.49763 4.63411 1.34234 8.62963 1.34234H224.37ZM224.37 0.000250816H8.62963C3.88549 0.000250816 0 3.77109 0 8.37525V58.6252C0 63.2294 3.88549 67.0002 8.62963 67.0002H224.37C229.115 67.0002 233 63.2294 233 58.6252V8.37525C233 3.77109 229.115 0.000250816 224.37 0.000250816Z" fill="#A6A6A6"/>
<path d="M18.0104 12.6278C17.5034 13.1428 17.21 13.9447 17.21 14.9832V52.0259C17.21 53.0644 17.5034 53.8663 18.0104 54.3813L18.1355 54.4944L39.524 33.7453V33.2554L18.1355 12.5063L18.0104 12.6278Z" fill="url(#paint0_linear_2020_8879)"/>
<path d="M46.645 40.665L39.5234 33.7452V33.2553L46.6537 26.3354L46.8133 26.4255L55.2574 31.0882C57.6672 32.4115 57.6672 34.589 55.2574 35.9206L46.8133 40.575L46.645 40.665Z" fill="url(#paint1_linear_2020_8879)"/>
<path d="M46.8133 40.5751L39.5234 33.5004L18.0098 54.3813C18.8102 55.1979 20.1154 55.2963 21.5997 54.4797L46.8133 40.5751Z" fill="url(#paint2_linear_2020_8879)"/>
<path d="M46.8133 26.4255L21.5997 12.5209C20.1154 11.7127 18.8102 11.8111 18.0098 12.6277L39.5234 33.5002L46.8133 26.4255Z" fill="url(#paint3_linear_2020_8879)"/>
<path d="M81.8388 17.1584C81.8388 18.5571 81.4074 19.6772 80.5573 20.5126C79.58 21.503 78.3072 22.0013 76.7474 22.0013C75.2566 22.0013 73.9837 21.4946 72.9395 20.4959C71.8932 19.4825 71.3711 18.2388 71.3711 16.7501C71.3711 15.2615 71.8932 14.0178 72.9395 13.0128C73.9837 12.0057 75.2566 11.499 76.7474 11.499C77.4895 11.499 78.1971 11.6477 78.8724 11.9241C79.5455 12.2025 80.0935 12.5794 80.4905 13.0442L79.5887 13.9278C78.8961 13.1342 77.9533 12.7427 76.7474 12.7427C75.66 12.7427 74.7172 13.1112 73.9168 13.8545C73.1251 14.5999 72.7281 15.5651 72.7281 16.7501C72.7281 17.9352 73.1251 18.9088 73.9168 19.6542C74.7172 20.3891 75.66 20.766 76.7474 20.766C77.9016 20.766 78.8724 20.3891 79.6383 19.6458C80.1431 19.1538 80.4301 18.4754 80.5056 17.6086H76.7474V16.3984H81.7612C81.8216 16.6601 81.8388 16.9135 81.8388 17.1584Z" fill="white" stroke="white" stroke-width="0.16" stroke-miterlimit="10"/>
<path d="M89.7939 12.9625H85.0843V16.145H89.33V17.3552H85.0843V20.5377H89.7939V21.7709H83.751V11.7292H89.7939V12.9625Z" fill="white" stroke="white" stroke-width="0.16" stroke-miterlimit="10"/>
<path d="M95.4066 21.7709H94.0733V12.9625H91.1846V11.7292H98.2975V12.9625H95.4066V21.7709Z" fill="white" stroke="white" stroke-width="0.16" stroke-miterlimit="10"/>
<path d="M103.445 21.7709V11.7292H104.776V21.7709H103.445Z" fill="white" stroke="white" stroke-width="0.16" stroke-miterlimit="10"/>
<path d="M110.677 21.7709H109.355V12.9625H106.455V11.7292H113.577V12.9625H110.677V21.7709Z" fill="white" stroke="white" stroke-width="0.16" stroke-miterlimit="10"/>
<path d="M127.043 20.4791C126.023 21.4946 124.758 22.0013 123.25 22.0013C121.734 22.0013 120.47 21.4946 119.449 20.4791C118.431 19.4657 117.924 18.2221 117.924 16.7501C117.924 15.2782 118.431 14.0346 119.449 13.0212C120.47 12.0057 121.734 11.499 123.25 11.499C124.75 11.499 126.014 12.0057 127.035 13.0296C128.061 14.0513 128.568 15.2866 128.568 16.7501C128.568 18.2221 128.061 19.4657 127.043 20.4791ZM120.435 19.6374C121.203 20.3891 122.137 20.766 123.25 20.766C124.355 20.766 125.298 20.3891 126.057 19.6374C126.823 18.8858 127.211 17.9206 127.211 16.7501C127.211 15.5797 126.823 14.6145 126.057 13.8629C125.298 13.1112 124.355 12.7343 123.25 12.7343C122.137 12.7343 121.203 13.1112 120.435 13.8629C119.669 14.6145 119.281 15.5797 119.281 16.7501C119.281 17.9206 119.669 18.8858 120.435 19.6374Z" fill="white" stroke="white" stroke-width="0.16" stroke-miterlimit="10"/>
<path d="M130.439 21.7709V11.7292H132.058L137.089 19.5389H137.147L137.089 17.6085V11.7292H138.42V21.7709H137.03L131.762 13.5759H131.704L131.762 15.5147V21.7709H130.439Z" fill="white" stroke="white" stroke-width="0.16" stroke-miterlimit="10"/>
<path d="M117.596 36.4357C113.542 36.4357 110.231 39.4298 110.231 43.5607C110.231 47.6582 113.542 50.6837 117.596 50.6837C121.658 50.6837 124.97 47.6582 124.97 43.5607C124.97 39.4298 121.658 36.4357 117.596 36.4357ZM117.596 47.8781C115.372 47.8781 113.458 46.0963 113.458 43.5607C113.458 40.9917 115.372 39.2413 117.596 39.2413C119.82 39.2413 121.743 40.9917 121.743 43.5607C121.743 46.0963 119.82 47.8781 117.596 47.8781ZM101.525 36.4357C97.4631 36.4357 94.1601 39.4298 94.1601 43.5607C94.1601 47.6582 97.4631 50.6837 101.525 50.6837C105.586 50.6837 108.891 47.6582 108.891 43.5607C108.891 39.4298 105.586 36.4357 101.525 36.4357ZM101.525 47.8781C99.299 47.8781 97.3789 46.0963 97.3789 43.5607C97.3789 40.9917 99.299 39.2413 101.525 39.2413C103.75 39.2413 105.663 40.9917 105.663 43.5607C105.663 46.0963 103.75 47.8781 101.525 47.8781ZM82.4022 38.6195V41.6471H89.8517C89.6338 43.3388 89.0513 44.5825 88.1582 45.4493C87.0708 46.4962 85.3773 47.6582 82.4022 47.6582C77.8177 47.6582 74.2278 44.0674 74.2278 39.6182C74.2278 35.169 77.8177 31.5782 82.4022 31.5782C84.8811 31.5782 86.6847 32.5183 88.0158 33.7369L90.2142 31.6033C88.3523 29.8781 85.8756 28.5527 82.4022 28.5527C76.1155 28.5527 70.832 33.517 70.832 39.6182C70.832 45.7194 76.1155 50.6837 82.4022 50.6837C85.8001 50.6837 88.3523 49.6033 90.3587 47.5765C92.4147 45.5812 93.0555 42.7756 93.0555 40.5101C93.0555 39.8066 92.9951 39.1597 92.8872 38.6195H82.4022ZM160.6 40.9666C159.993 39.3732 158.123 36.4357 154.313 36.4357C150.537 36.4357 147.394 39.323 147.394 43.5607C147.394 47.5514 150.505 50.6837 154.675 50.6837C158.047 50.6837 159.993 48.6883 160.794 47.5263L158.291 45.9078C157.456 47.0929 156.319 47.8781 154.675 47.8781C153.042 47.8781 151.871 47.1515 151.12 45.7194L160.938 41.7769L160.6 40.9666ZM150.589 43.3388C150.505 40.5918 152.788 39.1848 154.423 39.1848C155.704 39.1848 156.792 39.8066 157.154 40.6965L150.589 43.3388ZM142.609 50.2503H145.836V29.3128H142.609V50.2503ZM137.323 38.0228H137.215C136.491 37.1895 135.108 36.4357 133.356 36.4357C129.68 36.4357 126.318 39.568 126.318 43.5838C126.318 47.5765 129.68 50.6837 133.356 50.6837C135.108 50.6837 136.491 49.9236 137.215 49.0652H137.323V50.087C137.323 52.8109 135.824 54.2745 133.405 54.2745C131.434 54.2745 130.21 52.8926 129.705 51.7305L126.899 52.8675C127.708 54.756 129.85 57.0801 133.405 57.0801C137.19 57.0801 140.382 54.9193 140.382 49.6619V36.8691H137.323V38.0228ZM133.632 47.8781C131.408 47.8781 129.546 46.0711 129.546 43.5838C129.546 41.0734 131.408 39.2413 133.632 39.2413C135.824 39.2413 137.552 41.0734 137.552 43.5838C137.552 46.0711 135.824 47.8781 133.632 47.8781ZM175.71 29.3128H167.991V50.2503H171.21V42.3171H175.71C179.285 42.3171 182.791 39.8066 182.791 35.8139C182.791 31.8232 179.276 29.3128 175.71 29.3128ZM175.794 39.4046H171.21V32.2252H175.794C178.198 32.2252 179.57 34.1619 179.57 35.8139C179.57 37.4344 178.198 39.4046 175.794 39.4046ZM195.692 36.3959C193.366 36.3959 190.948 37.3926 189.953 39.6015L192.81 40.7635C193.424 39.6015 194.555 39.2246 195.75 39.2246C197.42 39.2246 199.114 40.1982 199.139 41.9171V42.137C198.557 41.8104 197.31 41.3267 195.776 41.3267C192.7 41.3267 189.565 42.9703 189.565 46.0376C189.565 48.8433 192.085 50.6502 194.917 50.6502C197.083 50.6502 198.279 49.7017 199.029 48.5983H199.139V50.2168H202.248V42.1851C202.248 38.4729 199.392 36.3959 195.692 36.3959ZM195.304 47.8697C194.251 47.8697 192.784 47.363 192.784 46.0963C192.784 44.4757 194.613 43.8539 196.197 43.8539C197.614 43.8539 198.279 44.1575 199.139 44.5574C198.887 46.4962 197.168 47.8697 195.304 47.8697ZM213.575 36.8545L209.875 45.9309H209.765L205.94 36.8545H202.468L208.216 49.5384L204.936 56.5964H208.3L217.156 36.8545H213.575ZM184.56 50.2503H187.787V29.3128H184.56V50.2503Z" fill="white"/>
<defs>
<linearGradient id="paint0_linear_2020_8879" x1="37.625" y1="52.4116" x2="9.52706" y2="23.4594" gradientUnits="userSpaceOnUse">
<stop stop-color="#00A0FF"/>
<stop offset="0.0066" stop-color="#00A1FF"/>
<stop offset="0.2601" stop-color="#00BEFF"/>
<stop offset="0.5122" stop-color="#00D2FF"/>
<stop offset="0.7604" stop-color="#00DFFF"/>
<stop offset="1" stop-color="#00E3FF"/>
</linearGradient>
<linearGradient id="paint1_linear_2020_8879" x1="58.3954" y1="33.4979" x2="16.6333" y2="33.4979" gradientUnits="userSpaceOnUse">
<stop stop-color="#FFE000"/>
<stop offset="0.4087" stop-color="#FFBD00"/>
<stop offset="0.7754" stop-color="#FFA500"/>
<stop offset="1" stop-color="#FF9C00"/>
</linearGradient>
<linearGradient id="paint2_linear_2020_8879" x1="42.8493" y1="29.6544" x2="4.74623" y2="-9.60713" gradientUnits="userSpaceOnUse">
<stop stop-color="#FF3A44"/>
<stop offset="1" stop-color="#C31162"/>
</linearGradient>
<linearGradient id="paint3_linear_2020_8879" x1="12.5943" y1="66.7051" x2="29.6091" y2="49.1732" gradientUnits="userSpaceOnUse">
<stop stop-color="#32A071"/>
<stop offset="0.0685" stop-color="#2DA771"/>
<stop offset="0.4762" stop-color="#15CF74"/>
<stop offset="0.8009" stop-color="#06E775"/>
<stop offset="1" stop-color="#00F076"/>
</linearGradient>
</defs>
</svg>
