<svg width="42" height="39" viewBox="0 0 42 39" fill="none" xmlns="http://www.w3.org/2000/svg">
<path d="M4.31365 22.0652C4.83229 21.6258 5.44331 21.3089 6.10129 21.1381C6.75927 20.9674 7.44727 20.9471 8.11415 21.0789C9.14596 21.2802 10.0704 21.8472 10.7175 22.6757L11.4857 20.8002C11.0934 20.4476 10.6578 20.1463 10.1895 19.9037C10.9109 19.3003 11.4292 18.4896 11.6741 17.5816C11.9191 16.6736 11.8787 15.7122 11.5586 14.8279C11.2384 13.9435 10.654 13.1791 9.88459 12.6383C9.11516 12.0975 8.19799 11.8064 7.25751 11.8047C6.31703 11.8029 5.39878 12.0905 4.62734 12.6285C3.8559 13.1664 3.26862 13.9287 2.94518 14.8118C2.62175 15.6949 2.57781 16.6561 2.81934 17.5651C3.06087 18.474 3.57617 19.2867 4.29532 19.8927C3.8828 20.105 3.49486 20.362 3.13849 20.6591C2.41643 21.2604 1.83564 22.0133 1.43735 22.8644C1.03907 23.7154 0.833072 24.6437 0.833987 25.5834V28.3334H2.66732V25.5834C2.66638 24.912 2.81342 24.2487 3.09797 23.6406C3.38253 23.0326 3.7976 22.4947 4.31365 22.0652ZM4.50065 16.4167C4.50065 15.8728 4.66194 15.3411 4.96411 14.8889C5.26629 14.4367 5.69578 14.0842 6.19827 13.8761C6.70077 13.6679 7.2537 13.6135 7.78715 13.7196C8.3206 13.8257 8.8106 14.0876 9.1952 14.4722C9.57979 14.8568 9.8417 15.3468 9.94781 15.8802C10.0539 16.4137 9.99946 16.9666 9.79132 17.4691C9.58318 17.9716 9.23071 18.4011 8.77847 18.7033C8.32624 19.0054 7.79455 19.1667 7.25065 19.1667C6.52161 19.1658 5.8227 18.8757 5.30718 18.3602C4.79167 17.8447 4.50162 17.1458 4.50065 16.4167ZM37.6895 19.9037C38.4111 19.3006 38.9297 18.49 39.1749 17.5821C39.4201 16.6741 39.38 15.7127 39.0602 14.8283C38.7403 13.9439 38.1561 13.1793 37.3868 12.6382C36.6176 12.0971 35.7005 11.8058 34.76 11.8038C33.8195 11.8017 32.9012 12.0891 32.1296 12.6268C31.358 13.1645 30.7705 13.9265 30.4468 14.8095C30.1231 15.6926 30.0788 16.6538 30.3201 17.5628C30.5613 18.4718 31.0764 19.2846 31.7953 19.8909C31.3827 20.1037 30.9947 20.3613 30.6385 20.6591C30.5908 20.6976 30.5578 20.7507 30.5102 20.7911L31.2655 22.6354C31.7758 21.9995 32.4523 21.5175 33.2199 21.2428C33.9875 20.968 34.8163 20.9113 35.6142 21.0789C36.6894 21.3234 37.647 21.932 38.325 22.8017C39.0029 23.6714 39.3593 24.7487 39.334 25.8511V28.3334H41.1673V25.8511C41.182 24.6374 40.8661 23.4427 40.2534 22.395C39.6407 21.3472 38.7544 20.486 37.6895 19.9037ZM32.0007 16.4167C32.0007 15.8728 32.1619 15.3411 32.4641 14.8889C32.7663 14.4367 33.1958 14.0842 33.6983 13.8761C34.2008 13.6679 34.7537 13.6135 35.2872 13.7196C35.8206 13.8257 36.3106 14.0876 36.6952 14.4722C37.0798 14.8568 37.3417 15.3468 37.4478 15.8802C37.5539 16.4137 37.4995 16.9666 37.2913 17.4691C37.0832 17.9716 36.7307 18.4011 36.2785 18.7033C35.8262 19.0054 35.2946 19.1667 34.7507 19.1667C34.0216 19.1658 33.3227 18.8757 32.8072 18.3602C32.2917 17.8447 32.0016 17.1458 32.0007 16.4167ZM17.334 15.5001V13.6667C17.3327 13.1114 17.4583 12.5632 17.701 12.0637C17.9437 11.5643 18.2973 11.1268 18.7347 10.7847C19.1796 10.4369 19.6982 10.1954 20.2508 10.0788C20.8033 9.96221 21.3753 9.97352 21.9228 10.1119C22.7335 10.3482 23.4427 10.8469 23.9394 11.5297C24.4361 12.2125 24.6921 13.0409 24.6673 13.8849V15.5001H26.5007V13.8867C26.5058 12.9119 26.2659 11.9515 25.803 11.0936C25.3401 10.2357 24.6691 9.50792 23.8515 8.97706C24.5968 8.3846 25.1391 7.57475 25.403 6.65999C25.667 5.74523 25.6395 4.77098 25.3245 3.87253C25.0094 2.97409 24.4224 2.19606 23.6449 1.64651C22.8675 1.09696 21.9382 0.803163 20.9861 0.805928C20.034 0.808692 19.1064 1.10788 18.3321 1.66194C17.5579 2.21599 16.9754 2.99742 16.6655 3.89767C16.3557 4.79793 16.3339 5.77233 16.6032 6.68554C16.8725 7.59875 17.4194 8.40544 18.1682 8.99356C17.9716 9.09908 17.7818 9.21664 17.5998 9.34556C16.9442 9.85863 16.4143 10.5146 16.0505 11.2634C15.6868 12.0122 15.4987 12.8342 15.5007 13.6667V15.5001H17.334ZM18.2507 5.41673C18.2507 4.87283 18.4119 4.34114 18.7141 3.88891C19.0163 3.43667 19.4458 3.0842 19.9483 2.87606C20.4508 2.66792 21.0037 2.61346 21.5372 2.71957C22.0706 2.82568 22.5606 3.08759 22.9452 3.47218C23.3298 3.85678 23.5917 4.34678 23.6978 4.88023C23.8039 5.41367 23.7495 5.96661 23.5413 6.4691C23.3332 6.9716 22.9807 7.40109 22.5285 7.70327C22.0762 8.00544 21.5446 8.16673 21.0007 8.16673C20.2716 8.16576 19.5727 7.87571 19.0572 7.3602C18.5417 6.84468 18.2516 6.14577 18.2507 5.41673ZM35.5995 38.0684L33.9018 38.7651L25.8847 19.1667H16.1167L8.09949 38.7651L6.40182 38.0684L14.419 18.4737C14.5561 18.1361 14.7909 17.8471 15.0934 17.6439C15.3959 17.4407 15.7522 17.3326 16.1167 17.3334H25.8847C26.2484 17.3324 26.6041 17.4401 26.9063 17.6426C27.2084 17.8451 27.4432 18.1332 27.5805 18.4701L35.5995 38.0684Z" fill="#5AC0BE"/>
</svg>
