<svg width="44" height="46" viewBox="0 0 44 46" fill="none" xmlns="http://www.w3.org/2000/svg">
<path d="M26.0984 0.711175C25.9523 0.564682 25.7788 0.448454 25.5877 0.36915C25.3966 0.289845 25.1918 0.249023 24.9849 0.249023C24.778 0.249023 24.5732 0.289845 24.3821 0.36915C24.191 0.448454 24.0175 0.564682 23.8714 0.711175L1.83517 22.7474C1.68886 22.8936 1.57283 23.0672 1.4937 23.2582C1.41457 23.4493 1.37391 23.6541 1.37405 23.8609V34.879C1.37403 35.0858 1.41474 35.2906 1.49386 35.4817C1.57298 35.6727 1.68896 35.8463 1.83517 35.9925L6.69292 40.8503C6.16805 42.1253 5.6028 42.7224 5.15867 42.7224C4.24705 42.7224 3.36092 41.4899 3.07192 40.8949L2.88917 40.5124L0.685547 41.5601L0.866171 41.9426C0.927796 42.0764 2.41317 45.1683 5.15867 45.1683C5.91663 45.1136 6.64257 44.8407 7.24888 44.3825C7.8552 43.9244 8.31599 43.3006 8.57567 42.5864C8.78376 42.6903 9.0125 42.7462 9.24505 42.75H20.2632C20.47 42.7501 20.6747 42.7094 20.8658 42.6302C21.0568 42.5511 21.2304 42.4351 21.3767 42.2889L43.4129 20.2527C43.5594 20.1066 43.6756 19.933 43.7549 19.742C43.8342 19.5509 43.8751 19.3461 43.8751 19.1392C43.8751 18.9323 43.8342 18.7274 43.7549 18.5364C43.6756 18.3453 43.5594 18.1718 43.4129 18.0257L26.0984 0.711175ZM20.0358 40.625H9.4703L9.37892 40.5337C9.59823 39.8317 9.78122 39.1189 9.92717 38.398C11.2204 38.6618 12.5654 38.4412 13.7066 37.7782C14.8479 37.1153 15.7057 36.0561 16.1172 34.8021C16.5286 33.548 16.465 32.1865 15.9384 30.9763C15.4118 29.7661 14.4589 28.7915 13.2608 28.2379C12.0627 27.6842 10.703 27.59 9.44 27.9732C8.17704 28.3564 7.09888 29.1903 6.41044 30.3164C5.72201 31.4424 5.47129 32.7822 5.70594 34.081C5.94059 35.3797 6.64424 36.5471 7.68317 37.361C7.63642 37.5289 7.57692 37.684 7.54292 37.8604C7.49405 38.1048 7.44092 38.3194 7.38992 38.5447L3.49905 34.6517V24.0904L24.9828 2.6003L41.5217 19.1371L20.0358 40.625ZM7.74905 33.1875C7.74905 32.5571 7.93599 31.9409 8.28624 31.4167C8.63648 30.8925 9.1343 30.4839 9.71674 30.2427C10.2992 30.0014 10.9401 29.9383 11.5584 30.0613C12.1767 30.1843 12.7447 30.4879 13.1904 30.9336C13.6362 31.3794 13.9398 31.9474 14.0628 32.5657C14.1858 33.184 14.1227 33.8249 13.8814 34.4073C13.6402 34.9898 13.2316 35.4876 12.7074 35.8379C12.1832 36.1881 11.567 36.375 10.9365 36.375C10.8919 36.375 10.8515 36.3644 10.8048 36.3623C11.1629 35.8395 11.6002 35.3757 12.101 34.9874L12.441 34.7452L11.0619 32.7349L10.7113 32.9793C9.86108 33.6175 9.13751 34.4088 8.5778 35.3125C8.04697 34.7319 7.75151 33.9743 7.74905 33.1875ZM13.1508 20.8795L25.735 8.2953L27.2374 9.79768L14.6532 22.3841L13.1508 20.8795ZM17.4454 25.1763L30.0297 12.5921L31.532 14.0944L18.9478 26.6787L17.4454 25.1763ZM21.74 29.4709L34.3264 16.8867L35.8288 18.3891L23.2445 30.9733L21.74 29.4709Z" fill="#7F529F"/>
</svg>
