<svg width="46" height="46" viewBox="0 0 46 46" fill="none" xmlns="http://www.w3.org/2000/svg">
<path fill-rule="evenodd" clip-rule="evenodd" d="M34.5038 33.4964C34.2993 33.9903 33.9995 34.439 33.6216 34.817C33.2436 35.195 32.7949 35.4947 32.301 35.6992C31.8072 35.9037 31.2779 36.009 30.7435 36.009C30.2141 36.009 29.7852 35.58 29.7852 35.0506C29.7852 34.5214 30.2141 34.0923 30.7435 34.0923C31.0262 34.0923 31.3062 34.0367 31.5675 33.9284C31.8289 33.8203 32.0662 33.6616 32.2663 33.4617C32.4662 33.2616 32.6249 33.0243 32.733 32.7629C32.8413 32.5017 32.8971 32.2216 32.8971 31.9389C32.8971 31.4095 33.326 30.9806 33.8554 30.9806C34.3846 30.9806 34.8137 31.4095 34.8137 31.9389C34.8137 32.4733 34.7083 33.0027 34.5038 33.4964Z" fill="#6E7CAA"/>
<path fill-rule="evenodd" clip-rule="evenodd" d="M8.62086 12.5036C8.82541 12.0098 9.12522 11.5611 9.50316 11.1831C9.88111 10.8052 10.3298 10.5053 10.8236 10.3008C11.3175 10.0962 11.8467 9.99097 12.3812 9.99097C12.9105 9.99097 13.3396 10.42 13.3396 10.9493C13.3396 11.4786 12.9105 11.9076 12.3812 11.9076C12.0984 11.9076 11.8184 11.9634 11.5571 12.0716C11.2958 12.1798 11.0584 12.3384 10.8585 12.5384C10.6585 12.7384 10.4999 12.9758 10.3916 13.2371C10.2834 13.4983 10.2277 13.7784 10.2277 14.0612C10.2277 14.5905 9.79864 15.0195 9.26937 15.0195C8.7401 15.0195 8.31104 14.5905 8.31104 14.0612C8.31104 13.5267 8.41632 12.9974 8.62086 12.5036Z" fill="#6E7CAA"/>
<path fill-rule="evenodd" clip-rule="evenodd" d="M36.5331 6.42763C35.4103 5.30489 33.5898 5.30489 32.4672 6.42763L25.6907 13.2041C24.5679 14.3268 24.5679 16.1472 25.6907 17.2699L26.5328 18.1121L25.7476 18.8973L20.5931 13.7428C19.4703 12.6201 17.6499 12.6201 16.5272 13.7428L12.8561 17.4139C11.7334 18.5366 11.7334 20.357 12.8561 21.4798L18.0106 26.6342L17.2501 27.3948L16.408 26.5526C15.2852 25.4298 13.4649 25.4298 12.3421 26.5526L5.56571 33.3292C4.44294 34.4517 4.44294 36.2722 5.56571 37.395L8.27627 40.1055C9.39904 41.2283 11.2194 41.2283 12.3421 40.1055L19.1186 33.3292C20.2414 32.2064 20.2414 30.3859 19.1186 29.2631L18.6054 28.7501L19.3659 27.9895L23.6985 32.3221C24.8213 33.4447 26.6415 33.4447 27.7643 32.3221L31.4353 28.651C32.5581 27.5282 32.5581 25.7079 31.4353 24.5851L27.1029 20.2527L27.8881 19.4673L28.4012 19.9805C29.524 21.1033 31.3444 21.1033 32.4672 19.9805L39.2436 13.2041C40.3664 12.0813 40.3664 10.261 39.2436 9.13822L36.5331 6.42763ZM16.5646 29.4197L16.5724 29.4278L16.5804 29.4356L17.7633 30.6184C18.1375 30.9927 18.1375 31.5996 17.7633 31.9739L10.9868 38.7503C10.6126 39.1244 10.0058 39.1244 9.63157 38.7503L6.92098 36.0397C6.54673 35.6654 6.54673 35.0586 6.92098 34.6844L13.6974 27.9079C14.0717 27.5337 14.6785 27.5337 15.0527 27.9079L16.5646 29.4197ZM33.8225 7.78292C34.1966 7.40868 34.8035 7.40868 35.1778 7.78292L37.8883 10.4935C38.2625 10.8678 38.2625 11.4745 37.8883 11.8488L31.1118 18.6252C30.7376 18.9995 30.1308 18.9995 29.7565 18.6252L27.0459 15.9147C26.6718 15.5404 26.6718 14.9336 27.0459 14.5594L33.8225 7.78292ZM14.2114 20.1245C13.8372 19.7501 13.8372 19.1434 14.2114 18.7692L17.8825 15.0981C18.2567 14.7239 18.8635 14.7239 19.2378 15.0981L30.08 25.9404C30.4543 26.3147 30.4543 26.9216 30.08 27.2957L26.409 30.9667C26.0347 31.341 25.4279 31.341 25.0538 30.9667L14.2114 20.1245Z" fill="#6E7CAA"/>
</svg>
