<svg width="47" height="46" viewBox="0 0 47 46" fill="none" xmlns="http://www.w3.org/2000/svg">
<path fill-rule="evenodd" clip-rule="evenodd" d="M35.0038 33.4964C34.7993 33.9903 34.4995 34.439 34.1216 34.817C33.7436 35.195 33.2949 35.4947 32.801 35.6992C32.3072 35.9037 31.7779 36.009 31.2435 36.009C30.7141 36.009 30.2852 35.58 30.2852 35.0506C30.2852 34.5214 30.7141 34.0923 31.2435 34.0923C31.5262 34.0923 31.8062 34.0367 32.0675 33.9284C32.3289 33.8203 32.5662 33.6616 32.7663 33.4617C32.9662 33.2616 33.1249 33.0243 33.233 32.7629C33.3413 32.5017 33.3971 32.2216 33.3971 31.9389C33.3971 31.4095 33.826 30.9806 34.3554 30.9806C34.8846 30.9806 35.3137 31.4095 35.3137 31.9389C35.3137 32.4733 35.2083 33.0027 35.0038 33.4964Z" fill="#775FA1"/>
<path fill-rule="evenodd" clip-rule="evenodd" d="M9.12086 12.5036C9.32541 12.0098 9.62522 11.5611 10.0032 11.1831C10.3811 10.8052 10.8298 10.5053 11.3236 10.3008C11.8175 10.0962 12.3467 9.99097 12.8812 9.99097C13.4105 9.99097 13.8396 10.42 13.8396 10.9493C13.8396 11.4786 13.4105 11.9076 12.8812 11.9076C12.5984 11.9076 12.3184 11.9634 12.0571 12.0716C11.7958 12.1798 11.5584 12.3384 11.3585 12.5384C11.1585 12.7384 10.9999 12.9758 10.8916 13.2371C10.7834 13.4983 10.7277 13.7784 10.7277 14.0612C10.7277 14.5905 10.2986 15.0195 9.76937 15.0195C9.2401 15.0195 8.81104 14.5905 8.81104 14.0612C8.81104 13.5267 8.91632 12.9974 9.12086 12.5036Z" fill="#775FA1"/>
<path fill-rule="evenodd" clip-rule="evenodd" d="M37.0331 6.42763C35.9103 5.30489 34.0898 5.30489 32.9672 6.42763L26.1907 13.2041C25.0679 14.3268 25.0679 16.1472 26.1907 17.2699L27.0328 18.1121L26.2476 18.8973L21.0931 13.7428C19.9703 12.6201 18.1499 12.6201 17.0272 13.7428L13.3561 17.4139C12.2334 18.5366 12.2334 20.357 13.3561 21.4798L18.5106 26.6342L17.7501 27.3948L16.908 26.5526C15.7852 25.4298 13.9649 25.4298 12.8421 26.5526L6.06571 33.3292C4.94294 34.4517 4.94294 36.2722 6.06571 37.395L8.77627 40.1055C9.89904 41.2283 11.7194 41.2283 12.8421 40.1055L19.6186 33.3292C20.7414 32.2064 20.7414 30.3859 19.6186 29.2631L19.1054 28.7501L19.8659 27.9895L24.1985 32.3221C25.3213 33.4447 27.1415 33.4447 28.2643 32.3221L31.9353 28.651C33.0581 27.5282 33.0581 25.7079 31.9353 24.5851L27.6029 20.2527L28.3881 19.4673L28.9012 19.9805C30.024 21.1033 31.8444 21.1033 32.9672 19.9805L39.7436 13.2041C40.8664 12.0813 40.8664 10.261 39.7436 9.13822L37.0331 6.42763ZM17.0646 29.4197L17.0724 29.4278L17.0804 29.4356L18.2633 30.6184C18.6375 30.9927 18.6375 31.5996 18.2633 31.9739L11.4868 38.7503C11.1126 39.1244 10.5058 39.1244 10.1316 38.7503L7.42098 36.0397C7.04673 35.6654 7.04673 35.0586 7.42098 34.6844L14.1974 27.9079C14.5717 27.5337 15.1785 27.5337 15.5527 27.9079L17.0646 29.4197ZM34.3225 7.78292C34.6966 7.40868 35.3035 7.40868 35.6778 7.78292L38.3883 10.4935C38.7625 10.8678 38.7625 11.4745 38.3883 11.8488L31.6118 18.6252C31.2376 18.9995 30.6308 18.9995 30.2565 18.6252L27.5459 15.9147C27.1718 15.5404 27.1718 14.9336 27.5459 14.5594L34.3225 7.78292ZM14.7114 20.1245C14.3372 19.7501 14.3372 19.1434 14.7114 18.7692L18.3825 15.0981C18.7567 14.7239 19.3635 14.7239 19.7378 15.0981L30.58 25.9404C30.9543 26.3147 30.9543 26.9216 30.58 27.2957L26.909 30.9667C26.5347 31.341 25.9279 31.341 25.5538 30.9667L14.7114 20.1245Z" fill="#775FA1"/>
</svg>
